<svg width="56" height="63" viewBox="0 0 56 63" fill="none" xmlns="http://www.w3.org/2000/svg">
<path d="M46.772 29.7101C49.5915 17.5194 39.5754 6.47955 27.3847 3.66007C15.1939 0.840591 9.9246 7.06808 7.10512 19.2588C4.28564 31.4495 11.8825 43.6177 24.0732 46.4372C36.264 49.2566 43.9526 41.9008 46.772 29.7101Z" fill="#8BC34A"/>
<g clip-path="url(#clip0)">
<path d="M27.055 28.3525C27.4199 28.699 28.0266 28.629 28.3039 28.2107L33.7637 19.9708C34.014 19.5931 33.9106 19.0839 33.5329 18.8335C33.1557 18.5835 32.6464 18.6869 32.396 19.0642L27.4759 26.4897L24.7419 23.8938C24.4134 23.5819 23.8943 23.5956 23.582 23.9241C23.2701 24.2527 23.2838 24.7718 23.6123 25.0837C23.6119 25.0837 27.0521 28.35 27.055 28.3525Z" fill="#333333"/>
<path d="M27.6148 40.8644C27.7716 40.9362 27.945 40.9742 28.1177 40.9742H28.1245C28.3001 40.9733 28.4761 40.9332 28.6333 40.858C41.1072 34.9257 43.2212 22.1262 43.5716 18.3447C43.6519 17.4812 43.1657 16.6771 42.362 16.3439C39.8789 15.3129 38.1908 13.0075 37.9567 10.3274C37.8845 9.50238 37.1795 8.85938 36.349 8.85938H36.3392L19.5339 8.95807C18.6866 8.96277 17.9983 9.60663 17.9334 10.4556C17.7266 13.1365 16.0633 15.4586 13.5926 16.5156C12.797 16.8557 12.3228 17.6641 12.4134 18.5271C12.8081 22.3044 15.0721 35.0786 27.6148 40.8644ZM14.2377 18.0238C17.2673 16.7284 19.3083 13.8842 19.5676 10.5983L36.3246 10.5C36.6224 13.7787 38.6924 16.5968 41.7331 17.8589C41.869 17.9157 41.9515 18.0499 41.9382 18.1934C41.6092 21.7374 39.6409 33.6871 28.1147 39.287C16.5222 33.8234 14.4154 21.8968 14.0446 18.3566C14.0296 18.2135 14.1074 18.0798 14.2377 18.0238Z" fill="#333333"/>
<path d="M16.2857 22.5715C16.3848 22.9364 16.8475 23.2705 17.2927 23.1479C17.7294 23.0274 17.9879 22.5784 17.8691 22.1413C17.6602 21.3714 17.4846 20.5908 17.3466 19.8175C19.5751 18.3653 21.2289 16.1979 22.0403 13.6664L33.887 13.5968C34.7278 16.118 36.4069 18.2666 38.6525 19.6923C38.5239 20.4678 38.3572 21.2509 38.1569 22.0238C38.0432 22.4626 38.3068 22.9103 38.7452 23.024C39.1844 23.1376 39.6317 22.874 39.7454 22.4353C39.9803 21.5278 40.1718 20.6066 40.3136 19.6975C40.3931 19.1895 40.1606 18.69 39.7223 18.4251C37.6305 17.1617 36.0843 15.1798 35.3687 12.8444C35.2076 12.3193 34.7124 11.9545 34.163 11.9545H34.1553L21.7523 12.0271C21.1995 12.0305 20.7047 12.4026 20.5496 12.9316C19.8618 15.275 18.3386 17.275 16.2618 18.5631C15.8264 18.8327 15.6004 19.3347 15.6854 19.8423C15.8384 20.7493 16.04 21.6675 16.2857 22.5715Z" fill="#333333"/>
<path d="M38.0872 25.0037C37.6685 24.8302 37.1892 25.0302 37.0161 25.4489C35.1204 30.0435 32.1195 33.5366 28.0939 35.8357C24.0372 33.5811 20.9927 30.1174 19.0436 25.5373C18.8659 25.1208 18.3839 24.9268 17.9674 25.1041C17.5504 25.2814 17.3564 25.7633 17.5337 26.1799C19.661 31.1778 23.0123 34.9457 27.4945 37.378C27.6834 37.481 27.8901 37.5318 28.0965 37.5318C28.308 37.5318 28.5191 37.4784 28.7113 37.3712C33.1598 34.8893 36.4641 31.0885 38.5328 26.0744C38.7059 25.6557 38.5064 25.1763 38.0872 25.0037Z" fill="#333333"/>
<path d="M5.26312 50.8346C3.66309 50.8346 2.36084 52.1364 2.36084 53.7369C2.36084 55.3373 3.66309 56.6392 5.26312 56.6392C6.86359 56.6392 8.16583 55.3373 8.16583 53.7369C8.16583 52.1364 6.86401 50.8346 5.26312 50.8346ZM5.26312 54.9985C4.56757 54.9985 4.00147 54.4329 4.00147 53.7369C4.00147 53.0413 4.56757 52.4752 5.26312 52.4752C5.95911 52.4752 6.52521 53.0413 6.52521 53.7369C6.52521 54.4329 5.95911 54.9985 5.26312 54.9985Z" fill="#333333"/>
<path d="M55.4117 42.8039C54.3602 41.259 52.2432 40.8497 50.6927 41.8913L39.9689 49.0686L37.6797 48.94L37.6211 48.3538C37.393 46.0582 35.6383 44.2292 33.3542 43.9062C33.3397 43.9041 33.3256 43.9023 33.3111 43.9011L21.7558 42.8885C21.3649 42.8274 20.1135 42.4681 16.675 40.4959C14.8878 39.4709 12.8742 38.8925 10.8285 38.8138V36.6678C10.8285 35.5907 9.95269 34.7148 8.87561 34.7148H1.95294C0.876281 34.7148 0 35.5911 0 36.6678V57.8041C0 58.8807 0.876281 59.757 1.95294 59.757H8.87561C9.95227 59.757 10.8285 58.8807 10.8285 57.8041V57.2217L20.9295 61.0469C20.9517 61.0554 21.772 61.3622 23.2802 61.2199C23.2845 61.2195 40.0637 58.8004 40.0637 58.8004C40.068 58.8 40.0718 58.7991 40.0761 58.7983C41.5099 58.5697 42.8622 57.9634 43.9871 57.0461C43.9974 57.0376 44.0072 57.0291 44.017 57.0205L54.8567 47.2712C56.1341 46.1368 56.373 44.2164 55.4117 42.8039ZM53.7634 46.048L42.9352 55.7871C42.0389 56.5138 40.9631 56.9944 39.8232 57.1773L23.0521 59.5951C23.0482 59.5955 23.0427 59.5964 23.0375 59.5972C23.035 59.5977 23.032 59.5981 23.0294 59.5985C22.5278 59.6776 22.0053 59.6442 21.4759 59.4994L10.8285 55.4675V46.0992C10.8285 45.6459 10.4611 45.2789 10.0082 45.2789C9.55493 45.2789 9.18792 45.6459 9.18792 46.0992V57.8041C9.18792 57.9763 9.04779 58.1164 8.87561 58.1164H1.95294C1.78076 58.1164 1.64062 57.9763 1.64062 57.8041V36.6678C1.64062 36.4956 1.78076 36.3555 1.95294 36.3555H8.87561C9.04779 36.3555 9.18792 36.4956 9.18792 36.6678V42.3937C9.18792 42.847 9.55536 43.2141 10.0082 43.2141C10.4615 43.2141 10.8285 42.8466 10.8285 42.3937V40.4562C12.5884 40.5339 14.3196 41.0364 15.8585 41.9195C20.0058 44.298 21.1641 44.462 21.5447 44.5159C21.5593 44.518 21.5734 44.5193 21.5879 44.521L33.1445 45.5336C34.668 45.7587 35.8361 46.9824 35.9886 48.5162L36.0322 48.9532L20.5604 49.9086C20.5497 49.9077 20.539 49.9069 20.5296 49.906C20.028 49.8607 19.5751 49.6236 19.2534 49.2382C18.9633 48.89 18.4459 48.843 18.0981 49.1335C17.7499 49.4236 17.7029 49.941 17.9935 50.2888C18.5955 51.0109 19.4448 51.4428 20.3835 51.5402C20.8902 51.5932 36.9346 50.5413 36.9346 50.5413L40.1509 50.722C40.3286 50.7323 40.5051 50.6836 40.6529 50.5845L51.6066 43.2538C52.4111 42.7133 53.5096 42.9252 54.0552 43.7267C54.5538 44.4599 54.4299 45.4562 53.7634 46.048Z" fill="#333333"/>
</g>
<defs>
<clipPath id="clip0">
<rect width="56" height="56" fill="white" transform="translate(0 7)"/>
</clipPath>
</defs>
</svg>
