<svg width="57" height="72" viewBox="0 0 57 72" fill="none" xmlns="http://www.w3.org/2000/svg">
<path d="M51.772 50.3781C54.5915 38.1874 44.5754 27.1475 32.3847 24.328C20.1939 21.5086 14.9246 27.736 12.1051 39.9268C9.28564 52.1175 16.8825 64.2856 29.0732 67.1051C41.264 69.9246 48.9526 62.5688 51.772 50.3781Z" fill="#8BC34A"/>
<g clip-path="url(#clip0)">
<path d="M48.4452 44.2412C47.9969 44.1732 47.5795 44.4822 47.512 44.9302C46.704 50.3008 41.9916 54.3509 36.5506 54.3509C30.438 54.3509 25.465 49.3778 25.465 43.2653C25.465 37.1527 30.4381 32.1797 36.5506 32.1797C41.9914 32.1797 46.7039 36.2297 47.512 41.6004C47.5794 42.0484 47.9982 42.3571 48.4451 42.2894C48.893 42.222 49.2015 41.8041 49.1341 41.3562C48.2091 35.2104 42.7625 30.5392 36.5506 30.5392C36.0726 30.5392 32.2753 30.5665 32.2753 30.5665V28.795H34.852C35.3051 28.795 35.6722 28.4278 35.6722 27.9748V24.5782C35.6722 24.1252 35.3051 23.758 34.852 23.758H25.8755L31.3753 19.1877C32.448 18.296 32.5954 16.6969 31.7036 15.6224C30.6059 14.5286 29.4176 14.4192 28.1384 15.294L25.4814 17.5023V0.820184C25.4814 0.367224 25.1142 0 24.6613 0H21.2646C20.8116 0 20.4444 0.367224 20.4444 0.820184V6.45868C20.4444 6.91164 20.8116 7.27886 21.2646 7.27886C21.7176 7.27886 22.0848 6.91164 22.0848 6.45868V1.64037H23.8411V19.2503C23.8564 20.0169 24.4578 20.4543 25.1855 19.8811L29.1871 16.5553C29.9127 15.952 31.3857 17.0457 30.3268 17.9262L23.5324 23.5723C23.2159 23.8352 22.71 23.8356 22.3936 23.5723L15.5989 17.9258C14.7015 17.1808 15.8694 15.8342 16.739 16.5555L20.7404 19.8811C21.3139 20.3723 22.0794 20.1809 22.0849 19.2503V10.0336C22.0849 9.58063 21.7177 9.2134 21.2647 9.2134C20.8117 9.2134 20.4445 9.58063 20.4445 10.0336V17.5022L17.7869 15.2934C16.5535 14.4177 15.3653 14.5274 14.2225 15.6222C13.3469 16.9015 13.4563 18.09 14.5509 19.1877L20.0505 23.758H11.0736C10.6207 23.758 10.2535 24.1252 10.2535 24.5782V27.1625H7.67687C7.22391 27.1625 6.85669 27.5298 6.85669 27.9827V31.3796C6.85669 31.8326 7.22391 32.1998 7.67687 32.1998H10.2533V33.9644H7.67687C7.22391 33.9644 6.85669 34.3316 6.85669 34.7846V38.1812C6.85669 38.6342 7.22391 39.0014 7.67687 39.0014H10.2533V40.7621H7.67687C7.22391 40.7621 6.85669 41.1293 6.85669 41.5822V44.98C6.85669 45.433 7.22391 45.8002 7.67687 45.8002H10.2533V47.5565H7.67687C7.22391 47.5565 6.85669 47.9237 6.85669 48.3767V51.7733C6.85669 52.2263 7.22391 52.5935 7.67687 52.5935H10.2533V55.1798C10.2533 55.6328 10.6206 56 11.0735 56C11.0735 56 36.0958 55.9912 36.5506 55.9912C42.7629 55.9912 48.2092 51.3204 49.1341 45.1742C49.2016 44.7263 48.8931 44.3085 48.4452 44.2412ZM11.8938 25.3984H34.0318V27.1549H11.8938V25.3984ZM8.49706 28.8029H30.635V30.5594H8.49706V28.8029ZM8.49706 35.6047H15.3024C15.7554 35.6047 16.1226 35.2375 16.1226 34.7846C16.1226 34.3316 15.7554 33.9644 15.3024 33.9644H11.8937V32.207H30.2583C29.3957 32.6998 28.5963 33.2908 27.8747 33.9644H18.8762C18.4233 33.9644 18.056 34.3316 18.056 34.7846C18.056 35.2375 18.4233 35.6047 18.8762 35.6047H26.3954C25.9779 36.1569 25.6046 36.7441 25.2801 37.361H8.49706V35.6047ZM24.5603 39.0014C24.3577 39.5695 24.1941 40.1559 24.0733 40.7577H11.8937V39.0014H24.5603ZM8.49706 42.4024H23.8545C23.8141 42.9883 23.8147 43.574 23.8565 44.1598H8.49706V42.4024ZM11.8937 45.8002H24.0786C24.2007 46.4021 24.3659 46.9885 24.5699 47.5565H11.8937V45.8002ZM8.49706 49.1968H11.0735H25.2945C25.6211 49.8139 25.9966 50.4011 26.4164 50.9531H8.49706V49.1968ZM11.8937 54.3596V52.6033H27.9146C28.6437 53.2781 29.4516 53.8686 30.3228 54.3596H11.8937Z" fill="#333333"/>
<path d="M36.5342 33.96C31.3993 33.96 27.2217 38.1375 27.2217 43.2724C27.2217 48.4073 31.3993 52.5849 36.5342 52.5849C41.6691 52.5849 45.8465 48.4073 45.8465 43.2724C45.8465 38.1375 41.6691 33.96 36.5342 33.96ZM36.5342 50.9446C32.3038 50.9446 28.862 47.5028 28.862 43.2724C28.862 39.042 32.3039 35.6003 36.5342 35.6003C40.7645 35.6003 44.2062 39.042 44.2062 43.2724C44.2062 47.5028 40.7645 50.9446 36.5342 50.9446Z" fill="#333333"/>
</g>
<defs>
<clipPath id="clip0">
<rect width="56" height="56" fill="white"/>
</clipPath>
</defs>
</svg>
