<svg width="109" height="103" viewBox="0 0 109 103" fill="none" xmlns="http://www.w3.org/2000/svg">
<path d="M60.9205 17.5912C82.6348 26.1389 93.2652 48.8161 84.7175 70.5304C76.1698 92.2447 61.0315 93.7628 39.3172 85.2152C17.6029 76.6675 6.92925 52.1354 15.4769 30.4211C24.0246 8.70675 39.2062 9.04355 60.9205 17.5912Z" fill="white"/>
<path d="M39.2625 16.8979C17.7902 25.3503 7.30682 47.746 15.7476 69.1886C19.9761 79.9309 26.8785 86.5873 35.3672 89.526C43.8697 92.4695 54.0352 91.7076 64.8169 87.4635C75.5493 83.2387 84.5985 74.5087 89.9029 64.1385C95.2069 53.7692 96.7446 41.8073 92.5344 31.1118C88.3275 20.4245 80.422 14.7694 70.8771 12.8223C61.305 10.8697 50.0638 12.646 39.2625 16.8979Z" stroke="white"/>
<path d="M60 29V73H49.8079V37.1714H41V29H60Z" fill="#181818"/>
</svg>
