<svg width="68" height="68" viewBox="0 0 68 68" fill="none" xmlns="http://www.w3.org/2000/svg">
<g clip-path="url(#clip0)">
<path d="M66.772 29.7101C69.5915 17.5194 59.5754 6.47955 47.3847 3.66007C35.1939 0.840591 29.9246 7.06808 27.1051 19.2588C24.2856 31.4495 31.8825 43.6177 44.0732 46.4372C56.264 49.2566 63.9526 41.9008 66.772 29.7101Z" fill="#8BC34A"/>
<path d="M49.8374 16.5281L47.4444 14.4209L49.8374 12.3141C50.2096 11.986 50.3369 11.4746 50.1621 11.0106C49.9865 10.5462 49.5529 10.2463 49.0569 10.2463H39.1542V9.82074C39.1542 9.36743 38.7867 9 38.3334 9C37.8801 9 37.5127 9.36743 37.5127 9.82074V20.8898L30.772 24.55C30.7349 24.2535 30.646 23.9621 30.5054 23.6878L29.5557 21.8336C28.9037 20.5604 27.3374 20.0558 26.0651 20.7074L25.3306 21.0834C24.7137 21.3995 24.257 21.9361 24.0442 22.5958C23.8314 23.255 23.8883 23.9579 24.2044 24.5744L25.1542 26.429C25.3759 26.8618 25.7036 27.2045 26.089 27.4446C25.5849 28.1235 25.3456 28.9583 25.0995 29.8256L24.9226 30.452C24.7991 30.8882 25.0529 31.3419 25.4891 31.465C25.5635 31.4863 25.6387 31.4962 25.7126 31.4962C26.0706 31.4962 26.3996 31.2603 26.5021 30.8985L26.679 30.2734C27.0388 29.0049 27.2597 28.3256 27.9629 27.9436L29.2237 27.2588L29.3792 27.1793C29.4309 27.1528 29.4792 27.1229 29.5283 27.0934L38.5141 22.2138C38.4573 23.3371 37.8528 24.3983 36.8573 25.0029L31.0139 28.5533C31.007 28.5572 31.0002 28.561 30.9938 28.5653L29.175 29.6701C28.7879 29.9055 28.6644 30.4105 28.8998 30.7981C29.1216 31.1633 29.583 31.2932 29.9594 31.1099L28.5794 35.2816L27.5707 35.6951L24.8278 36.8192L25.6182 34.025C25.7412 33.5888 25.4879 33.1351 25.0516 33.0116C24.615 32.8877 24.1617 33.1419 24.0382 33.5781L22.7894 37.9946C22.7731 38.0514 22.7625 38.1138 22.7599 38.1732L22.4331 44.1768C22.4232 44.4058 22.4719 44.8386 22.366 45.0621L18.7361 52.6986H16.0983C14.553 52.6986 13.296 53.9556 13.296 55.5005V57.8696C12.9422 57.7077 12.5496 57.6171 12.1356 57.6171H5.43682C3.8919 57.6171 2.63494 58.8736 2.63494 60.419V63.3584H0.664488C0.211181 63.3584 -0.15625 63.7258 -0.15625 64.1791C-0.15625 64.6325 0.211181 64.9999 0.664488 64.9999H49.056C49.5093 64.9999 49.8767 64.6325 49.8767 64.1791C49.8767 63.7258 49.5093 63.3584 49.056 63.3584H46.9215V42.2034C46.9215 40.6584 45.6645 39.4015 44.1196 39.4015H39.1542V25.0832C40.0642 23.8498 40.4013 22.2331 39.9787 20.6967C39.9125 20.4553 39.7395 20.2571 39.5088 20.1592C39.3956 20.1109 39.2742 20.0896 39.1542 20.0943V18.5959H49.0564C49.5529 18.5959 49.9865 18.296 50.1617 17.832C50.3369 17.368 50.2096 16.8562 49.8374 16.5281ZM25.6066 23.0999C25.6848 22.8577 25.8523 22.6603 26.0787 22.5445L26.8132 22.1686C26.9516 22.0976 27.0994 22.0639 27.2456 22.0639C27.5916 22.0639 27.9262 22.2531 28.0945 22.5817L29.0447 24.4364C29.2664 24.8696 29.1229 25.3947 28.7285 25.66L28.4611 25.8048L27.8967 26.0941C27.4297 26.3333 26.8546 26.1479 26.6154 25.6805L25.6652 23.8263C25.5494 23.5998 25.5285 23.3418 25.6066 23.0999ZM23.9575 52.9511C23.6785 52.8238 23.3751 52.7405 23.0564 52.711L23.9575 51.5143V52.9511ZM27.8544 46.3378C28.2492 45.8649 28.3581 45.3124 28.4461 44.8672C28.4683 44.7613 28.8734 42.549 28.8734 42.549C28.8734 42.549 29.2566 42.7878 29.2968 42.8049C29.3245 42.8173 29.3442 42.8447 29.3472 42.8767L29.7936 47.4153H27.043L27.8544 46.3378ZM32.7079 41.8077L32.0149 47.4115H31.4428L30.981 42.7161C30.922 42.1145 30.5537 41.5894 30.0141 41.3284L29.1887 40.805L29.7385 37.7575C29.7385 37.7575 32.0551 40.5093 32.1089 40.5794C32.5883 41.2028 32.7523 41.4523 32.7079 41.8077ZM23.8425 45.7798C24.0083 45.2808 24.0852 44.7728 24.0724 44.2563L24.3706 38.7807L28.1667 37.2251L27.4767 41.0472C27.4746 41.0575 27.4724 41.0682 27.4711 41.0784L26.9003 44.2388C26.826 44.566 26.7611 45.0625 26.5568 45.3321L21.0108 52.6986H20.5536L23.8425 45.7798ZM4.27642 60.4185C4.27642 59.779 4.7968 59.2586 5.43682 59.2586H12.1356C12.7756 59.2586 13.2964 59.779 13.2964 60.4185V63.3584H4.27642V60.4185ZM14.9375 60.4185V55.5005C14.9375 54.8605 15.4583 54.3401 16.0983 54.3401H22.7971C23.4371 54.3401 23.9575 54.8605 23.9575 55.5005V63.3584H14.9379V60.4185H14.9375ZM45.28 42.2034V63.3584H36.2604V58.4374C36.2604 57.9841 35.893 57.6167 35.4397 57.6167C34.986 57.6167 34.6185 57.9841 34.6185 58.4374V63.3584H25.5989V50.2168C25.5989 49.5772 26.1193 49.0568 26.7593 49.0568H33.4581C34.0981 49.0568 34.6185 49.5772 34.6185 50.2168V54.3312C34.6185 54.7845 34.986 55.1519 35.4393 55.1519C35.893 55.1519 36.26 54.7845 36.26 54.3312V42.2034C36.26 41.5634 36.7808 41.043 37.4208 41.043H38.3249C38.3274 41.043 38.3304 41.0434 38.3334 41.0434C38.336 41.0434 38.339 41.043 38.3415 41.043H44.1192C44.7592 41.043 45.28 41.5638 45.28 42.2034ZM37.4208 39.4015C35.8759 39.4015 34.619 40.6584 34.619 42.2034V47.6678C34.325 47.5337 34.0046 47.4487 33.6675 47.4239L34.337 42.0098C34.4686 40.9545 33.9302 40.2551 33.4098 39.5784C33.3547 39.5066 30.1645 35.7186 30.1645 35.7186L32.1217 29.8013L37.5127 26.526V39.4015H37.4208ZM39.1542 16.954V11.8882H47.8371L45.967 13.5348C45.7124 13.7591 45.5663 14.0821 45.5663 14.4213C45.5663 14.7605 45.7124 15.0835 45.967 15.3078L47.8371 16.9545H39.1542V16.954Z" fill="black"/>
</g>
<defs>
<clipPath id="clip0">
<rect width="68" height="68" fill="white"/>
</clipPath>
</defs>
</svg>
