<svg width="68" height="68" viewBox="0 0 68 68" fill="none" xmlns="http://www.w3.org/2000/svg">
<path d="M50.772 39.7101C53.5915 27.5194 43.5754 16.4796 31.3847 13.6601C19.1939 10.8406 13.9246 17.0681 11.1051 29.2588C8.28564 41.4495 15.8825 53.6177 28.0732 56.4372C40.264 59.2566 47.9526 51.9008 50.772 39.7101Z" fill="#CFF08F"/>
<g clip-path="url(#clip0)">
<path d="M31.2034 43.9659C34.6107 43.9659 37.3729 41.2038 37.3729 37.7964C37.3729 34.3891 34.6107 31.627 31.2034 31.627C27.7961 31.627 25.0339 34.3891 25.0339 37.7964C25.0392 41.2016 27.7983 43.9607 31.2034 43.9659ZM31.2034 33.5253C33.5623 33.5253 35.4746 35.4375 35.4746 37.7964C35.4746 40.1554 33.5623 42.0676 31.2034 42.0676C28.8445 42.0676 26.9322 40.1554 26.9322 37.7964C26.9375 35.4397 28.8467 33.5305 31.2034 33.5253Z" fill="#5A5A5A"/>
<path d="M9.33505 32.3106C7.96516 32.5611 6.97743 33.7656 7.00014 35.1581V40.5303C6.97743 41.9227 7.96516 43.1272 9.33505 43.3777L14.8876 44.3838C14.9445 44.5357 15.011 44.6875 15.0774 44.8299L11.8598 49.3764C11.0771 50.5091 11.217 52.0395 12.192 53.0116L15.9886 56.8082C16.9631 57.7803 18.4934 57.9161 19.6239 57.1309L24.2652 53.9133L24.7113 54.1031L25.7174 59.6557C25.9679 61.0256 27.1725 62.0133 28.5649 61.9906H33.9371C35.3295 62.0133 36.5341 61.0256 36.7845 59.6557L37.7906 54.1031L38.2367 53.9133L42.8781 57.1309C44.0108 57.9136 45.5413 57.7738 46.5134 56.7987L49.5696 53.752C49.9523 53.3903 49.9693 52.7868 49.6076 52.4042C49.2459 52.0215 48.6425 52.0045 48.2598 52.3662L45.1656 55.4604C44.8433 55.783 44.3371 55.8308 43.9601 55.5743L40.1635 52.9357C42.3631 51.6389 44.2493 49.8726 45.6876 47.7628C45.9811 47.3277 45.8664 46.737 45.4313 46.4435C44.9962 46.1499 44.4056 46.2647 44.112 46.6997C39.6059 53.2645 30.8913 55.4031 23.8581 51.6702C16.8249 47.9373 13.7121 39.5213 16.6237 32.1102C19.5352 24.6992 27.5441 20.6525 35.2374 22.7052C35.5664 22.7899 35.9155 22.6928 36.1534 22.4503C36.3913 22.2079 36.4817 21.8569 36.3907 21.5297C36.2996 21.2024 36.0409 20.9486 35.712 20.8638C32.7768 20.1047 29.6967 20.1047 26.7615 20.8638L27.5778 16.3174C27.6613 15.8607 28.0628 15.5315 28.5269 15.5391H31.6781C32.2023 15.5391 32.6273 15.1141 32.6273 14.5899C32.6273 14.0657 32.2023 13.6408 31.6781 13.6408H28.5174C27.125 13.6181 25.9205 14.6058 25.67 15.9757L24.6639 21.5282L24.2178 21.7181L19.6239 18.453C18.4912 17.6703 16.9607 17.8101 15.9886 18.7852L12.192 22.5818C11.22 23.5563 11.0841 25.0865 11.8693 26.217L15.0869 30.8584C15.0205 31.0008 14.954 31.1526 14.8971 31.3045L9.33505 32.3106ZM8.89844 40.4828V35.1106C8.89087 34.6465 9.22012 34.2449 9.67675 34.1614L14.2137 33.3452C13.4543 36.2578 13.4543 39.3166 14.2137 42.2292L9.67675 41.413C9.22722 41.3307 8.90012 40.9398 8.89844 40.4828ZM35.6456 54.7865L34.8293 59.3235C34.7458 59.7801 34.3443 60.1094 33.8801 60.1018H28.5174C28.0533 60.1094 27.6518 59.7801 27.5683 59.3235L26.752 54.7865C29.6671 55.5523 32.7305 55.5523 35.6456 54.7865ZM22.3574 52.9547L18.5608 55.5838C18.186 55.8428 17.6801 55.799 17.3554 55.4794L13.5588 51.6828C13.2362 51.3605 13.1884 50.8544 13.4449 50.4774L16.074 46.6808C17.5948 49.2739 19.7548 51.4339 22.3479 52.9547H22.3574ZM13.5208 23.9296L17.3174 20.133C17.6397 19.8104 18.1459 19.7625 18.5229 20.0191L22.3195 22.6482C19.7124 24.173 17.5419 26.3435 16.0171 28.9506L13.3879 25.154C13.1255 24.7686 13.1818 24.2497 13.5208 23.9296Z" fill="#5A5A5A"/>
<path d="M61.1018 6H36.4238C35.3754 6 34.5255 6.8499 34.5255 7.89831V16.4407C34.5169 17.1157 34.8821 17.7403 35.4747 18.0637C35.8575 18.2912 36.304 18.3878 36.7466 18.339C39.4706 25.1634 38.8442 23.5783 39.8123 25.9892C38.9466 26.1797 38.328 26.9441 38.3222 27.8305V30.678C38.3222 31.7264 39.1721 32.5763 40.2205 32.5763H41.1696V35.4237C41.1696 36.4721 42.0195 37.322 43.0679 37.322H44.0171V43.0169C44.0171 43.3157 44.1577 43.597 44.3967 43.7763L47.8137 46.339V49.661C47.8137 50.1852 48.2386 50.6102 48.7628 50.6102C49.287 50.6102 49.712 50.1852 49.712 49.661V46.339L53.1289 43.7763C53.3679 43.597 53.5086 43.3157 53.5086 43.0169V37.322H54.4577C55.5061 37.322 56.356 36.4721 56.356 35.4237V32.5763H57.3052C58.3536 32.5763 59.2035 31.7264 59.2035 30.678V27.8305C59.1997 26.9497 58.5905 26.1873 57.7323 25.9892L60.7981 18.339H61.1018C62.1502 18.339 63.0001 17.4891 63.0001 16.4407V7.89831C63.0001 6.8499 62.1502 6 61.1018 6V6ZM51.6103 42.5424L48.7628 44.678L45.9154 42.5424V37.322H51.6103V42.5424ZM57.3052 30.678H48.7628C48.2386 30.678 47.8137 31.1029 47.8137 31.6271C47.8137 32.1513 48.2386 32.5763 48.7628 32.5763H54.4577V35.4237H43.0679V32.5763H44.9662C45.4904 32.5763 45.9154 32.1513 45.9154 31.6271C45.9154 31.1029 45.4904 30.678 44.9662 30.678H40.2205V27.8305H57.3052V30.678ZM55.7106 25.9322H41.815L38.7777 18.339H58.7099L55.7106 25.9322ZM61.1018 16.4407H36.4238V7.89831H61.1018V16.4407Z" fill="#5A5A5A"/>
<path d="M39.2714 11.6949H41.1697C41.6939 11.6949 42.1189 11.27 42.1189 10.7458C42.1189 10.2216 41.6939 9.79663 41.1697 9.79663H39.2714C38.7472 9.79663 38.3223 10.2216 38.3223 10.7458C38.3223 11.27 38.7472 11.6949 39.2714 11.6949Z" fill="#5A5A5A"/>
<path d="M44.9662 11.6949H58.2544C58.7786 11.6949 59.2035 11.27 59.2035 10.7458C59.2035 10.2216 58.7786 9.79663 58.2544 9.79663H44.9662C44.442 9.79663 44.0171 10.2216 44.0171 10.7458C44.0171 11.27 44.442 11.6949 44.9662 11.6949Z" fill="#5A5A5A"/>
<path d="M25.879 27.4036C25.6421 26.9382 25.0737 26.7516 24.6071 26.9859C20.6017 28.9886 18.3901 32.9941 18.3901 38.2714C18.3901 38.7956 18.8151 39.2205 19.3393 39.2205C19.8635 39.2205 20.2884 38.7956 20.2884 38.2714C20.2884 33.7534 22.1203 30.3459 25.4613 28.6754C25.9267 28.4385 26.1133 27.8702 25.879 27.4036Z" fill="#5A5A5A"/>
<path d="M27.8815 26.8812C28.4057 26.8812 28.8307 26.4563 28.8307 25.9321C28.8307 25.4079 28.4057 24.9829 27.8815 24.9829C27.3573 24.9829 26.9324 25.4079 26.9324 25.9321C26.9324 26.4563 27.3573 26.8812 27.8815 26.8812Z" fill="#5A5A5A"/>
</g>
<defs>
<clipPath id="clip0">
<rect width="56" height="56" fill="white" transform="translate(7 6)"/>
</clipPath>
</defs>
</svg>
