<svg width="68" height="68" viewBox="0 0 68 68" fill="none" xmlns="http://www.w3.org/2000/svg">
<g clip-path="url(#clip0)">
<path d="M67.772 27.7101C70.5915 15.5194 60.5754 4.47955 48.3847 1.66007C36.1939 -1.15941 30.9246 5.06808 28.1051 17.2588C25.2856 29.4495 32.8825 41.6177 45.0732 44.4372C57.264 47.2566 64.9526 39.9008 67.772 27.7101Z" fill="#CFF08F"/>
<path d="M54.3964 52.4292L52.5943 50.6266C52.2739 50.3062 51.7543 50.3062 51.4339 50.6266C51.1135 50.9471 51.1135 51.4662 51.4339 51.7866L53.2364 53.5891C53.2497 53.6028 53.2907 53.6434 53.2672 53.716C53.2437 53.7882 53.1869 53.7972 53.1685 53.7998L48.8589 54.4718C48.0967 54.5906 47.5049 55.1828 47.3862 55.9445L46.715 60.2525C46.712 60.2713 46.703 60.3289 46.6304 60.3524C46.5586 60.3759 46.5189 60.3366 46.5043 60.3217L38.6499 52.4672C41.3774 50.7672 43.6691 48.4314 45.3166 45.6684L49.0247 49.3774C49.1844 49.5376 49.3946 49.6175 49.6044 49.6175C49.8146 49.6175 50.0244 49.5376 50.1846 49.3774C50.5051 49.0569 50.5051 48.5374 50.1846 48.2174L46.1305 44.162C47.4156 41.5165 48.1373 38.5488 48.1373 35.4154V15.1665C48.1373 12.7663 46.1856 10.8138 43.7871 10.8138C43.3521 10.8138 42.921 10.8787 42.5053 11.0073C41.5261 11.3094 40.5037 11.4623 39.4668 11.4623C36.3389 11.4623 33.417 10.0631 31.4503 7.62353C30.6189 6.59173 29.3825 6 28.0589 6C26.7348 6 25.4988 6.59173 24.6678 7.6231C22.7008 10.0631 19.7789 11.4623 16.651 11.4623C15.6141 11.4623 14.5913 11.3094 13.6124 11.0069C13.1967 10.8787 12.7656 10.8138 12.3307 10.8138C9.93172 10.8138 7.98049 12.7663 7.98049 15.1665V24.0481C7.98049 24.501 8.34749 24.8684 8.8008 24.8684C9.25368 24.8684 9.62111 24.501 9.62111 24.0481V15.1665C9.62111 13.6712 10.8366 12.4544 12.3307 12.4544C12.6011 12.4544 12.8695 12.495 13.1288 12.5749C14.2648 12.9252 15.4496 13.103 16.651 13.103C20.2775 13.103 23.6651 11.4811 25.9453 8.65277C26.4631 8.00933 27.2334 7.64062 28.0589 7.64062C28.8839 7.64062 29.6542 8.00933 30.1729 8.65277C32.4527 11.4807 35.8399 13.103 39.4668 13.103C40.6677 13.103 41.8529 12.9252 42.989 12.5749C43.2479 12.495 43.5162 12.4544 43.7871 12.4544C45.2811 12.4544 46.4966 13.6712 46.4966 15.1665V35.415C46.4966 38.4745 45.7477 41.3622 44.4232 43.9048C44.4091 43.9283 44.3967 43.9526 44.3852 43.977C41.2488 49.9341 35.0392 53.8532 28.0589 53.8532C24.8511 53.8532 21.8322 53.0294 19.2021 51.5832C19.1944 51.5789 19.1871 51.5747 19.179 51.5704C13.3411 48.349 9.62111 42.2065 9.62111 35.415V27.3294C9.62111 26.8761 9.25368 26.5091 8.8008 26.5091C8.34749 26.5091 7.98049 26.8761 7.98049 27.3294V35.415C7.98049 38.5484 8.7021 41.5165 9.98726 44.1615L5.89596 48.2541C5.57552 48.575 5.57552 49.0941 5.89596 49.4145C6.05617 49.5747 6.26595 49.6546 6.47616 49.6546C6.68593 49.6546 6.89614 49.5747 7.05635 49.4145L10.8012 45.6684C12.4486 48.431 14.7408 50.7672 17.4679 52.4672L9.61342 60.3217C9.59889 60.3366 9.55916 60.3759 9.48738 60.3524C9.41475 60.3285 9.40578 60.2713 9.40321 60.2525L8.73158 55.9441C8.61281 55.1828 8.02107 54.5906 7.25887 54.4714L2.94967 53.7998C2.93087 53.7972 2.87448 53.7882 2.85098 53.716C2.82705 53.6434 2.86807 53.6028 2.88131 53.5891L4.73855 51.7319C5.05898 51.4115 5.05898 50.8924 4.73855 50.5719C4.41769 50.2515 3.89859 50.2519 3.57858 50.5719L1.72134 52.4292C1.24881 52.9017 1.08389 53.5896 1.29111 54.2245C1.49789 54.8598 2.03665 55.3178 2.69674 55.4212L7.00594 56.0924C7.0602 56.1009 7.10207 56.1428 7.11061 56.197L7.78224 60.5054C7.88521 61.1659 8.34364 61.7051 8.97853 61.9119C9.15968 61.9713 9.34511 61.9999 9.52882 61.9999C9.98854 61.9999 10.4363 61.8196 10.7738 61.4816L18.9496 53.3059C21.6852 54.7043 24.7815 55.4938 28.0589 55.4938C31.3363 55.4938 34.4329 54.7043 37.1682 53.3059L45.3439 61.4816C45.6819 61.8196 46.1296 61.9999 46.5889 61.9999C46.7726 61.9999 46.9581 61.9713 47.1396 61.9119C47.7745 61.7051 48.233 61.1659 48.3359 60.5054L49.0076 56.197C49.0157 56.1428 49.058 56.1009 49.1118 56.0924L53.4214 55.4207C54.0811 55.3178 54.6199 54.8593 54.8271 54.2245C55.0339 53.5896 54.8689 52.9017 54.3964 52.4292Z" fill="#5A5A5A"/>
<path d="M11.2 35.415C11.2 44.7115 18.7626 52.2742 28.0591 52.2742C37.3654 52.2742 44.9182 44.7021 44.9182 35.415V27.3294C44.9182 26.8761 44.5508 26.5091 44.0979 26.5091C43.6446 26.5091 43.2776 26.8761 43.2776 27.3294V35.415C43.2776 38.1789 42.5367 40.7731 41.2435 43.0093L35.2877 37.0527C34.9672 36.7327 34.4477 36.7322 34.1277 37.0527C33.8073 37.3731 33.8073 37.8926 34.1273 38.2131L40.3262 44.412C37.5538 48.1824 33.0873 50.6335 28.0591 50.6335C19.6675 50.6335 12.8406 43.8066 12.8406 35.4155V16.9247L25.4324 29.5173C25.5926 29.6776 25.8024 29.7574 26.0126 29.7574C26.2224 29.7574 26.4321 29.6776 26.5923 29.5173C26.9128 29.1969 26.9128 28.6774 26.5928 28.3569L14.3906 16.1548C15.1357 16.2663 15.8911 16.3227 16.6512 16.3227C21.0522 16.3227 25.176 14.4415 28.0591 11.1411C30.9417 14.4415 35.0655 16.3227 39.467 16.3227C40.759 16.3227 42.0377 16.1599 43.2776 15.8386V24.0482C43.2776 24.501 43.6446 24.8685 44.0979 24.8685C44.5508 24.8685 44.9182 24.501 44.9182 24.0482V15.167C44.9182 14.8085 44.746 14.4672 44.4572 14.2544C44.1701 14.0425 43.795 13.9784 43.4545 14.0835C42.1676 14.4804 40.826 14.6821 39.467 14.6821C35.3603 14.6821 31.5245 12.8453 28.9435 9.64355C28.7264 9.37396 28.4039 9.21973 28.0591 9.21973C27.7139 9.21973 27.3913 9.37396 27.1743 9.64355C24.5933 12.8453 20.7579 14.6821 16.6512 14.6821C15.2921 14.6821 13.9506 14.4804 12.6633 14.0835C12.3228 13.9784 11.9481 14.0425 11.6605 14.2544C11.5601 14.3283 11.4742 14.418 11.4042 14.518C11.399 14.5253 11.3943 14.5321 11.3896 14.5394C11.2747 14.7111 11.2098 14.9098 11.2008 15.1166C11.2008 15.1213 11.2008 15.126 11.2004 15.1307V15.1384C11.2004 15.1414 11.2 15.1448 11.2 15.1482V15.1649V15.1661V35.415Z" fill="#5A5A5A"/>
<path d="M33.0069 25.0098L25.8424 32.7955L23.0704 29.8799C21.681 28.4188 19.3619 28.3598 17.9007 29.7492C16.4395 31.1382 16.3806 33.4573 17.7696 34.9189L22.817 40.2283C23.6109 41.0631 24.7268 41.542 25.8791 41.542H25.9133C27.0784 41.5322 28.1986 41.0353 28.9869 40.1783L38.388 29.9616C39.7531 28.4782 39.6569 26.1603 38.1735 24.7949C36.6897 23.4298 34.3719 23.5259 33.0069 25.0098ZM37.0627 26.0023C37.8805 26.7551 37.9334 28.033 37.1811 28.8507L27.7795 39.0674C27.2976 39.5917 26.6127 39.8954 25.9069 39.9014H25.8791C25.1742 39.9014 24.4918 39.6083 24.0065 39.0978L18.959 33.7884C18.193 32.9826 18.2254 31.7043 19.0312 30.9382C19.4209 30.5678 19.9207 30.3845 20.4198 30.3845C20.953 30.3845 21.4857 30.5943 21.8814 31.0104L25.2575 34.5617C25.4121 34.7249 25.627 34.8172 25.8518 34.8172H25.8586C26.0855 34.8151 26.3021 34.7194 26.4555 34.5523L34.2143 26.1206C34.9666 25.3029 36.2445 25.2495 37.0627 26.0023Z" fill="#5A5A5A"/>
</g>
<defs>
<clipPath id="clip0">
<rect width="68" height="68" fill="white"/>
</clipPath>
</defs>
</svg>
