<svg width="68" height="68" viewBox="0 0 68 68" fill="none" xmlns="http://www.w3.org/2000/svg">
<path d="M62.772 30.7101C65.5915 18.5194 55.5754 7.47955 43.3847 4.66007C31.1939 1.84059 25.9246 8.06808 23.1051 20.2588C20.2856 32.4495 27.8825 44.6177 40.0732 47.4372C52.264 50.2566 59.9526 42.9008 62.772 30.7101Z" fill="#CFF08F"/>
<g clip-path="url(#clip0)">
<path d="M26.0945 26.0038L25.5527 19.5023C25.5173 19.0771 25.1619 18.7501 24.7353 18.7501H23.9151V17.9297C23.9151 16.5727 22.8111 15.4688 21.4541 15.4688C20.0971 15.4688 18.9932 16.5727 18.9932 17.9297V18.7501H18.173C17.7516 18.7501 17.3987 19.0694 17.3567 19.4887L16.7004 26.0512C16.6773 26.2819 16.7529 26.5115 16.9084 26.6833C17.0639 26.8551 17.2849 26.9531 17.5166 26.9531H25.282C25.2828 26.9531 25.2835 26.9531 25.2842 26.9531C25.7373 26.9531 26.1045 26.5858 26.1045 26.1328C26.1045 26.089 26.101 26.0458 26.0945 26.0038ZM20.6338 17.9297C20.6338 17.4773 21.0018 17.1094 21.4541 17.1094C21.9065 17.1094 22.2744 17.4773 22.2744 17.9297V18.7501H20.6338V17.9297ZM18.423 25.3126L18.9153 20.3907H23.9805L24.3905 25.3126H18.423Z" fill="#5A5A5A"/>
<path d="M47.8621 17.3008C47.8602 17.2808 47.8567 17.2613 47.8533 17.2418C47.8521 17.2349 47.8514 17.2279 47.8501 17.2212C47.8455 17.198 47.8395 17.1752 47.8328 17.1527C47.832 17.1497 47.8314 17.1466 47.8305 17.1436C47.8235 17.1206 47.8152 17.0982 47.8064 17.0761C47.8054 17.0735 47.8045 17.0709 47.8035 17.0683C47.7948 17.0471 47.7848 17.0266 47.7743 17.0065C47.7725 17.003 47.771 16.9992 47.7692 16.9957C47.7591 16.977 47.748 16.9589 47.7365 16.941C47.7334 16.9363 47.7309 16.9314 47.7277 16.9267C47.7162 16.9097 47.7038 16.8934 47.6911 16.8772C47.6873 16.8723 47.6839 16.867 47.6799 16.8622C47.6629 16.8415 47.6449 16.8215 47.6259 16.8026L41.0641 10.2404C41.0451 10.2215 41.0252 10.2034 41.0044 10.1864C40.9991 10.182 40.9933 10.1783 40.9879 10.174C40.9723 10.1618 40.9565 10.1496 40.94 10.1386C40.9349 10.1351 40.9294 10.1322 40.9242 10.129C40.9068 10.1179 40.8893 10.107 40.8711 10.0972C40.8671 10.095 40.8629 10.0934 40.8589 10.0913C40.8391 10.0812 40.8191 10.0713 40.7985 10.0628C40.7955 10.0616 40.7925 10.0607 40.7895 10.0596C40.7678 10.0509 40.7457 10.0427 40.723 10.0358C40.7197 10.0348 40.7164 10.0341 40.7131 10.0333C40.6908 10.0268 40.6683 10.0208 40.6454 10.0162C40.6385 10.0148 40.6314 10.0142 40.6245 10.013C40.6051 10.0096 40.5856 10.0062 40.5657 10.0043C40.5386 10.0014 40.5113 10 40.4838 10H10.9541C10.5011 10 10.1338 10.3673 10.1338 10.8203V60.4191C10.1338 60.8722 10.5011 61.2395 10.9541 61.2395H29.5477C30.0008 61.2395 30.3681 60.8722 30.3681 60.4191C30.3681 59.9661 30.0008 59.5988 29.5477 59.5988H11.7744V11.6406H39.6635V17.3826C39.6635 17.8356 40.0308 18.2029 40.4838 18.2029H46.2256V59.5988H41.579C41.126 59.5988 40.7587 59.9661 40.7587 60.4191C40.7587 60.8722 41.126 61.2395 41.579 61.2395H47.0459C47.4989 61.2395 47.8662 60.8722 47.8662 60.4191V17.3826C47.8662 17.3551 47.8649 17.3278 47.8621 17.3008ZM41.3041 16.5623V12.8008L45.0655 16.5623H41.3041Z" fill="#5A5A5A"/>
<path d="M40.4838 33.3506H17.5164C17.0633 33.3506 16.696 33.7179 16.696 34.1709C16.696 34.6239 17.0633 34.9912 17.5164 34.9912H40.4838C40.9368 34.9912 41.3041 34.6239 41.3041 34.1709C41.3041 33.7179 40.9368 33.3506 40.4838 33.3506Z" fill="#5A5A5A"/>
<path d="M40.4838 37.7271H17.5164C17.0633 37.7271 16.696 38.0943 16.696 38.5474C16.696 39.0004 17.0633 39.3677 17.5164 39.3677H40.4838C40.9368 39.3677 41.3041 39.0004 41.3041 38.5474C41.3041 38.0943 40.9368 37.7271 40.4838 37.7271Z" fill="#5A5A5A"/>
<path d="M40.4838 42.1016H17.5164C17.0633 42.1016 16.696 42.4688 16.696 42.9219C16.696 43.3749 17.0633 43.7422 17.5164 43.7422H40.4838C40.9368 43.7422 41.3041 43.3749 41.3041 42.9219C41.3041 42.4688 40.9368 42.1016 40.4838 42.1016Z" fill="#5A5A5A"/>
<path d="M27.3595 46.4766H17.5164C17.0633 46.4766 16.696 46.8438 16.696 47.2969C16.696 47.7499 17.0633 48.1172 17.5164 48.1172H27.3595C27.8125 48.1172 28.1798 47.7499 28.1798 47.2969C28.1798 46.8438 27.8125 46.4766 27.3595 46.4766Z" fill="#5A5A5A"/>
<path d="M41.3054 54.4067C41.3054 51.2404 38.7295 48.6646 35.5632 48.6646C32.3969 48.6646 29.821 51.2404 29.821 54.4067C29.821 56.2314 30.6777 57.8589 32.0088 58.9115V65.18C32.0088 65.1887 32.0097 65.1971 32.0101 65.2059C32.0106 65.2226 32.0111 65.2392 32.0126 65.256C32.0137 65.2677 32.0155 65.2792 32.0171 65.2908C32.0192 65.3057 32.0211 65.3207 32.024 65.3356C32.0264 65.3481 32.0295 65.3603 32.0325 65.3726C32.0358 65.3862 32.039 65.3999 32.043 65.4134C32.0468 65.4263 32.0513 65.4387 32.0558 65.4514C32.0602 65.4639 32.0644 65.4765 32.0695 65.4888C32.0748 65.502 32.0808 65.5145 32.0869 65.5273C32.0922 65.5387 32.0974 65.5502 32.1033 65.5615C32.1104 65.5749 32.1181 65.5877 32.1259 65.6007C32.1319 65.6108 32.1377 65.621 32.1442 65.6308C32.1533 65.6446 32.1632 65.6577 32.173 65.6709C32.1784 65.678 32.183 65.6855 32.1886 65.6925C32.1897 65.6939 32.191 65.695 32.1921 65.6964C32.2105 65.7192 32.2299 65.7409 32.2506 65.7615C32.2564 65.7673 32.2627 65.7723 32.2687 65.7779C32.2837 65.792 32.299 65.8058 32.3151 65.8188C32.3247 65.8266 32.3347 65.8336 32.3447 65.8409C32.3581 65.8508 32.3716 65.8604 32.3855 65.8693C32.396 65.8761 32.4066 65.8825 32.4174 65.8887C32.4319 65.8972 32.4468 65.9051 32.4619 65.9128C32.4722 65.9179 32.4825 65.923 32.4931 65.9278C32.5098 65.9353 32.527 65.942 32.5443 65.9484C32.5537 65.9519 32.563 65.9556 32.5725 65.9587C32.5918 65.9652 32.6117 65.9704 32.6318 65.9753C32.6397 65.9773 32.6476 65.9797 32.6556 65.9815C32.6777 65.9863 32.7002 65.9897 32.723 65.9926C32.7293 65.9934 32.7356 65.9948 32.7419 65.9955C32.7687 65.9983 32.7959 65.9997 32.8235 65.9999C32.8256 65.9999 32.8277 66.0003 32.8297 66.0003C32.8306 66.0003 32.8314 66 32.8322 66C32.8723 65.9999 32.9113 65.996 32.9497 65.9904C32.958 65.9892 32.9661 65.9881 32.9744 65.9866C33.0135 65.9797 33.0514 65.9701 33.0883 65.9578C33.0951 65.9555 33.1016 65.9529 33.1083 65.9505C33.1476 65.9363 33.1859 65.9199 33.2222 65.9001C33.2235 65.8994 33.2247 65.8984 33.226 65.8978C33.2643 65.8767 33.3003 65.8522 33.3344 65.8254C33.3368 65.8235 33.3394 65.8223 33.3418 65.8205L35.5637 64.043L37.7854 65.8205C37.7877 65.8223 37.7902 65.8234 37.7925 65.8253C37.8269 65.8522 37.8631 65.8767 37.9013 65.8979C37.9025 65.8985 37.9036 65.8994 37.9048 65.9001C37.9412 65.92 37.9795 65.9364 38.0189 65.9506C38.0256 65.953 38.032 65.9556 38.0387 65.9578C38.0756 65.9701 38.1136 65.9797 38.1527 65.9867C38.1609 65.9881 38.169 65.9892 38.1773 65.9904C38.2158 65.9961 38.2548 65.9999 38.2949 66C38.2957 66 38.2965 66.0003 38.2974 66.0003C38.2994 66.0003 38.3015 65.9999 38.3035 65.9999C38.3311 65.9997 38.3583 65.9983 38.3852 65.9955C38.3915 65.9948 38.3976 65.9934 38.4037 65.9926C38.4266 65.9897 38.4493 65.9862 38.4714 65.9813C38.4793 65.9796 38.487 65.9773 38.4948 65.9753C38.515 65.9704 38.5351 65.965 38.5546 65.9586C38.5639 65.9555 38.573 65.9518 38.5823 65.9485C38.5998 65.942 38.6171 65.9352 38.634 65.9276C38.6444 65.923 38.6546 65.9179 38.6649 65.9128C38.6801 65.9051 38.6951 65.8971 38.7097 65.8886C38.7205 65.8824 38.7311 65.876 38.7416 65.8692C38.7555 65.8602 38.769 65.8506 38.7824 65.8408C38.7923 65.8335 38.8023 65.8265 38.812 65.8187C38.8281 65.8058 38.8433 65.7919 38.8583 65.7779C38.8643 65.7723 38.8706 65.7672 38.8764 65.7614C38.8972 65.7408 38.9166 65.719 38.935 65.6962C38.9361 65.6949 38.9375 65.6938 38.9385 65.6924C38.9441 65.6855 38.9486 65.678 38.954 65.671C38.9639 65.6578 38.9739 65.6446 38.9831 65.6307C38.9895 65.6208 38.9952 65.6107 39.0013 65.6007C39.0091 65.5877 39.017 65.5748 39.0241 65.5613C39.03 65.5502 39.0351 65.5388 39.0404 65.5274C39.0464 65.5146 39.0524 65.502 39.0578 65.4887C39.0628 65.4764 39.0671 65.4638 39.0714 65.4513C39.0759 65.4387 39.0804 65.4262 39.0842 65.4132C39.0883 65.3997 39.0915 65.386 39.0947 65.3723C39.0977 65.3601 39.1009 65.348 39.1033 65.3355C39.1061 65.3205 39.1081 65.3055 39.1102 65.2905C39.1117 65.279 39.1135 65.2676 39.1146 65.2559C39.1162 65.2391 39.1166 65.2224 39.1172 65.2057C39.1175 65.197 39.1185 65.1886 39.1185 65.1798L39.1183 58.9115C40.4488 57.8589 41.3054 56.2314 41.3054 54.4067ZM36.0877 62.3615C36.0877 62.3614 36.0876 62.3614 36.0876 62.3613L36.076 62.352C36.07 62.3473 36.0636 62.3433 36.0576 62.3387C36.0431 62.3277 36.0285 62.3168 36.0134 62.3069C36.0046 62.3011 35.9955 62.296 35.9864 62.2905C35.9725 62.2822 35.9587 62.2738 35.9444 62.2663C35.9331 62.2604 35.9217 62.2552 35.9102 62.2499C35.8978 62.2441 35.8855 62.2382 35.8729 62.2332C35.8595 62.2277 35.846 62.2231 35.8325 62.2184C35.8212 62.2145 35.81 62.2104 35.7986 62.207C35.7843 62.2028 35.7698 62.1993 35.7553 62.1958C35.7441 62.1931 35.7329 62.1903 35.7216 62.188C35.7074 62.1853 35.6932 62.1832 35.6788 62.1812C35.6668 62.1795 35.6547 62.1777 35.6425 62.1765C35.6294 62.1752 35.6164 62.1747 35.6033 62.174C35.5896 62.1733 35.576 62.1727 35.5624 62.1727C35.5508 62.1727 35.5393 62.1733 35.5277 62.1739C35.5126 62.1745 35.4975 62.1752 35.4824 62.1767C35.4721 62.1777 35.462 62.1793 35.4518 62.1807C35.4357 62.1829 35.4196 62.1853 35.4037 62.1883C35.3941 62.1903 35.3846 62.1926 35.3751 62.1949C35.359 62.1987 35.3431 62.2025 35.3271 62.2074C35.317 62.2104 35.3072 62.2139 35.2972 62.2174C35.2825 62.2225 35.2677 62.2276 35.2532 62.2335C35.2415 62.2382 35.2301 62.2438 35.2186 62.249C35.2063 62.2547 35.1941 62.2603 35.182 62.2666C35.1682 62.2739 35.1547 62.2821 35.1412 62.2902C35.1319 62.2958 35.1225 62.3011 35.1133 62.3071C35.0982 62.3171 35.0836 62.328 35.069 62.339C35.063 62.3436 35.0567 62.3475 35.0508 62.3522L35.0394 62.3614C35.0393 62.3615 35.0391 62.3616 35.0389 62.3618L33.6494 63.4735V59.8201C34.2484 60.0325 34.8923 60.1494 35.5632 60.1494C36.2341 60.1494 36.878 60.0327 37.4772 59.8201L37.4773 63.4732L36.0877 62.3615ZM35.5632 58.5083C33.3016 58.5083 31.4617 56.6684 31.4617 54.4067C31.4617 52.1451 33.3016 50.3052 35.5632 50.3052C37.8249 50.3052 39.6648 52.1451 39.6648 54.4067C39.6648 56.6684 37.8249 58.5083 35.5632 58.5083Z" fill="#5A5A5A"/>
<path d="M35.5632 51.9453C34.2062 51.9453 33.1023 53.0492 33.1023 54.4062C33.1023 55.7633 34.2062 56.8672 35.5632 56.8672C36.9202 56.8672 38.0242 55.7633 38.0242 54.4062C38.0242 53.0492 36.9202 51.9453 35.5632 51.9453ZM35.5632 55.2266C35.1109 55.2266 34.7429 54.8586 34.7429 54.4062C34.7429 53.9539 35.1109 53.5859 35.5632 53.5859C36.0156 53.5859 36.3835 53.9539 36.3835 54.4062C36.3835 54.8586 36.0156 55.2266 35.5632 55.2266Z" fill="#5A5A5A"/>
</g>
<defs>
<clipPath id="clip0">
<rect width="56" height="56" fill="white" transform="translate(1 10)"/>
</clipPath>
</defs>
</svg>
