<svg width="68" height="68" viewBox="0 0 68 68" fill="none" xmlns="http://www.w3.org/2000/svg">
<g clip-path="url(#clip0)">
<path d="M67.772 27.7101C70.5915 15.5194 60.5754 4.47955 48.3847 1.66007C36.1939 -1.15941 30.9246 5.06808 28.1051 17.2588C25.2856 29.4495 32.8825 41.6177 45.0732 44.4372C57.264 47.2566 64.9526 39.9008 67.772 27.7101Z" fill="#CFF08F"/>
<g clip-path="url(#clip1)">
<path d="M45.7592 14.4342C46.9964 14.8341 48.0597 15.6185 48.8132 16.6416C49.5573 17.6584 49.9975 18.9111 49.9975 20.2629C49.9975 21.2394 49.765 22.1695 49.3526 22.9975C48.9868 23.7261 48.4846 24.3709 47.8737 24.8981V29.564C47.8737 30.0167 47.5079 30.3826 47.0553 30.3826H40.6839C40.2312 30.3826 39.8653 30.0166 39.8653 29.564V24.8981C39.2546 24.3709 38.7523 23.7261 38.3896 22.9975C37.9741 22.1695 37.7416 21.2394 37.7416 20.2629C37.7416 18.9111 38.1818 17.6583 38.9259 16.6416C39.6887 15.603 40.7738 14.8123 42.0326 14.4155C42.4667 14.2821 42.9255 14.521 43.0589 14.9551C43.0837 15.0327 43.0991 15.1165 43.0991 15.197V19.1716L43.8712 19.494L44.6433 19.1716V15.197C44.6433 14.7443 45.0091 14.3784 45.4617 14.3784C45.567 14.3782 45.6694 14.3968 45.7592 14.4342ZM12.8172 38.5274H15.5798C16.2558 38.5274 16.8696 38.8034 17.313 39.2498C17.7594 39.6931 18.0354 40.31 18.0354 40.9859C18.0354 41.6619 17.7594 42.2758 17.313 42.7223C16.8696 43.1656 16.2558 43.4415 15.5798 43.4415H12.8172C12.1413 43.4415 11.5275 43.1656 11.0841 42.7223C10.8082 42.4462 10.5973 42.1053 10.4764 41.727C9.87186 41.5907 9.32608 41.2834 8.90137 40.8587C8.31852 40.2728 7.95572 39.4667 7.95572 38.58V37.6933H6.48298C5.80705 37.6933 5.19323 37.4174 4.74983 36.9741C4.30325 36.5276 4.02741 35.9137 4.02741 35.2377V31.9637C4.02741 31.2878 4.30325 30.6738 4.74983 30.2274C5.19323 29.7841 5.80705 29.5081 6.48298 29.5081H7.99903C8.19131 27.7007 9.00977 26.0761 10.2314 24.8543C11.6359 23.45 13.5704 22.5786 15.7036 22.5786C17.8367 22.5786 19.7713 23.45 21.1758 24.8543C22.3974 26.0761 23.2158 27.7006 23.4081 29.5081H24.9242C25.6001 29.5081 26.214 29.7841 26.6605 30.2274C27.1038 30.6738 27.3797 31.2878 27.3797 31.9637V35.2377C27.3797 35.9137 27.1038 36.5276 26.6605 36.9741C26.214 37.4174 25.6001 37.6933 24.9242 37.6933H22.633C22.1803 37.6933 21.8113 37.3273 21.8113 36.8748V30.3268C21.8113 28.6494 21.123 27.1209 20.0162 26.0139C18.9093 24.9072 17.384 24.2189 15.7035 24.2189C14.0261 24.2189 12.4975 24.9072 11.3907 26.0139C10.2839 27.1209 9.59558 28.6494 9.59558 30.3268V36.8748V38.5801C9.59558 39.0142 9.7755 39.4109 10.0606 39.6993C10.2033 39.8387 10.3707 39.9534 10.5536 40.0343C10.6776 39.7397 10.8574 39.4731 11.0838 39.2498C11.5275 38.8034 12.1413 38.5274 12.8172 38.5274ZM15.5797 40.1676H12.8171C12.5939 40.1676 12.3923 40.2606 12.2435 40.4094C12.0948 40.5581 12.0017 40.7627 12.0017 40.9861C12.0017 41.2093 12.0948 41.4139 12.2435 41.5598C12.3923 41.7085 12.5939 41.8017 12.8171 41.8017H15.5797C15.8029 41.8017 16.0044 41.7085 16.1533 41.5598C16.302 41.4139 16.3951 41.2093 16.3951 40.9861C16.3951 40.7628 16.302 40.5582 16.1533 40.4094C16.0044 40.2606 15.8029 40.1676 15.5797 40.1676ZM7.95572 31.1484H6.48298C6.25975 31.1484 6.05828 31.2381 5.90942 31.3871C5.76067 31.5359 5.66759 31.7406 5.66759 31.9638V35.2378C5.66759 35.4611 5.76056 35.6657 5.90942 35.8114C6.05828 35.9603 6.25975 36.0532 6.48298 36.0532H7.95572V31.1484ZM24.9244 31.1484H23.4517V36.0532H24.9244C25.1476 36.0532 25.3522 35.9603 25.4979 35.8114C25.6468 35.6657 25.7398 35.4611 25.7398 35.2378V31.9638C25.7398 31.7406 25.6468 31.5359 25.4979 31.3871C25.3522 31.2381 25.1476 31.1484 24.9244 31.1484ZM32.5575 43.2649C32.1048 43.2649 31.7391 42.896 31.7391 42.4433C31.7391 41.9906 32.105 41.6216 32.5575 41.6216H51.4579C51.9107 41.6216 52.2763 41.9906 52.2763 42.4433C52.2763 42.896 51.9106 43.2649 51.4579 43.2649H32.5575ZM32.5575 40.0777C32.1048 40.0777 31.7391 39.7117 31.7391 39.2591C31.7391 38.8065 32.105 38.4375 32.5575 38.4375H39.5645C40.0203 38.4375 40.3862 38.8064 40.3862 39.2591C40.3862 39.7118 40.0203 40.0777 39.5645 40.0777H32.5575ZM33.3793 23.7073C33.3793 24.16 33.0134 24.5292 32.5575 24.5292C32.1048 24.5292 31.7391 24.16 31.7391 23.7073V20.1697H3.4755C2.97019 20.1697 2.51442 20.3743 2.17952 20.7093C1.84778 21.0411 1.63997 21.5 1.63997 22.0022V31.7435C1.63997 32.1962 1.27411 32.5621 0.821516 32.5621C0.368922 32.5621 0 32.1962 0 31.7436V22.0023C0 21.0474 0.390687 20.1792 1.02003 19.5499C1.64938 18.9203 2.51748 18.5298 3.4755 18.5298H31.739V13.9908C31.739 13.1783 32.0707 12.4436 32.604 11.9103C33.1373 11.3771 33.8722 11.0454 34.6814 11.0454H53.0578C53.867 11.0454 54.6049 11.3771 55.1381 11.9103C55.6713 12.4434 56 13.1782 56 13.9907V30.7701V46.7404V49.9277C56 50.8827 55.6093 51.751 54.98 52.3803C54.3506 53.0096 53.4825 53.4003 52.5276 53.4003H33.711L35.6798 58.1315H39.0531C39.5088 58.1315 39.8747 58.4974 39.8747 58.95V62.1373C39.8747 62.59 39.5088 62.9557 39.0531 62.9557H16.9904C16.5347 62.9557 16.1688 62.5899 16.1688 62.1373V58.95C16.1688 58.4973 16.5347 58.1315 16.9904 58.1315H20.3637L22.3324 53.4003H3.4755C2.51748 53.4003 1.64938 53.0096 1.02003 52.3803C0.390687 51.751 0 50.8827 0 49.9276V46.7403V35.458C0 35.0053 0.368922 34.6395 0.821625 34.6395C1.27433 34.6395 1.64008 35.0054 1.64008 35.458V45.9219H54.3598V33.4086C53.9661 33.604 53.5258 33.7156 53.0578 33.7156H48.0319L44.5625 39.1724C44.3207 39.557 43.8123 39.6684 43.4308 39.4266C43.3223 39.3584 43.2325 39.2653 43.1704 39.163L39.7072 33.7156H34.6815C33.8723 33.7156 33.1375 33.3838 32.6041 32.8506C32.0708 32.3174 31.7391 31.5823 31.7391 30.7702V27.4249C31.7391 26.9692 32.105 26.6032 32.5575 26.6032C33.0134 26.6032 33.3793 26.9692 33.3793 27.4249V30.7702C33.3793 31.1299 33.5251 31.4553 33.7638 31.6909C33.9994 31.9265 34.325 32.0755 34.6816 32.0755H40.1569C40.4297 32.0755 40.6933 32.2088 40.8483 32.457L43.8713 37.2067L46.8725 32.4879C47.012 32.2399 47.2788 32.0755 47.5825 32.0755H53.0578C53.4144 32.0755 53.7398 31.9266 53.9755 31.6909C54.2142 31.4553 54.3599 31.1299 54.3599 30.7702V13.9907C54.3599 13.6311 54.2142 13.3053 53.9755 13.0697C53.7399 12.8341 53.4144 12.6852 53.0578 12.6852H34.6815C34.3249 12.6852 33.9994 12.834 33.7637 13.0697C33.525 13.3053 33.3792 13.6311 33.3792 13.9907V23.7073H33.3793ZM54.3598 47.562H1.64008V49.9277C1.64008 50.4299 1.84778 50.889 2.17963 51.2207C2.51453 51.5554 2.9703 51.7602 3.47561 51.7602H52.5277C53.0299 51.7602 53.4888 51.5526 53.8205 51.2207C54.1553 50.889 54.3599 50.4299 54.3599 49.9277V47.562H54.3598ZM18.0476 50.4826C17.5949 50.4826 17.226 50.1137 17.226 49.661C17.226 49.2083 17.5949 48.8394 18.0476 48.8394H21.6472C22.0999 48.8394 22.4656 49.2083 22.4656 49.661C22.4656 50.1137 22.0998 50.4826 21.6472 50.4826H18.0476ZM37.0625 50.4826C36.6098 50.4826 36.2409 50.1137 36.2409 49.661C36.2409 49.2083 36.6098 48.8394 37.0625 48.8394H37.9554C38.4081 48.8394 38.7739 49.2083 38.7739 49.661C38.7739 50.1137 38.408 50.4826 37.9554 50.4826H37.0625ZM32.9855 50.4826C32.5327 50.4826 32.1638 50.1137 32.1638 49.661C32.1638 49.2083 32.5327 48.8394 32.9855 48.8394H33.8785C34.3312 48.8394 34.6969 49.2083 34.6969 49.661C34.6969 50.1137 34.3311 50.4826 33.8785 50.4826H32.9855ZM28.9085 50.4826C28.4558 50.4826 28.0868 50.1137 28.0868 49.661C28.0868 49.2083 28.4558 48.8394 28.9085 48.8394H29.8014C30.2541 48.8394 30.6199 49.2083 30.6199 49.661C30.6199 50.1137 30.254 50.4826 29.8014 50.4826H28.9085ZM24.8314 50.4826C24.3787 50.4826 24.0098 50.1137 24.0098 49.661C24.0098 49.2083 24.3787 48.8394 24.8314 48.8394H25.7242C26.1769 48.8394 26.5427 49.2083 26.5427 49.661C26.5427 50.1137 26.1768 50.4826 25.7242 50.4826H24.8314ZM29.8788 59.7715C29.4261 59.7715 29.0604 59.4056 29.0604 58.9499C29.0604 58.4972 29.4263 58.1314 29.8788 58.1314H33.9064L31.9344 53.4002H24.109L22.1371 58.1314H26.1646C26.6173 58.1314 26.983 58.4973 26.983 58.9499C26.983 59.4056 26.6172 59.7715 26.1646 59.7715H17.8089V61.3156H38.2344V59.7715H29.8788ZM43.0496 28.7424V24.5103C43.0496 24.0576 43.4154 23.6887 43.8712 23.6887C44.3239 23.6887 44.6896 24.0576 44.6896 24.5103V28.7424H46.2337V24.5103H46.2366C46.2366 24.2623 46.3514 24.0175 46.5653 23.8563C47.1203 23.4378 47.576 22.8952 47.8892 22.2688C48.1899 21.6704 48.3573 20.9884 48.3573 20.2629C48.3573 19.2676 48.0379 18.3499 47.4923 17.6088C47.1637 17.1623 46.7514 16.7748 46.2831 16.474V19.717C46.2831 20.0364 46.094 20.3403 45.7809 20.4705L44.1873 21.1402C43.9919 21.224 43.7625 21.2301 43.5517 21.1402L41.9829 20.4828C41.6758 20.3651 41.4557 20.0644 41.4557 19.717V16.474C40.9876 16.7748 40.5753 17.1623 40.2466 17.6088C39.704 18.3498 39.3816 19.2676 39.3816 20.2629C39.3816 20.9884 39.549 21.6704 39.8497 22.2688C40.1535 22.8733 40.5907 23.4036 41.1208 23.8159C41.3534 23.9618 41.5054 24.2191 41.5054 24.5105V28.7425H43.0496V28.7424Z" fill="#5A5A5A"/>
</g>
</g>
<defs>
<clipPath id="clip0">
<rect width="68" height="68" fill="white"/>
</clipPath>
<clipPath id="clip1">
<rect width="56" height="56" fill="white" transform="translate(0 9)"/>
</clipPath>
</defs>
</svg>
