<svg width="58" height="64" viewBox="0 0 58 64" fill="none" xmlns="http://www.w3.org/2000/svg">
<path d="M43.2671 24.2171C45.2071 15.8289 34.5936 7.3719 22.4029 4.55242C10.2122 1.73294 5.45275 5.75574 3.51272 14.1439C1.5727 22.5321 9.88253 31.6177 22.0732 34.4372C34.264 37.2566 41.3271 32.6053 43.2671 24.2171Z" fill="#8BC34A"/>
<path d="M55.4463 15.8413C54.6878 13.456 53.6599 11.7481 53.6163 11.6763C53.4478 11.3985 53.1007 11.254 52.7864 11.3261C52.705 11.3447 50.7638 11.7978 48.5246 12.9161C45.5016 14.4253 43.3899 16.4402 42.4171 18.7419C41.6074 20.6588 41.491 23.0021 42.0656 25.5909C40.8418 24.2242 39.4653 23.0287 37.9647 22.0222C37.5064 21.117 36.2949 18.8884 34.4008 16.5591C33.7769 15.7923 32.5769 16.7546 33.2072 17.5291C34.4835 19.0989 35.4441 20.6427 36.0449 21.7034L29.0393 20.3377L22.3832 11.2588C23.0295 11.2678 23.6781 11.3303 24.3234 11.4568C26.3694 11.8574 28.3904 12.8994 30.3313 14.5535C31.0917 15.2018 32.0792 14.0219 31.3288 13.3826C29.1847 11.5555 26.9273 10.3994 24.6189 9.94727C21.0951 9.25769 16.9852 10.1629 12.7323 12.5662C9.56261 14.3574 7.44293 16.3249 7.35449 16.4076C7.07091 16.6726 7.02572 17.1538 7.26317 17.4634C7.57399 18.101 8.75191 20.4015 10.7126 22.8781C11.8685 24.3383 13.0874 25.588 14.3483 26.615C13.9901 26.9152 13.6414 27.2293 13.304 27.5596C11.5019 29.3224 10.1221 31.4017 9.21622 33.6748C8.41545 35.6833 7.98479 37.844 7.96075 40.071C7.92102 43.7128 8.97621 47.225 11.0129 50.2288C13.0025 53.1627 15.7838 55.4154 19.0561 56.7429C19.9719 57.1137 20.551 55.6893 19.6345 55.3176C18.4489 54.8366 17.3351 54.2204 16.3078 53.4876C16.4391 52.7589 16.7439 50.1365 15.002 47.4218C14.7581 47.0421 15.4871 45.5508 15.9223 44.66C16.3715 43.7419 16.8352 42.7928 17.0518 41.8991C17.2819 40.9496 17.023 40.1527 16.3036 39.5936C15.7755 39.1831 15.0843 38.9706 14.4752 38.7832C14.0795 38.6614 13.6308 38.5236 13.4706 38.39C13.1406 38.1135 12.6016 37.0916 12.1684 36.271C11.6877 35.3606 11.2301 34.4942 10.763 33.9606C11.8143 31.4638 13.503 29.2544 15.6179 27.5641C17.5498 28.8802 19.7547 29.7883 22.0983 29.9722C19.3804 32.0781 18.5011 34.7675 19.7579 37.3508C21.2255 40.3674 24.2462 39.8855 26.9113 39.4609C27.3724 39.3872 27.8495 39.3113 28.3064 39.2542C28.4779 39.2328 28.5295 39.2795 28.5641 39.31C29.1476 39.8291 29.1303 42.3083 29.1178 44.1187C29.1008 46.6229 29.0848 48.9884 30.0176 50.2028C30.4934 50.8219 31.1634 51.1385 31.9488 51.1385C32.4195 51.1385 32.931 51.0251 33.4674 50.795C35.787 49.8017 38.1983 46.812 37.8304 44.4466C37.509 42.3785 37.2962 41.0121 37.7977 39.9108C38.2614 38.8915 39.3823 37.9478 41.5897 36.7436C41.8541 37.934 41.9874 39.1725 41.9736 40.443C41.9265 44.7798 40.193 48.8387 37.0928 51.8717C33.6279 55.2612 28.7582 56.9352 23.9412 56.4042C22.9597 56.2978 22.7902 57.825 23.7729 57.9333C29.0457 58.514 34.3768 56.6811 38.1681 52.9714C41.5625 49.6507 43.4601 45.2076 43.5117 40.4594C43.5803 34.1638 40.35 28.5863 35.4326 25.3733C36.4487 24.6488 37.2056 24.0224 37.6253 23.6587C39.4182 24.9449 41.0085 26.5294 42.3315 28.3755C45.5077 32.808 46.7673 38.2115 45.8791 43.5916C44.0446 54.6976 33.5173 62.2416 22.4095 60.4064C17.0291 59.5179 12.3171 56.5878 9.14091 52.1552C5.96444 47.723 4.70482 42.3189 5.59338 36.9391C5.75296 35.9711 4.23634 35.7169 4.07612 36.6885C3.12027 42.474 4.47538 48.285 7.89026 53.0515C11.3058 57.8173 16.3734 60.9685 22.1589 61.9243C23.3689 62.124 24.5801 62.2227 25.783 62.2227C30.33 62.2227 34.7533 60.8108 38.5225 58.1099C43.2896 54.6944 46.4411 49.6277 47.3963 43.8422C48.0965 39.6029 47.5546 35.3497 45.8717 31.5039C46.6484 31.2748 47.9702 30.83 49.418 30.1071C52.4403 28.5978 54.5523 26.583 55.5248 24.2813C56.4983 21.9789 56.4711 19.0604 55.4463 15.8413ZM10.8078 36.9888C11.3801 38.0737 11.9213 39.0991 12.4837 39.5695C12.882 39.9025 13.4363 40.0729 14.0231 40.2533C15.5262 40.7154 15.7009 40.9423 15.5567 41.5367C15.3798 42.2676 14.953 43.1405 14.5406 43.9842C13.7462 45.6094 12.9961 47.1437 13.7071 48.2524C14.7155 49.8238 14.8882 51.3708 14.8709 52.3331C10.29 48.2024 8.42474 41.678 10.1311 35.748C10.3573 36.1358 10.595 36.5863 10.8078 36.9888ZM48.0183 21.8748L45.8326 16.578C46.8961 15.5834 48.1301 14.8349 49.1812 14.3077C50.0765 13.8585 50.9282 13.5227 51.6113 13.2846L48.0183 21.8748ZM53.0293 13.8809C53.3346 14.5372 53.6887 15.3834 53.9912 16.3399C54.3229 17.3897 54.6273 18.6906 54.6878 20.0477L49.5657 22.161L53.0293 13.8809ZM43.8337 19.3408C44.0606 18.8044 44.3538 18.3071 44.6925 17.8479L47.1807 23.8769L44.9479 29.216C44.6342 28.5504 44.2647 27.6763 43.9513 26.6833C43.3223 24.695 42.7917 21.8066 43.8337 19.3408ZM48.7611 28.7154C47.8994 29.148 47.0772 29.4755 46.4075 29.7117L48.7245 24.1723L54.6225 21.7386C54.5369 22.3994 54.3738 23.0543 54.1082 23.6824C53.0664 26.1481 50.6254 27.7807 48.7611 28.7154ZM21.0284 28.2777C20.7567 28.2245 20.4885 28.1595 20.2241 28.0855L28.7361 21.846L35.745 23.212C33.1918 25.2237 26.9782 29.4435 21.0284 28.2777ZM13.2492 23.4658C11.4288 21.5037 10.0945 19.4059 9.32837 18.0626L18.2477 19.8016L13.2492 23.4658ZM14.8245 13.2045L18.5562 18.2946L9.57927 16.5447C10.7094 15.6523 12.575 14.3125 14.8245 13.2045ZM20.7813 18.7285L16.2571 12.5572C17.6116 12.0006 19.0654 11.5626 20.5558 11.3678L26.8145 19.9041L20.7813 18.7285ZM20.3026 20.2021L26.6815 21.4454L18.4947 27.4462C16.9509 26.7332 15.5615 25.7082 14.3457 24.5687L20.3026 20.2021ZM41.1719 35.2209C38.3992 36.6981 37.0415 37.8584 36.3974 39.2738C35.7056 40.7936 35.9591 42.4249 36.3099 44.6827C36.5173 46.0141 34.9349 48.4933 32.8617 49.3812C32.0946 49.7097 31.5483 49.6709 31.2371 49.2656C30.6261 48.4702 30.6427 46.0631 30.6559 44.1293C30.6741 41.4537 30.6901 39.143 29.5863 38.1609C29.1892 37.8078 28.6813 37.6585 28.1171 37.7277C27.6335 37.7879 27.1429 37.8661 26.669 37.9417C23.8418 38.3923 22.0628 38.5727 21.1412 36.6779C19.648 33.6091 22.6706 31.336 24.0395 30.5012C24.3183 30.3314 24.5769 30.1311 24.8172 29.9081C28.1257 29.5127 31.2519 28.0932 34.0377 26.3151C37.3779 28.3107 39.9421 31.4689 41.1719 35.2209Z" fill="#333333"/>
</svg>
