<svg width="94" height="88" viewBox="0 0 94 88" fill="none" xmlns="http://www.w3.org/2000/svg">
<path d="M52.2526 15.0884C70.8774 22.4199 79.9952 41.8706 72.6637 60.4953C65.3323 79.1201 52.3479 80.4222 33.7231 73.0907C15.0983 65.7593 5.94334 44.7176 13.2748 26.0928C20.6063 7.46806 33.6278 7.75695 52.2526 15.0884Z" fill="white"/>
<path d="M33.7021 14.5599C15.3194 21.7961 6.3485 40.9652 13.5731 59.3184C17.1936 68.5158 23.0998 74.2081 30.3583 76.7209C37.6305 79.2385 46.3315 78.5889 55.5684 74.9529C64.7561 71.3362 72.5053 63.8613 77.048 54.9804C81.5901 46.1005 82.9043 35.862 79.3022 26.7113C75.7033 17.5688 68.9434 12.7334 60.7782 11.0677C52.5859 9.39655 42.9587 10.9161 33.7021 14.5599Z" stroke="#E1EDCA"/>
<path d="M48 26V60H39.9536V32.3143H33V26H48Z" fill="#181818"/>
</svg>
