<svg width="68" height="68" fill="none" xmlns="http://www.w3.org/2000/svg"><g clip-path="url(#clip0)"><mask id="a" style="mask-type:alpha" maskUnits="userSpaceOnUse" x="14" y="5" width="50" height="51"><path d="M58.772 34.7101C61.5915 22.5194 51.5754 11.4796 39.3847 8.66007C27.1939 5.84059 21.9246 12.0681 19.1051 24.2588C16.2856 36.4495 23.8825 48.6177 36.0732 51.4372C48.264 54.2566 55.9526 46.9008 58.772 34.7101Z" fill="#8BC34A"/></mask><g mask="url(#a)"><path fill="#01A2D8" d="M9 1H97V31H9z"/><path fill="#FFF139" d="M9 31H97V61H9z"/></g><g clip-path="url(#clip1)" fill="#333"><path d="M46.5521 19.3519C46.2943 19.2067 45.977 19.2117 45.7237 19.3651C45.6947 19.3826 42.7844 21.1201 38.7633 21.4427C35.1452 21.7328 32.5697 20.9679 29.9674 18.811V15.0841C29.9674 14.8165 29.8369 14.5657 29.6177 14.412C24.9159 11.1171 20.6728 11.2985 17.9415 12.0313C16.4439 12.433 15.2352 13.0344 14.3961 13.5392V11.7814C14.3961 10.2478 13.1483 9 11.6148 9C10.0811 9 8.8335 10.2478 8.8335 11.7814V20.3624C8.8335 20.8158 9.20089 21.1831 9.65414 21.1831C10.1074 21.1831 10.4748 20.8158 10.4748 20.3624V11.7814C10.4748 11.1527 10.9862 10.6413 11.6148 10.6413C12.2435 10.6413 12.7549 11.1527 12.7549 11.7814V43.4844C12.7549 43.9378 13.1223 44.305 13.5756 44.305C14.0288 44.305 14.3962 43.9377 14.3962 43.4844V34.3472C14.9392 33.9412 16.3552 32.9934 18.3668 32.4539C19.5396 32.1394 20.7106 32.0133 21.8764 32.0731V36.3349C21.8764 36.3743 21.8801 36.4131 21.8855 36.4517C21.8873 36.4636 21.8898 36.4752 21.892 36.4869C21.8971 36.5138 21.9034 36.5403 21.911 36.5664C21.9146 36.5786 21.9181 36.5905 21.9223 36.6024C21.932 36.6308 21.9435 36.6582 21.9563 36.6852C21.9598 36.6927 21.9627 36.7004 21.9664 36.7078C21.9838 36.7419 22.0036 36.7747 22.0255 36.8061C22.0297 36.812 22.0345 36.8173 22.0389 36.8231C22.0574 36.848 22.077 36.8718 22.0983 36.8946C22.1063 36.9031 22.1147 36.9113 22.1231 36.9195C22.1427 36.9388 22.1632 36.9569 22.1849 36.9742C22.1942 36.9816 22.2034 36.9893 22.213 36.9964C22.2186 37.0004 22.2235 37.0053 22.2292 37.0092C22.2427 37.0185 22.2572 37.0253 22.2711 37.0337C22.2882 37.0441 22.305 37.0548 22.323 37.0641C22.3438 37.0748 22.3653 37.0833 22.3868 37.0922C22.4003 37.0977 22.4128 37.1049 22.4267 37.1097C22.4519 37.1186 24.9917 38.0147 28.3216 39.9789C30.4948 41.2607 34.3822 42.7248 38.3126 42.7248C38.4164 42.7248 38.5205 42.7237 38.6244 42.7216C39.0775 42.7127 39.4375 42.3378 39.4284 41.8849C39.4196 41.4372 39.0538 41.0806 38.6083 41.0806C38.6027 41.0806 38.5972 41.0807 38.5917 41.0808C35.1336 41.1485 31.3627 39.867 29.1556 38.5654C27.4897 37.5826 26.0264 36.8613 24.9407 36.3716L29.4343 34.69C29.451 34.6838 29.4664 34.6753 29.4825 34.668C29.4967 34.6616 29.5114 34.6566 29.5254 34.6494C29.5272 34.6484 29.529 34.6471 29.5309 34.646C29.5497 34.6361 29.5671 34.6243 29.5849 34.613C29.5988 34.6042 29.6132 34.5963 29.6264 34.5868C29.6432 34.5747 29.6584 34.5609 29.674 34.5477C29.6867 34.537 29.7001 34.5271 29.7121 34.5158C29.7269 34.5018 29.7399 34.4861 29.7535 34.4711C29.7646 34.4589 29.7765 34.4473 29.7868 34.4345C29.7997 34.4184 29.8107 34.4009 29.8223 34.384C29.8314 34.3707 29.8414 34.3579 29.8497 34.3442C29.8604 34.3263 29.869 34.3073 29.8785 34.2886C29.8857 34.2744 29.8938 34.2606 29.9 34.2459C29.908 34.2275 29.9138 34.2081 29.9203 34.1891C29.9259 34.173 29.9324 34.1573 29.937 34.1409C29.942 34.1227 29.9448 34.1038 29.9487 34.085C29.9524 34.0669 29.957 34.0491 29.9595 34.0306C29.9597 34.0288 29.9603 34.0272 29.9605 34.0254C29.9629 34.0066 29.9627 33.988 29.9638 33.9693C29.9646 33.9535 29.967 33.9379 29.967 33.9219V20.8751C32.5774 22.6988 35.3358 23.3647 38.8942 23.0789C41.7128 22.8528 44.0028 22.0103 45.3289 21.4072V39.0326C44.7953 39.4034 43.543 40.1676 41.6982 40.6495C41.2596 40.7641 40.997 41.2126 41.1116 41.651C41.2262 42.0894 41.6747 42.3524 42.113 42.2375C44.9957 41.4843 46.6141 40.1256 46.6816 40.0682C46.8648 39.9122 46.9703 39.6838 46.9703 39.4433V20.0666C46.9705 19.7704 46.8102 19.4974 46.5521 19.3519ZM23.5173 35.1517V32.2883C23.6596 32.317 23.8014 32.3496 23.9431 32.3839C23.9803 32.3929 24.0175 32.4022 24.0546 32.4116C24.1821 32.4438 24.3094 32.4778 24.4366 32.5144C24.4521 32.5189 24.4678 32.5228 24.4833 32.5274C24.6239 32.5685 24.7641 32.613 24.9042 32.6595C24.9403 32.6714 24.9763 32.6838 25.0125 32.6962C25.1318 32.737 25.2512 32.7797 25.3703 32.8245C25.3951 32.8338 25.4199 32.8425 25.4446 32.852C25.5835 32.9051 25.7221 32.9612 25.8607 33.0197C25.895 33.0342 25.9294 33.0493 25.9636 33.0641C26.0787 33.1138 26.1938 33.1653 26.3087 33.2188C26.339 33.2329 26.3693 33.2465 26.3996 33.2608C26.5375 33.3261 26.675 33.3941 26.8123 33.4647C26.8429 33.4803 26.8734 33.4967 26.9039 33.5127C27.0185 33.5726 27.1331 33.6345 27.2474 33.6981C27.2681 33.7096 27.2887 33.7209 27.3093 33.7325L23.5173 35.1517ZM28.3259 19.1917V32.4217C28.2067 32.3523 28.0869 32.2848 27.9672 32.2191C27.9378 32.203 27.9084 32.1877 27.879 32.1718C27.8751 32.1697 27.8712 32.1676 27.8673 32.1655C27.85 32.1562 27.8326 32.1469 27.8153 32.1376C27.7368 32.0955 27.6582 32.0538 27.5795 32.0132C27.5353 31.9904 27.491 31.9682 27.4466 31.9459C27.3592 31.9019 27.2716 31.8588 27.184 31.8165C27.1385 31.7946 27.093 31.7728 27.0473 31.7514C26.9529 31.7071 26.8582 31.6642 26.7636 31.6221C26.7276 31.6062 26.6916 31.5895 26.6556 31.5738C26.5256 31.5173 26.3954 31.4625 26.2648 31.41C26.2416 31.4007 26.2184 31.392 26.1952 31.3829C26.0874 31.3402 25.9793 31.2987 25.8713 31.2587C25.828 31.2427 25.7844 31.2274 25.741 31.2119C25.6511 31.1797 25.561 31.1483 25.471 31.1181C25.4251 31.1027 25.3793 31.0875 25.3334 31.0726C25.2391 31.0421 25.1447 31.0128 25.0503 30.9844C25.0119 30.9728 24.9735 30.9608 24.935 30.9495C24.8028 30.911 24.6706 30.8741 24.5379 30.8399C24.5249 30.8365 24.5119 30.8337 24.499 30.8304C24.3794 30.7999 24.2599 30.7711 24.1402 30.744C24.098 30.7345 24.0558 30.7256 24.0134 30.7165C23.9211 30.6965 23.8287 30.6775 23.7363 30.6595C23.6902 30.6506 23.6441 30.6418 23.5978 30.6334C23.5042 30.6163 23.4104 30.6005 23.3167 30.5854C23.2758 30.5788 23.2349 30.5718 23.1938 30.5657C23.0603 30.5457 22.927 30.5272 22.7934 30.5113C22.758 30.5072 22.7227 30.5062 22.6875 30.5066C22.2022 30.4533 21.7318 30.4274 21.2797 30.4274C20.0149 30.4274 18.8872 30.6152 17.9413 30.8689C16.4656 31.2647 15.2696 31.8548 14.4322 32.3548V15.4828C15.0007 15.063 16.3991 14.1443 18.3665 13.6165C21.7279 12.715 25.0763 13.3544 28.3259 15.5171V19.1917Z"/><path d="M22.1791 63.9955C21.5206 61.1279 19.028 59.1251 16.1173 59.1251H14.3959V46.767C14.3959 46.3136 14.0286 45.9463 13.5753 45.9463C13.122 45.9463 12.7547 46.3137 12.7547 46.767V59.1253H10.4746V23.6451C10.4746 23.1917 10.1072 22.8245 9.65399 22.8245C9.20074 22.8245 8.83335 23.1917 8.83335 23.6451V59.1251H7.112C4.20131 59.1251 1.70877 61.1279 1.05033 63.9956C0.994439 64.2392 1.05263 64.495 1.20827 64.6906C1.3638 64.886 1.60005 64.9999 1.85008 64.9999H21.3792C21.6291 64.9999 21.8655 64.886 22.0212 64.6906C22.1769 64.495 22.235 64.2392 22.1791 63.9955ZM3.00191 63.3585C3.75802 61.7923 5.32864 60.7664 7.11189 60.7664H9.65388H13.5753H16.1173C17.9003 60.7664 19.4712 61.7923 20.2273 63.3585H3.00191Z"/></g></g><defs><clipPath id="clip0"><path fill="#fff" d="M0 0H68V68H0z"/></clipPath><clipPath id="clip1"><path fill="#fff" transform="translate(-4 9)" d="M0 0H56V56H0z"/></clipPath></defs></svg>