<svg width="16" height="16" fill="none" xmlns="http://www.w3.org/2000/svg"><path d="M15.7778 3.49805L8.28106 9.31255C8.19775 9.37527 8.09888 9.40639 8 9.40639C7.90112 9.40639 7.80225 9.37527 7.71894 9.31255L0.22225 3.49805C0.08325 3.71605 0 3.97295 0 4.25014V11.7501C0 12.5256 0.630813 13.1564 1.40625 13.1564H14.5938C15.3692 13.1564 16 12.5256 16 11.7501V4.25014C16 3.97295 15.9167 3.71605 15.7778 3.49805Z" fill="#004C3F"/><path d="M14.5939 2.84375H1.40638C1.26207 2.84375 1.12554 2.87191 0.994385 2.91247L8.00013 8.35156L15.0059 2.91247C14.8747 2.87191 14.7382 2.84375 14.5939 2.84375Z" fill="#004C3F"/></svg>