<svg width="105" height="101" fill="none" xmlns="http://www.w3.org/2000/svg"><path d="M38.0116 23.0856C17.1993 31.2781 6.77572 52.4166 14.6497 72.4196C22.5238 92.4226 36.9382 93.6364 57.7504 85.4439C78.5627 77.2513 89.8738 60.4761 81.9998 40.4731C74.1257 20.47 58.8238 14.893 38.0116 23.0856Z" fill="#fff"/><path d="M33.2588 21.4925C53.5423 9.78186 77.6335 15.114 88.9091 34.6438C94.5708 44.4502 95.2534 52.4157 92.0886 59.3688C88.9039 66.3657 81.7773 72.4488 71.5525 78.3521C51.2831 90.0546 25.7158 83.6582 14.4325 64.115C8.77634 54.3182 8.45847 46.6368 11.9752 39.9587C15.5229 33.2217 23.0199 27.404 33.2588 21.4925Z" stroke="#E1EDCA"/><path d="M53.7899 50.6096C56.763 51.0871 59.0413 52.1854 60.6248 53.9045C62.2083 55.5918 63 57.6929 63 60.2079C63 62.1498 62.4829 63.9485 61.4488 65.6039C60.4147 67.2275 58.8312 68.5328 56.6984 69.5197C54.5978 70.5066 52.0126 71 48.9425 71C46.5512 71 44.1921 70.6976 41.8653 70.0927C39.5709 69.456 37.6158 68.5646 36 67.4185L39.0539 61.4972C40.3465 62.4522 41.833 63.2004 43.5135 63.7416C45.2262 64.2509 46.9713 64.5056 48.7487 64.5056C50.7199 64.5056 52.2711 64.1395 53.4022 63.4073C54.5332 62.6433 55.0987 61.5768 55.0987 60.2079C55.0987 57.47 52.982 56.1011 48.7487 56.1011H45.1616V50.9916L52.1418 43.2079H37.6966V37H61.4488V42.014L53.7899 50.6096Z" fill="#181818"/></svg>