<svg width="124" height="124" fill="none" xmlns="http://www.w3.org/2000/svg"><path d="M88.9353 73.3783C94.2841 50.2517 75.2828 29.3085 52.1563 23.9597C29.0297 18.611 19.0335 30.4249 13.6847 53.5515C8.336 76.678 22.7478 99.7618 45.8743 105.111C69.0008 110.459 83.5866 96.5048 88.9353 73.3783Z" fill="#fff"/><path d="M92.7096 92.1218C109.587 73.1216 108.726 45.8984 89.7493 29.042C70.8188 12.2264 42.6525 17.815 25.7298 36.8661C17.3603 46.2883 16.7313 58.3084 20.6167 70.158C24.5045 82.0151 32.8978 93.6328 42.4429 102.111C51.958 110.564 60.2698 112.761 68.2697 110.579C76.3304 108.381 84.1915 101.711 92.7096 92.1218Z" stroke="#fff"/><path d="M54.568 60.472C57.4267 60.472 60.0293 61.048 62.376 62.2C64.7227 63.352 66.5787 64.9947 67.944 67.128C69.3093 69.2187 69.992 71.6507 69.992 74.424C69.992 77.4107 69.2453 80.0347 67.752 82.296C66.2587 84.5573 64.2107 86.3067 61.608 87.544C59.048 88.7387 56.1893 89.336 53.032 89.336C46.76 89.336 41.8533 87.416 38.312 83.576C34.7707 79.736 33 74.2533 33 67.128C33 62.0507 33.96 57.6987 35.88 54.072C37.8 50.4453 40.4667 47.6933 43.88 45.816C47.336 43.9387 51.3253 43 55.848 43C58.2373 43 60.52 43.2773 62.696 43.832C64.9147 44.344 66.792 45.0907 68.328 46.072L64.488 53.688C62.2693 52.1947 59.4747 51.448 56.104 51.448C52.3067 51.448 49.2987 52.5573 47.08 54.776C44.8613 56.9947 43.6667 60.216 43.496 64.44C46.1413 61.7947 49.832 60.472 54.568 60.472ZM52.456 81.592C54.6747 81.592 56.4667 80.9947 57.832 79.8C59.24 78.6053 59.944 76.984 59.944 74.936C59.944 72.888 59.24 71.2667 57.832 70.072C56.4667 68.8347 54.632 68.216 52.328 68.216C50.0667 68.216 48.2107 68.856 46.76 70.136C45.3093 71.3733 44.584 72.9733 44.584 74.936C44.584 76.8987 45.288 78.4987 46.696 79.736C48.104 80.9733 50.024 81.592 52.456 81.592Z" fill="#181818"/></svg>