<svg xmlns="http://www.w3.org/2000/svg" width="16" height="16" fill="none"><path d="M12.1641 10.5853C11.6414 10.0692 10.9888 10.0692 10.4694 10.5853 10.0732 10.9782 9.67699 11.3711 9.28744 11.7706 9.1809 11.8805 9.091 11.9038 8.96115 11.8305 8.70479 11.6907 8.43177 11.5775 8.18539 11.4243 7.03673 10.7018 6.07452 9.77292 5.22218 8.72747 4.79934 8.20808 4.42311 7.65206 4.16009 7.02612 4.10682 6.8996 4.11681 6.81637 4.22002 6.71315 4.61622 6.33027 5.00244 5.93739 5.39198 5.54452 5.93468 4.99849 5.93468 4.35923 5.38866 3.80988 5.07902 3.49691 4.76938 3.1906 4.45974 2.87763 4.14011 2.558 3.82381 2.23505 3.50086 1.91875 2.97813 1.40934 2.32556 1.40934 1.80617 1.92208 1.40663 2.31495 1.02375 2.71782.617555 3.10403.241327 3.46028.0515486 3.89644.0115952 4.40585-.0516643 5.23488.151432 6.0173.437765 6.77974 1.02375 8.3579 1.91604 9.7596 2.99811 11.0448 4.45974 12.7827 6.20437 14.1578 8.24532 15.15 9.16425 15.5961 10.1165 15.9391 11.1519 15.9957 11.8644 16.0356 12.4837 15.8558 12.9798 15.2998 13.3194 14.9202 13.7023 14.574 14.0619 14.2111 14.5946 13.6717 14.5979 13.0191 14.0685 12.4864 13.4359 11.8505 12.8 11.2179 12.1641 10.5853zM11.529 7.92979L12.7576 7.72003C12.5645 6.59135 12.0318 5.56921 11.2227 4.75682 10.3671 3.90116 9.285 3.36178 8.09305 3.19531L7.91992 4.43054C8.84218 4.56039 9.6812 4.97657 10.3438 5.63913 10.9697 6.26506 11.3792 7.05747 11.529 7.92979zM13.4491 2.59031C12.0308 1.17197 10.2362.276344 8.25516 0L8.08203 1.23523C9.79337 1.47495 11.3449 2.25071 12.5701 3.47262 13.7321 4.63459 14.4946 6.10288 14.7709 7.71766L15.9995 7.50791C15.6765 5.63676 14.7942 3.93874 13.4491 2.59031z" fill="#fff"/></svg>