<svg width="107" height="99" fill="none" xmlns="http://www.w3.org/2000/svg"><path d="M41.5913 14.6172C18.55 23.6872 7.06921 47.0457 15.7578 69.1181C20.1197 80.199 26.2466 85.9762 34.0796 87.9153C41.9598 89.8661 51.6815 87.9653 63.2906 83.3955C74.8497 78.8453 83.7222 71.9302 88.6197 63.4263C93.5083 54.9378 94.4649 44.8195 90.1162 33.7722C85.7496 22.6793 79.3553 15.6611 71.2379 12.5171C63.1114 9.36946 53.1562 10.0648 41.5913 14.6172Z" stroke="#fff"/><path d="M68.1374 14.798C89.901 23.3651 100.556 46.0938 91.9885 67.8574C83.4214 89.621 68.2487 91.1426 46.4851 82.5755C24.7215 74.0085 14.0236 49.4206 22.5907 27.657C31.1577 5.89335 46.3738 6.23092 68.1374 14.798Z" fill="#fff"/><path d="M71.0786 62.6573V71H38.075V64.3638L54.92 48.2472C56.7084 46.5197 57.9146 45.0449 58.5385 43.823C59.1624 42.559 59.4743 41.316 59.4743 40.0941C59.4743 38.3244 58.8712 36.9761 57.6651 36.0492C56.5005 35.0801 54.7744 34.5955 52.4868 34.5955C50.5736 34.5955 48.8475 34.9747 47.3086 35.7331C45.7696 36.4494 44.4803 37.5449 43.4405 39.0197L36.0786 34.2163C37.7839 31.6461 40.1339 29.6447 43.1285 28.2121C46.1232 26.7374 49.5546 26 53.4226 26C56.6669 26 59.4951 26.5478 61.9075 27.6433C64.3614 28.6966 66.2539 30.2135 67.5849 32.1938C68.9574 34.132 69.6437 36.4284 69.6437 39.0829C69.6437 41.4845 69.1446 43.7388 68.1464 45.8455C67.1481 47.9522 65.2141 50.3539 62.3442 53.0506L52.2996 62.6573H71.0786Z" fill="#181818"/></svg>