<svg width="68" height="68" fill="none" xmlns="http://www.w3.org/2000/svg"><path d="M56.772 36.7101C59.5915 24.5194 49.5754 13.4796 37.3847 10.6601C25.1939 7.84059 19.9246 14.0681 17.1051 26.2588C14.2856 38.4495 21.8825 50.6177 34.0732 53.4372C46.264 56.2566 53.9526 48.9008 56.772 36.7101Z" fill="#CFF08F"/><path d="M11.8853 23.0791H24.3574C24.8098 23.0791 25.1765 22.7124 25.1765 22.26 25.1765 21.8077 24.8098 21.4409 24.3574 21.4409H11.8853C11.4329 21.4409 11.0662 21.8077 11.0662 22.26 11.0662 22.7124 11.4329 23.0791 11.8853 23.0791zM11.8853 27.8347H22.2013C22.6537 27.8347 23.0204 27.468 23.0204 27.0156 23.0204 26.5633 22.6537 26.1965 22.2013 26.1965H11.8853C11.4329 26.1965 11.0662 26.5633 11.0662 27.0156 11.0662 27.468 11.4329 27.8347 11.8853 27.8347zM11.8853 32.5903H21.1233C21.5757 32.5903 21.9424 32.2236 21.9424 31.7712 21.9424 31.3189 21.5757 30.9521 21.1233 30.9521H11.8853C11.4329 30.9521 11.0662 31.3189 11.0662 31.7712 11.0662 32.2236 11.4329 32.5903 11.8853 32.5903zM11.8853 37.3457H22.2013C22.6537 37.3457 23.0204 36.979 23.0204 36.5266 23.0204 36.0743 22.6537 35.7075 22.2013 35.7075H11.8853C11.4329 35.7075 11.0662 36.0743 11.0662 36.5266 11.0662 36.979 11.4329 37.3457 11.8853 37.3457zM11.8853 42.1013H24.3574C24.8098 42.1013 25.1765 41.7346 25.1765 41.2822 25.1765 40.8299 24.8098 40.4631 24.3574 40.4631H11.8853C11.4329 40.4631 11.0662 40.8299 11.0662 41.2822 11.0662 41.7346 11.4329 42.1013 11.8853 42.1013zM11.8853 46.8567H35.6825C36.135 46.8567 36.5016 46.4899 36.5016 46.0376 36.5016 45.5852 36.135 45.2185 35.6825 45.2185H11.8853C11.4329 45.2185 11.0662 45.5852 11.0662 46.0376 11.0662 46.4899 11.4329 46.8567 11.8853 46.8567zM11.8853 51.6123H35.6825C36.135 51.6123 36.5016 51.2456 36.5016 50.7932 36.5016 50.3409 36.135 49.9741 35.6825 49.9741H11.8853C11.4329 49.9741 11.0662 50.3409 11.0662 50.7932 11.0662 51.2456 11.4329 51.6123 11.8853 51.6123zM35.6825 54.7297H11.8853C11.4329 54.7297 11.0662 55.0965 11.0662 55.5488 11.0662 56.0012 11.4329 56.3679 11.8853 56.3679H35.6825C36.135 56.3679 36.5016 56.0012 36.5016 55.5488 36.5016 55.0965 36.1349 54.7297 35.6825 54.7297z" fill="#5A5A5A"/><path d="M60.8024 49.9537L51.7115 40.8627C50.947 40.0982 49.9402 39.7207 48.936 39.729L46.5014 37.2944C49.3851 32.6642 48.8176 26.4809 44.7987 22.462C43.8257 21.489 42.7104 20.7053 41.5063 20.1268V15.693C41.5063 14.329 40.3966 13.2191 39.0325 13.2191H32.7201V11.9695C32.7201 11.1529 32.0584 10.4884 31.2451 10.4884H27.8677V10.1138C27.8675 7.84547 26.0356 6 23.784 6C21.5323 6 19.7004 7.84547 19.7004 10.1138V10.4884H16.3229C15.5096 10.4884 14.848 11.1527 14.848 11.9695V13.2191H8.53564C7.17158 13.2191 6.06177 14.329 6.06177 15.693V44.3056C6.06177 44.758 6.4285 45.1247 6.88086 45.1247C7.33322 45.1247 7.69995 44.758 7.69995 44.3056V15.693C7.69995 15.2323 8.07488 14.8573 8.53564 14.8573H14.848V16.1069C14.848 16.9236 15.5097 17.588 16.3229 17.588H31.2448C32.0581 17.588 32.7198 16.9236 32.7198 16.1069V14.8574H39.0322C39.4929 14.8574 39.8678 15.2324 39.8678 15.6931V19.4842C37.9872 18.901 35.9633 18.7807 33.9663 19.1767C33.5225 19.2647 33.2341 19.6958 33.3221 20.1395C33.4102 20.5831 33.8411 20.8716 34.2849 20.7836C37.6909 20.1077 41.1881 21.1686 43.6401 23.6204C47.6812 27.6615 47.6812 34.2369 43.6401 38.2781C39.5991 42.3191 33.0237 42.3192 28.9825 38.2781C24.9414 34.237 24.9414 27.6616 28.9825 23.6205C29.5789 23.0241 30.2438 22.5027 30.9583 22.071C31.3455 21.8371 31.4699 21.3336 31.236 20.9465C31.0021 20.5593 30.4986 20.4348 30.1114 20.6688C29.2836 21.1689 28.5142 21.7722 27.8242 22.4621C23.1443 27.142 23.1443 34.7567 27.8242 39.4365C30.164 41.7764 33.2377 42.9464 36.3113 42.9464C37.5114 42.9464 38.7113 42.7672 39.8678 42.4104V59.5262C39.8678 59.987 39.4928 60.3619 39.0322 60.3619H8.53564C8.07488 60.3619 7.69995 59.987 7.69995 59.5262V48.1032C7.69995 47.6508 7.33322 47.2841 6.88086 47.2841C6.4285 47.2841 6.06177 47.6508 6.06177 48.1032V59.5261C6.06177 60.8902 7.17158 62 8.53564 62H39.0323C40.3964 62 41.5061 60.8902 41.5061 59.5261V41.7694C41.8979 41.5817 42.2807 41.3694 42.6544 41.1369L45.0894 43.572C45.0893 43.5833 45.0885 43.5946 45.0885 43.6059C45.0885 44.6421 45.4921 45.6164 46.2248 46.3491L55.3157 55.4401C56.072 56.1964 57.0654 56.5746 58.0589 56.5746C59.0524 56.5746 60.0458 56.1965 60.8021 55.4401H60.8022C61.5349 54.7074 61.9384 53.7331 61.9384 52.6969C61.9384 51.6607 61.5351 50.6864 60.8024 49.9537ZM31.0816 15.9499H16.4862V12.1267H20.5195C20.9719 12.1267 21.3386 11.76 21.3386 11.3076V10.1139C21.3386 8.74876 22.4355 7.63829 23.784 7.63829C25.1324 7.63829 26.2293 8.74887 26.2293 10.1139V11.3076C26.2293 11.76 26.5961 12.1267 27.0484 12.1267H31.0817V15.9499H31.0816ZM45.5689 41.7346L43.9998 40.1655C44.2742 39.9364 44.5411 39.6939 44.7986 39.4364C45.0561 39.1789 45.2986 38.912 45.5278 38.6378L47.0979 40.2079C46.7848 40.3801 46.4902 40.5977 46.225 40.8627C45.9627 41.125 45.7434 41.4186 45.5689 41.7346ZM59.644 54.2818C58.77 55.1556 57.3481 55.1555 56.4743 54.2818L47.3833 45.1908C46.96 44.7675 46.7269 44.2046 46.7268 43.606C46.7268 42.3376 47.7142 41.3657 48.9681 41.3657C49.5421 41.3657 50.1161 41.5841 50.553 42.021L59.6439 51.112C60.5178 51.9859 60.5178 53.4078 59.644 54.2818Z" fill="#5A5A5A"/><path d="M30.2585 37.002C31.9273 38.6708 34.1193 39.5052 36.3113 39.5052C38.5033 39.5052 40.6955 38.6708 42.3643 37.002C45.7018 33.6645 45.7018 28.2338 42.3643 24.8963C39.0266 21.5587 33.5959 21.5587 30.2585 24.8963C26.921 28.2338 26.921 33.6645 30.2585 37.002ZM36.3114 24.0306C38.0839 24.0306 39.8565 24.7053 41.2058 26.0547C43.9047 28.7536 43.9047 33.1449 41.2058 35.8437C38.5071 38.5425 34.1158 38.5425 31.4169 35.8437C28.7181 33.1449 28.7181 28.7536 31.4169 26.0547C32.7664 24.7052 34.5389 24.0306 36.3114 24.0306Z" fill="#5A5A5A"/></svg>