<svg width="68" height="68" fill="none" xmlns="http://www.w3.org/2000/svg"><g clip-path="url(#clip0)"><path d="M40.772 37.7096C43.5915 25.5189 33.5754 14.4791 21.3847 11.6596C9.19395 8.8401 3.9246 15.0676 1.10512 27.2583C-1.71436 39.449 5.88253 51.6172 18.0732 54.4367C30.264 57.2561 37.9526 49.9003 40.772 37.7096Z" fill="#CFF08F"/><g clip-path="url(#clip1)" fill="#5A5A5A"><path d="M50.1584 18.4002V21.1584C50.1584 21.6635 50.4599 22.1147 50.9264 22.3079C51.3997 22.5039 51.9305 22.3902 52.2826 22.0382L55.7456 18.5751H64.4891C66.2677 18.5751 67.7145 17.1281 67.7145 15.3497V9.22536C67.7145 7.44692 66.2677 6 64.4891 6H51.2063C49.4278 6 47.981 7.44692 47.981 9.22536V15.3496C47.9808 16.7326 48.8761 17.9585 50.1584 18.4002ZM49.6208 9.22536C49.6208 8.35113 50.3321 7.63986 51.2063 7.63986H64.4893C65.3635 7.63986 66.0748 8.35113 66.0748 9.22536V15.3496C66.0748 16.2238 65.3635 16.9351 64.4893 16.9351H55.5513C55.239 16.9351 54.9452 17.0567 54.7236 17.2778L51.7984 20.2031V18.0438C51.7984 17.494 51.4107 17.0132 50.8766 16.9005C50.149 16.7471 49.6209 16.0948 49.6209 15.3497V9.22536H49.6208Z"/><path d="M65.8106 54.1272H64.2511V28.3364C64.2511 26.6367 62.8684 25.254 61.1687 25.254H45.8274C45.3744 25.254 45.0074 25.621 45.0074 26.074C45.0074 26.5269 45.3744 26.8939 45.8274 26.8939H61.1686C61.964 26.8939 62.6112 27.541 62.6112 28.3365V54.1273H59.878V31.949C59.878 30.6688 58.8364 29.6272 57.5562 29.6272H40.8063C41.0469 29.0013 41.213 28.3378 41.2892 27.6462C42.1602 27.4543 42.814 26.6762 42.814 25.7481C42.814 24.9982 42.814 19.3348 42.814 18.6599C42.814 17.0396 41.5028 15.7198 39.8857 15.706C39.8333 14.1228 38.529 12.8511 36.9333 12.8511H29.5794C26.4191 12.8511 23.848 15.4222 23.848 18.5824V25.7481C23.848 26.6762 24.5017 27.4543 25.3729 27.6462C25.449 28.3379 25.6152 29.0013 25.8558 29.6272H22.444C21.1637 29.6272 20.1221 30.6688 20.1221 31.949V38.6471C19.0479 39.0503 18.1146 39.7186 17.389 40.5623V28.3364C17.389 27.541 18.036 26.8938 18.8315 26.8938H20.8762C21.3291 26.8938 21.6962 26.5268 21.6962 26.0739C21.6962 25.6209 21.3291 25.2539 20.8762 25.2539H18.8315C17.1318 25.2539 15.7491 26.6366 15.7491 28.3363V44.9503V54.1271H14.1895C12.9889 54.1271 12.0122 55.104 12.0122 56.3045C12.0122 59.4453 14.5672 62.0003 17.7078 62.0003H62.2923C65.4329 62.0003 67.9879 59.4453 67.9879 56.3047C67.9879 55.1041 67.0111 54.1272 65.8106 54.1272ZM57.5562 31.2671C57.9322 31.2671 58.2381 31.573 58.2381 31.949V54.1273H50.916V51.123C50.916 50.6701 50.549 50.303 50.096 50.303C49.6431 50.303 49.2761 50.6701 49.2761 51.123V54.1273H45.3394V51.5254C45.3394 51.0725 44.9724 50.7054 44.5194 50.7054C44.0665 50.7054 43.6995 51.0725 43.6995 51.5254V54.1273H37.0298L35.2619 44.1588L35.9403 42.9433C36.0712 42.972 36.2041 42.988 36.3373 42.988C36.8056 42.988 37.2735 42.8114 37.6386 42.4606L40.6825 39.4965C40.9006 39.2842 41.0524 39.0258 41.139 38.7498L45.6189 40.0649C47.7723 40.6971 49.2762 42.7061 49.2762 44.9502V47.2898C49.2762 47.7427 49.6432 48.1097 50.0961 48.1097C50.5491 48.1097 50.9161 47.7427 50.9161 47.2898V44.9502C50.9161 41.9832 48.9278 39.3273 46.0809 38.4913L40.6698 36.9027C40.5208 36.7604 40.3483 36.6435 40.1589 36.5592L39.0389 36.0602C38.7089 35.9131 38.3554 35.8533 38.0083 35.8757V33.2543C38.7626 32.7096 39.4192 32.0372 39.9456 31.2672H57.5562V31.2671ZM27.2075 38.047L28.306 37.5537C28.4865 37.4728 28.6969 37.496 28.8554 37.6145L32.0916 40.0325L30.5021 41.3602C30.4119 41.4358 30.2808 41.4314 30.1958 41.3509L27.1591 38.3096V38.3095C27.0774 38.2279 27.1073 38.092 27.2075 38.047ZM36.3683 34.1679V36.672L33.4048 38.9668L30.2939 36.6423V34.168C32.2145 34.9593 34.3934 34.9816 36.3683 34.1679ZM39.4914 38.0572C39.5922 38.1018 39.6224 38.2396 39.5384 38.3216L36.4985 41.2817C36.4125 41.3645 36.2793 41.3683 36.1887 41.2908C36.1886 41.2908 36.1886 41.2908 36.1886 41.2908L34.7121 40.0282L37.8161 37.6248C37.9748 37.5017 38.1876 37.4762 38.3713 37.558L39.4914 38.0572ZM32.7326 43.1944L32.1213 42.1445L33.4073 41.0704L34.5583 42.0546L33.9223 43.1944H32.7326ZM32.9487 44.8343H33.7163L35.3643 54.1272H31.3015L32.9487 44.8343ZM47.305 55.7672C46.9739 56.6293 46.1395 57.2439 45.1623 57.2439H34.8377C33.8605 57.2439 33.0261 56.6293 32.695 55.7672H47.305ZM25.488 18.5824C25.488 16.3264 27.3234 14.4909 29.5795 14.4909H36.9334C37.658 14.4909 38.2474 15.0804 38.2474 15.805C38.2474 16.6545 38.9387 17.3457 39.7882 17.3457H39.8601C40.5847 17.3457 41.1741 17.9352 41.1741 18.6598V22.4998H40.5195C40.1529 22.4998 39.8546 22.2015 39.8546 21.8349V21.0223C39.8546 19.3936 38.2646 18.2444 36.7178 18.7554C34.5346 19.4769 32.13 19.4771 29.9468 18.7559C29.9442 18.755 29.9408 18.7539 29.9376 18.7529C28.3949 18.2482 26.8076 19.3934 26.8076 21.022V21.835C26.8076 22.2017 26.5093 22.4999 26.1426 22.4999H25.488V18.5824ZM25.488 25.7481V24.1398H26.1426C27.4135 24.1398 28.4476 23.1059 28.4476 21.8349V21.0219C28.4476 20.5116 28.9464 20.152 29.4295 20.3121C29.4319 20.313 29.4351 20.3139 29.4382 20.3148C31.9517 21.1438 34.7198 21.143 37.2324 20.3124C37.7154 20.1524 38.2146 20.5113 38.2146 21.0223V21.8349C38.2146 23.1059 39.2486 24.1398 40.5195 24.1398H41.1741V25.7481C41.1741 25.9156 41.0379 26.0517 40.8707 26.0517C40.2455 26.0517 39.7246 26.5422 39.6848 27.1687C39.4741 30.5113 36.6833 33.1297 33.3311 33.1297C29.979 33.1297 27.1882 30.5113 26.9773 27.1688C26.938 26.5423 26.4171 26.0517 25.7916 26.0517C25.6241 26.0517 25.488 25.9155 25.488 25.7481ZM22.444 31.2671H26.7167C27.2431 32.0371 27.8997 32.7095 28.6538 33.2542V35.8706C28.3095 35.8508 27.9597 35.9117 27.6342 36.0578L26.5357 36.551C26.3477 36.6354 26.1764 36.752 26.0283 36.8938L21.762 38.146V31.9492C21.7621 31.573 22.0679 31.2671 22.444 31.2671ZM17.389 44.9504C17.389 42.7061 18.893 40.6972 21.0466 40.065L21.18 40.0258C21.1831 40.025 21.186 40.0241 21.1891 40.0232L25.5561 38.7414C25.6412 39.0076 25.7883 39.2577 25.9986 39.4685V39.4684L29.041 42.5153C29.0438 42.5181 29.0465 42.5208 29.0492 42.5234C29.4122 42.8768 29.8824 43.0555 30.3542 43.0555C30.4804 43.0555 30.6065 43.0411 30.7309 43.0155L31.4016 44.1673L29.6361 54.1273H22.9627V51.5254C22.9627 51.0725 22.5957 50.7054 22.1427 50.7054C21.6898 50.7054 21.3228 51.0725 21.3228 51.5254V54.1273H17.389V44.9504ZM62.2923 60.3604H17.7078C15.4715 60.3604 13.6521 58.5411 13.6521 56.3047C13.6521 56.0083 13.8931 55.7672 14.1895 55.7672H30.9877C31.366 57.5455 32.9482 58.8837 34.8377 58.8837H45.1623C47.0518 58.8837 48.634 57.5455 49.0123 55.7672H65.8105C66.1069 55.7672 66.348 56.0083 66.348 56.3047C66.3481 58.5409 64.5286 60.3604 62.2923 60.3604Z"/></g></g><defs><clipPath id="clip0"><path fill="#fff" d="M0 0H68V68H0z"/></clipPath><clipPath id="clip1"><path fill="#fff" transform="translate(12 6)" d="M0 0H56V56H0z"/></clipPath></defs></svg>