<svg width="16" height="16" fill="none" xmlns="http://www.w3.org/2000/svg"><path d="M8.00012 5.83353C6.80351 5.83353 5.83346 6.80358 5.83346 8.00019C5.83346 9.19681 6.80351 10.1669 8.00012 10.1669C9.19674 10.1669 10.1668 9.19681 10.1668 8.00019C10.1668 6.80358 9.19674 5.83353 8.00012 5.83353Z" fill="#004C3F"/><path fill-rule="evenodd" clip-rule="evenodd" d="M4.51315 2.05451C6.81189 1.79759 9.18837 1.79759 11.4871 2.05451C12.7527 2.19595 13.7735 3.19314 13.922 4.46318C14.1969 6.81318 14.1969 9.18721 13.922 11.5372C13.7735 12.8072 12.7527 13.8044 11.4871 13.9459C9.18837 14.2028 6.8119 14.2028 4.51315 13.9459C3.24755 13.8044 2.22675 12.8072 2.07821 11.5372C1.80336 9.18721 1.80336 6.81318 2.07821 4.46318C2.22675 3.19314 3.24755 2.19595 4.51315 2.05451ZM11.3335 4.00019C10.9653 4.00019 10.6668 4.29867 10.6668 4.66686C10.6668 5.03505 10.9653 5.33353 11.3335 5.33353C11.7016 5.33353 12.0001 5.03505 12.0001 4.66686C12.0001 4.29867 11.7016 4.00019 11.3335 4.00019ZM4.83346 8.00019C4.83346 6.25129 6.25122 4.83353 8.00012 4.83353C9.74902 4.83353 11.1668 6.25129 11.1668 8.00019C11.1668 9.74909 9.74902 11.1669 8.00012 11.1669C6.25122 11.1669 4.83346 9.74909 4.83346 8.00019Z" fill="#004C3F"/></svg>