<svg width="24" height="24" fill="none" xmlns="http://www.w3.org/2000/svg"><g clip-path="url(#clip0)"><path d="M1.49971 1.63598C-0.386289 3.59498 -0.000289023 5.67598 -0.000289023 11.998C-0.000289023 17.248 -0.916289 22.511 3.87771 23.75C5.37471 24.135 18.6387 24.135 20.1337 23.748C22.1297 23.233 23.7537 21.614 23.9757 18.791C24.0067 18.397 24.0067 5.60598 23.9747 5.20398C23.7387 2.19698 21.8877 0.463976 19.4487 0.112976C18.8897 0.0319761 18.7777 0.00797608 15.9097 0.00297608C5.73671 0.00797608 3.50671 -0.445024 1.49971 1.63598Z" fill="url(#paint0_linear)"/><path d="M11.9968 3.14307C8.36584 3.14307 4.91784 2.82007 3.60084 6.20007C3.05684 7.59607 3.13584 9.40907 3.13584 12.0051C3.13584 14.2831 3.06284 16.4241 3.60084 17.8091C4.91484 21.1911 8.39084 20.8671 11.9948 20.8671C15.4718 20.8671 19.0568 21.2291 20.3898 17.8091C20.9348 16.3991 20.8548 14.6131 20.8548 12.0051C20.8548 8.54307 21.0458 6.30807 19.3668 4.63007C17.6668 2.93007 15.3678 3.14307 11.9928 3.14307H11.9968ZM11.2028 4.74007C18.7768 4.72807 19.7408 3.88608 19.2088 15.5831C19.0198 19.7201 15.8698 19.2661 11.9978 19.2661C4.93784 19.2661 4.73484 19.0641 4.73484 12.0011C4.73484 4.85607 5.29484 4.74407 11.2028 4.73807V4.74007ZM16.7268 6.21107C16.1398 6.21107 15.6638 6.68707 15.6638 7.27407C15.6638 7.86107 16.1398 8.33707 16.7268 8.33707C17.3138 8.33707 17.7898 7.86107 17.7898 7.27407C17.7898 6.68707 17.3138 6.21107 16.7268 6.21107ZM11.9968 7.45407C9.48384 7.45407 7.44684 9.49207 7.44684 12.0051C7.44684 14.5181 9.48384 16.5551 11.9968 16.5551C14.5098 16.5551 16.5458 14.5181 16.5458 12.0051C16.5458 9.49207 14.5098 7.45407 11.9968 7.45407ZM11.9968 9.05107C15.9018 9.05107 15.9068 14.9591 11.9968 14.9591C8.09284 14.9591 8.08684 9.05107 11.9968 9.05107Z" fill="#fff"/></g><defs><linearGradient id="paint0_linear" x1="1.546" y1="22.47" x2="23.851" y2="3.165" gradientUnits="userSpaceOnUse"><stop stop-color="#FD5"/><stop offset=".5" stop-color="#FF543E"/><stop offset="1" stop-color="#C837AB"/></linearGradient><clipPath id="clip0"><path fill="#fff" d="M0 0H24V24H0z"/></clipPath></defs></svg>