<svg width="107" height="99" fill="none" xmlns="http://www.w3.org/2000/svg"><path d="M62.4873 83.7119C85.5286 74.6419 97.0094 51.2834 88.3208 29.211C83.9589 18.1301 77.832 12.3529 69.9991 10.4138C62.1189 8.46302 52.3971 10.3638 40.788 14.9336C29.2289 19.4838 20.3565 26.3989 15.459 34.9028C10.5703 43.3913 9.61373 53.5096 13.9624 64.557C18.3291 75.6498 24.7233 82.668 32.8407 85.812C40.9672 88.9596 50.9224 88.2643 62.4873 83.7119Z" stroke="#fff"/><path d="M68.1374 14.798C89.901 23.3651 100.556 46.0938 91.9885 67.8574C83.4214 89.621 68.2487 91.1426 46.4851 82.5755C24.7215 74.0085 14.0236 49.4206 22.5907 27.657C31.1577 5.89335 46.3738 6.23092 68.1374 14.798Z" fill="#fff"/><path d="M53.2946 36.832C59.6093 36.832 64.2599 38.0907 67.2466 40.608C70.2759 43.1253 71.7906 46.496 71.7906 50.72C71.7906 53.4507 71.1079 55.9467 69.7426 58.208C68.3773 60.4267 66.2866 62.2187 63.4706 63.584C60.6973 64.9067 57.2626 65.568 53.1666 65.568C50.0093 65.568 46.8946 65.1627 43.8226 64.352C40.7933 63.4987 38.2119 62.304 36.0786 60.768L40.1746 52.832C41.8813 54.112 43.8439 55.1147 46.0626 55.84C48.2813 56.5227 50.5639 56.864 52.9106 56.864C55.5133 56.864 57.5613 56.352 59.0546 55.328C60.5479 54.304 61.2946 52.8747 61.2946 51.04C61.2946 49.12 60.5053 47.6693 58.9266 46.688C57.3906 45.7067 54.7026 45.216 50.8626 45.216H39.4066L41.7106 20H69.0386V28.32H50.3506L49.6466 36.832H53.2946Z" fill="#181818"/></svg>