<svg width="68" height="68" fill="none" xmlns="http://www.w3.org/2000/svg"><g clip-path="url(#clip0)"><path d="M66.772 35.7101C69.5915 23.5194 59.5754 12.4796 47.3847 9.66007C35.1939 6.84059 29.9246 13.0681 27.1051 25.2588C24.2856 37.4495 31.8825 49.6177 44.0732 52.4372C56.264 55.2566 63.9526 47.9008 66.772 35.7101Z" fill="#CFF08F"/><g clip-path="url(#clip1)" fill="#5A5A5A"><path d="M53.8207 50.6117H52.381V22.9092C52.381 20.8889 50.7374 19.2453 48.717 19.2453H43.4323V14.002C43.4323 12.4391 42.1608 11.1675 40.5978 11.1675H15.4022C13.8392 11.1675 12.5677 12.4391 12.5677 14.002V19.2453H7.28295C5.26258 19.2453 3.619 20.8889 3.619 22.9092V50.6117H2.1793C0.977594 50.6117 0 51.5893 0 52.791C0 56.1218 2.70977 58.8317 6.04067 58.8317H49.9594C53.2902 58.8317 56.0001 56.1218 56.0001 52.791C56 51.5893 55.0224 50.6117 53.8207 50.6117ZM14.2084 14.002C14.2084 13.3437 14.7439 12.8081 15.4022 12.8081H40.5978C41.2561 12.8081 41.7916 13.3436 41.7916 14.002V46.7611H14.2084V14.002ZM9.11028 46.7611V24.7364H12.5677V46.7611H9.11028ZM5.25962 22.9092C5.25962 21.7936 6.16733 20.8859 7.28295 20.8859H12.5677V23.0959H9.04039C8.17425 23.0959 7.46966 23.8006 7.46966 24.6668V46.8311C7.46966 47.6972 8.17425 48.4018 9.04039 48.4018H46.9595C47.8256 48.4018 48.5302 47.6972 48.5302 46.8311V43.7085C48.5302 43.2555 48.1631 42.8882 47.7099 42.8882C47.2568 42.8882 46.8896 43.2555 46.8896 43.7085V46.7612H43.4322V24.7364H46.8896V39.8735C46.8896 40.3265 47.2568 40.6938 47.7099 40.6938C48.1631 40.6938 48.5302 40.3265 48.5302 39.8735V24.6667C48.5302 23.8005 47.8256 23.0958 46.9595 23.0958H43.4322V20.8859H48.7169C49.8326 20.8859 50.7403 21.7936 50.7403 22.9092V50.6117H5.25962V22.9092ZM20.0922 52.2523H35.9078V53.0769C35.9078 53.5316 35.5379 53.9015 35.0832 53.9015H20.9168C20.4621 53.9015 20.0922 53.5316 20.0922 53.0769V52.2523ZM49.9593 57.1911H6.04067C3.61452 57.1911 1.64062 55.2172 1.64062 52.791C1.64062 52.4939 1.88223 52.2523 2.1793 52.2523H18.4516V53.0769C18.4516 54.4362 19.5575 55.5421 20.9168 55.5421H35.0831C36.4424 55.5421 37.5483 54.4362 37.5483 53.0769V52.2523H53.8206C54.1177 52.2523 54.3593 52.4939 54.3593 52.791C54.3594 55.2172 52.3855 57.1911 49.9593 57.1911Z"/><path d="M18.1273 23.4769H20.3625C20.8156 23.4769 21.1828 23.1096 21.1828 22.6566 21.1828 22.2036 20.8156 21.8363 20.3625 21.8363H18.1273C18.0951 21.8363 18.0691 21.8101 18.0691 21.7781V16.6358C18.0691 16.6038 18.0951 16.5776 18.1273 16.5776H37.8726C37.9048 16.5776 37.9308 16.6038 37.9308 16.6358V21.778C37.9308 21.81 37.9048 21.8362 37.8726 21.8362H24.1974C23.7442 21.8362 23.3771 22.2034 23.3771 22.6565 23.3771 23.1095 23.7442 23.4768 24.1974 23.4768H37.8726C38.8093 23.4768 39.5715 22.7147 39.5715 21.778V16.6358C39.5715 15.6991 38.8093 14.937 37.8726 14.937H18.1273C17.1906 14.937 16.4285 15.6991 16.4285 16.6358V21.778C16.4285 22.7148 17.1906 23.4769 18.1273 23.4769zM18.201 33.3359H21.3278C22.3053 33.3359 23.1003 32.5408 23.1003 31.5634V28.4366C23.1003 27.4592 22.3052 26.6641 21.3278 26.6641H18.201C17.2235 26.6641 16.4285 27.4592 16.4285 28.4366V31.5634C16.4285 32.5408 17.2236 33.3359 18.201 33.3359zM18.0691 28.4366C18.0691 28.3639 18.1283 28.3047 18.201 28.3047H21.3278C21.4005 28.3047 21.4597 28.3639 21.4597 28.4366V31.5634C21.4597 31.6361 21.4005 31.6953 21.3278 31.6953H18.201C18.1283 31.6953 18.0691 31.6361 18.0691 31.5634V28.4366zM29.5634 26.6641H26.4366C25.4591 26.6641 24.6641 27.4592 24.6641 28.4366V31.5634C24.6641 32.5408 25.4592 33.3359 26.4366 33.3359H29.5634C30.5409 33.3359 31.3359 32.5408 31.3359 31.5634V28.4366C31.3359 27.4592 30.5408 26.6641 29.5634 26.6641zM29.6953 31.5634C29.6953 31.6361 29.6361 31.6953 29.5634 31.6953H26.4366C26.3639 31.6953 26.3047 31.6361 26.3047 31.5634V28.4366C26.3047 28.3639 26.3639 28.3047 26.4366 28.3047H29.5634C29.6361 28.3047 29.6953 28.3639 29.6953 28.4366V31.5634zM37.799 26.6641H34.6722C33.6947 26.6641 32.8997 27.4592 32.8997 28.4366V31.5634C32.8997 32.5408 33.6948 33.3359 34.6722 33.3359H37.799C38.7765 33.3359 39.5715 32.5408 39.5715 31.5634V28.4366C39.5715 27.4592 38.7764 26.6641 37.799 26.6641zM37.9309 31.5634C37.9309 31.6361 37.8717 31.6953 37.799 31.6953H34.6722C34.5995 31.6953 34.5403 31.6361 34.5403 31.5634V28.4366C34.5403 28.3639 34.5995 28.3047 34.6722 28.3047H37.799C37.8717 28.3047 37.9309 28.3639 37.9309 28.4366V31.5634zM18.201 42.8882H21.3278C22.3053 42.8882 23.1003 42.093 23.1003 41.1156V37.9888C23.1003 37.0115 22.3052 36.2163 21.3278 36.2163H18.201C17.2235 36.2163 16.4285 37.0115 16.4285 37.9888V41.1156C16.4285 42.093 17.2236 42.8882 18.201 42.8882zM18.0691 37.9888C18.0691 37.9161 18.1283 37.8569 18.201 37.8569H21.3278C21.4005 37.8569 21.4597 37.9161 21.4597 37.9888V41.1156C21.4597 41.1884 21.4005 41.2476 21.3278 41.2476H18.201C18.1283 41.2476 18.0691 41.1884 18.0691 41.1156V37.9888zM29.5634 36.2163H26.4366C25.4591 36.2163 24.6641 37.0115 24.6641 37.9888V41.1156C24.6641 42.093 25.4592 42.8882 26.4366 42.8882H29.5634C30.5409 42.8882 31.3359 42.093 31.3359 41.1156V37.9888C31.3359 37.0115 30.5408 36.2163 29.5634 36.2163zM29.6953 41.1158C29.6953 41.1885 29.6361 41.2477 29.5634 41.2477H26.4366C26.3639 41.2477 26.3047 41.1885 26.3047 41.1158V37.9889C26.3047 37.9162 26.3639 37.857 26.4366 37.857H29.5634C29.6361 37.857 29.6953 37.9162 29.6953 37.9889V41.1158zM37.799 36.2163H34.6722C33.6947 36.2163 32.8997 37.0115 32.8997 37.9888V41.1156C32.8997 42.093 33.6948 42.8882 34.6722 42.8882H37.799C38.7765 42.8882 39.5715 42.093 39.5715 41.1156V37.9888C39.5715 37.0115 38.7764 36.2163 37.799 36.2163zM37.9309 41.1158C37.9309 41.1885 37.8717 41.2477 37.799 41.2477H34.6722C34.5995 41.2477 34.5403 41.1885 34.5403 41.1158V37.9889C34.5403 37.9162 34.5995 37.857 34.6722 37.857H37.799C37.8717 37.857 37.9309 37.9162 37.9309 37.9889V41.1158z"/></g></g><defs><clipPath id="clip0"><path fill="#fff" d="M0 0H68V68H0z"/></clipPath><clipPath id="clip1"><path fill="#fff" transform="translate(0 7)" d="M0 0H56V56H0z"/></clipPath></defs></svg>