<svg width="68" height="68" fill="none" xmlns="http://www.w3.org/2000/svg"><g clip-path="url(#clip0)"><path d="M66.772 33.7101C69.5915 21.5194 59.5754 10.4796 47.3847 7.66007C35.1939 4.84059 29.9246 11.0681 27.1051 23.2588C24.2856 35.4495 31.8825 47.6177 44.0732 50.4372C56.264 53.2566 63.9526 45.9008 66.772 33.7101Z" fill="#CFF08F"/><g clip-path="url(#clip1)" fill="#5A5A5A"><path d="M49.5507 49.5197C49.2436 49.3924 48.8901 49.4627 48.6549 49.6978L39.6724 58.6803C39.4373 58.9155 39.367 59.269 39.4943 59.5761C39.6214 59.8833 39.9213 60.0835 40.2537 60.0835H49.2362C49.6902 60.0835 50.0582 59.7156 50.0582 59.2615V50.279C50.0581 49.9466 49.8578 49.6469 49.5507 49.5197ZM42.2378 58.4397L48.4141 52.2634V58.4397H42.2378Z"/><path d="M55.4927 36.345C55.1856 36.2177 54.8321 36.288 54.5969 36.5231L52.1352 38.9848V22.247C52.1352 21.793 51.7672 21.4251 51.3133 21.4251H44.9978L47.2903 19.1325C47.2907 19.1322 47.291 19.1318 47.2913 19.1315L49.5003 16.9225C49.9735 16.4492 50.2342 15.8197 50.2342 15.1503C50.2342 14.4809 49.9735 13.8516 49.5003 13.3781L46.9459 10.8238C46.4727 10.3505 45.8431 10.0898 45.1737 10.0898C44.5043 10.0898 43.8749 10.3505 43.4015 10.8238L41.1915 13.0338L38.521 15.7043L32.8003 21.4249H7.28658V13.2934C7.28658 12.8394 6.91853 12.4715 6.46462 12.4715C2.90008 12.4717 0 15.3716 0 18.9363V53.8474C0 53.9081 0.00700001 53.9671 0.0194688 54.024C0.133 55.5366 0.787392 56.9419 1.88104 58.0088C3.05004 59.1489 4.59321 59.7768 6.2264 59.7768H31.3431L26.6127 64.5072C26.3777 64.7423 26.3074 65.0957 26.4346 65.403C26.5618 65.7101 26.8616 65.9104 27.194 65.9104H55.1782C55.6321 65.9104 56.0001 65.5424 56.0001 65.0884V37.1044C56.0001 36.772 55.7997 36.4722 55.4927 36.345ZM44.5642 11.9863C44.9002 11.6501 45.4476 11.6501 45.7836 11.9863L48.3381 14.5408C48.6743 14.8769 48.6743 15.4241 48.3381 15.7603L46.7093 17.3891L42.9352 13.6151L44.5642 11.9863ZM41.7728 14.7776L45.5468 18.5514L44.0386 20.0596L40.2649 16.2857L41.7728 14.7776ZM54.3564 46.3403H52.8399C52.3859 46.3403 52.018 46.7082 52.018 47.1622C52.018 47.6163 52.3859 47.9842 52.8399 47.9842H54.3564V50.4611H52.8399C52.3859 50.4611 52.018 50.829 52.018 51.2831C52.018 51.7371 52.3859 52.105 52.8399 52.105H54.3564V54.5818H52.8399C52.3859 54.5818 52.018 54.9498 52.018 55.4038C52.018 55.8578 52.3859 56.2257 52.8399 56.2257H54.3564V58.7026H52.8399C52.3859 58.7026 52.018 59.0707 52.018 59.5246C52.018 59.9786 52.3859 60.3465 52.8399 60.3465H54.3564V64.2668H29.1782L37.4807 55.9644C37.8017 55.6433 37.8017 55.123 37.4807 54.802C37.4438 54.7651 37.4042 54.7332 37.3628 54.7048C37.0428 54.4856 36.6024 54.5178 36.3182 54.802L32.987 58.1331H6.22651C3.73363 58.1331 1.72682 56.1869 1.64785 53.6985C1.65255 53.5423 1.66469 53.3874 1.68416 53.2343C1.68427 53.2334 1.68438 53.2326 1.68449 53.2317C1.69368 53.159 1.70472 53.0866 1.7173 53.0146C1.71872 53.0064 1.72025 52.9982 1.72168 52.99C1.73316 52.9258 1.74607 52.8619 1.76018 52.7982C1.76411 52.7805 1.76827 52.7628 1.77243 52.7452C1.78489 52.6914 1.79835 52.6379 1.81278 52.5846C1.82066 52.5558 1.82886 52.5272 1.83729 52.4984C1.84932 52.4567 1.86179 52.415 1.87502 52.3738C1.88825 52.3325 1.90236 52.2917 1.91669 52.2509C1.92664 52.2224 1.93649 52.1938 1.94721 52.1655C1.96722 52.1117 1.98844 52.0584 2.01032 52.0056C2.01655 51.9904 2.02268 51.975 2.02913 51.9598C2.05724 51.8941 2.08644 51.8293 2.11729 51.7652C2.1186 51.7625 2.1198 51.7597 2.12111 51.757C2.76402 50.4265 4.00051 49.4346 5.4844 49.1268C5.48856 49.126 5.49271 49.125 5.49687 49.1241C5.5649 49.1102 5.63359 49.0983 5.70271 49.0872C5.7142 49.0854 5.72568 49.0831 5.73739 49.0813C5.79984 49.0718 5.86295 49.0644 5.92606 49.0573C5.94378 49.0553 5.96139 49.0526 5.97922 49.0508C6.04014 49.0447 6.10161 49.0407 6.16307 49.0368C6.18254 49.0356 6.20201 49.0335 6.22148 49.0326C6.30198 49.0285 6.38314 49.0264 6.46462 49.0264C6.91853 49.0264 7.28658 48.6585 7.28658 48.2045V42.2447C7.28658 41.7907 6.91853 41.4228 6.46462 41.4228C6.01072 41.4228 5.64267 41.7907 5.64267 42.2447V47.4343C4.2547 47.6098 2.96637 48.2289 1.95049 49.2209C1.84363 49.3252 1.74235 49.4338 1.64369 49.544V18.9363C1.64369 16.5584 3.37466 14.5769 5.64256 14.1855V22.247V38.957V38.9571C5.64256 39.411 6.01061 39.7791 6.46451 39.7791C6.91842 39.7791 7.28647 39.411 7.28647 38.9571V38.957V23.069H31.1565L26.6126 27.6128C26.2916 27.934 26.2916 28.4543 26.6126 28.7753C26.9336 29.0962 27.4541 29.0962 27.775 28.7753L33.722 22.8282C33.7222 22.828 33.7224 22.8278 33.7226 22.8277L39.1022 17.4481L42.876 21.2221L42.4332 21.6648C42.4329 21.6651 42.4324 21.6655 42.4321 21.6658L25.8587 38.2394L22.0848 34.4655L25.3516 31.1987C25.6727 30.8776 25.6727 30.3573 25.3516 30.0363C25.0306 29.7154 24.5102 29.7154 24.1893 30.0363L20.3412 33.8843C20.3206 33.9049 20.3014 33.9266 20.2833 33.949C20.2773 33.9564 20.2719 33.9644 20.2662 33.9721C20.2547 33.9876 20.2433 34.0031 20.2327 34.0193C20.2267 34.0287 20.2212 34.0383 20.2155 34.048C20.2064 34.0634 20.1977 34.0789 20.1897 34.0947C20.1844 34.105 20.1797 34.1154 20.1749 34.1261C20.1676 34.1422 20.1608 34.1586 20.1546 34.175C20.1524 34.1808 20.1495 34.1863 20.1475 34.1921L18.5461 38.7284L17.4543 41.8215C17.4399 41.8626 17.4295 41.9044 17.4217 41.9465H14.6882C14.2343 41.9465 13.8663 42.3144 13.8663 42.7684C13.8663 43.2224 14.2343 43.5904 14.6882 43.5904H37.4507C37.9048 43.5904 38.2727 43.2224 38.2727 42.7684C38.2727 42.3144 37.9048 41.9465 37.4507 41.9465H21.1196L26.1323 40.177C26.1364 40.1755 26.1404 40.1734 26.1445 40.1719C26.164 40.1646 26.1831 40.1565 26.202 40.1479C26.2096 40.1444 26.2171 40.1411 26.2245 40.1375C26.2441 40.1277 26.2635 40.1168 26.2825 40.1052C26.2887 40.1015 26.295 40.0981 26.301 40.0943C26.3208 40.0816 26.3401 40.0677 26.359 40.0531C26.3637 40.0495 26.3686 40.0463 26.3732 40.0426C26.3961 40.0242 26.4185 40.0044 26.4397 39.9832L43.3539 23.0691H50.4912V40.6288L38.7338 52.3863C38.4128 52.7075 38.4128 53.2278 38.7338 53.5488C38.7538 53.5688 38.7747 53.5876 38.7963 53.6052C38.947 53.728 39.1311 53.7895 39.315 53.7895C39.499 53.7895 39.6832 53.728 39.8338 53.6052C39.8553 53.5877 39.8762 53.5688 39.8963 53.5488C39.8966 53.5484 39.8963 53.5488 39.8966 53.5484L54.3564 39.0885V46.3403ZM24.3553 39.0607L22.0009 39.8919L20.4323 38.3232L21.2634 35.9688L24.3553 39.0607Z"/></g></g><defs><clipPath id="clip0"><path fill="#fff" d="M0 0H68V68H0z"/></clipPath><clipPath id="clip1"><path fill="#fff" transform="translate(0 10)" d="M0 0H56V56H0z"/></clipPath></defs></svg>