<svg width="223" height="222" fill="none" xmlns="http://www.w3.org/2000/svg"><path d="M199.895 90.3683C163.741 36.6878 63.5272 105.008 16.5273 133.007" stroke="#2E332D" stroke-width="3" stroke-miterlimit="1.743" stroke-linecap="round" stroke-linejoin="bevel" stroke-dasharray="10 10"/><path d="M186.606 98.3819C185.782 98.3047 185.175 97.5734 185.252 96.7484C185.328 95.9234 186.059 95.3171 186.884 95.3943L186.606 98.3819ZM207.106 83.9994C207.481 83.2608 208.384 82.9666 209.122 83.3422C209.861 83.7179 210.155 84.6211 209.78 85.3597L207.106 83.9994ZM186.884 95.3943C189.661 95.6541 194.06 96.2664 198.275 97.2656C200.383 97.7653 202.473 98.3685 204.305 99.0849C206.112 99.7915 207.783 100.652 208.956 101.716L206.943 103.939C206.171 103.238 204.898 102.538 203.215 101.88C201.557 101.231 199.612 100.666 197.585 100.185C193.532 99.2246 189.275 98.6315 186.606 98.3819L186.884 95.3943ZM208.956 101.716C209.204 101.94 209.332 102.009 209.354 102.019C209.374 102.028 209.133 101.914 208.786 102.04C208.433 102.168 208.307 102.421 208.297 102.442C208.29 102.457 208.325 102.381 208.352 102.148C208.466 101.152 208.26 99.2722 207.903 96.8782C207.563 94.5977 207.104 91.9469 206.846 89.7136C206.716 88.5892 206.63 87.5123 206.636 86.5865C206.642 85.7246 206.724 84.7514 207.106 83.9994L209.78 85.3597C209.78 85.3596 209.777 85.3666 209.771 85.3823C209.765 85.398 209.757 85.4206 209.748 85.4511C209.731 85.5133 209.712 85.5986 209.694 85.7111C209.659 85.9392 209.638 86.237 209.635 86.6091C209.63 87.3557 209.701 88.2933 209.826 89.3711C210.077 91.5423 210.513 94.0468 210.869 96.4376C211.209 98.7148 211.501 101.023 211.331 102.494C211.287 102.878 211.202 103.312 211.017 103.709C210.829 104.113 210.467 104.622 209.811 104.861C209.161 105.097 208.55 104.947 208.123 104.754C207.699 104.563 207.304 104.265 206.943 103.939L208.956 101.716Z" fill="#2E332D"/></svg>