<svg width="24" height="24" fill="none" xmlns="http://www.w3.org/2000/svg"><g clip-path="url(#clip0)" fill="#8E24AA"><path d="M23.1522 13.8942C23.8682 7.86725 22.8082 4.06225 20.8962 2.34125L20.8972 2.34025C17.8111 -0.598755 7.38915 -1.03375 3.69715 2.47225C2.03915 4.18725 1.45515 6.70425 1.39115 9.82025C1.32715 12.9372 1.25115 18.7762 6.69215 20.3602H6.69715L6.69215 22.7792C6.69215 22.7792 6.65515 23.7592 7.28115 23.9562C7.99715 24.1882 8.32115 23.7332 10.5481 21.0732C14.2721 21.3962 17.1321 20.6562 17.4571 20.5482C18.2092 20.2962 22.4642 19.7332 23.1522 13.8942ZM10.9151 19.3712C10.9151 19.3712 8.55815 22.3102 7.82515 23.0732C7.58515 23.3212 7.32215 23.2982 7.32615 22.8062C7.32615 22.4832 7.34415 18.7902 7.34415 18.7902C2.73115 17.4682 3.00315 12.4962 3.05315 9.89525C3.10315 7.29325 3.57915 5.16225 4.98315 3.72725C8.22215 0.690245 17.3592 1.36925 19.6872 3.55725C22.5332 6.08025 21.5201 13.2082 21.5261 13.4512C20.9412 18.3252 17.4931 18.6342 16.8591 18.8452C16.5881 18.9352 14.0731 19.5822 10.9151 19.3712Z"/><path d="M12.2184 4.29492C11.8334 4.29492 11.8334 4.89492 12.2184 4.89992C15.2054 4.92292 17.6654 7.00492 17.6924 10.8239C17.6924 11.2269 18.2824 11.2219 18.2774 10.8189H18.2764C18.2444 6.70392 15.5584 4.31792 12.2184 4.29492Z"/><path d="M16.1494 10.1928C16.1404 10.5908 16.7294 10.6098 16.7344 10.2068 16.7834 7.93779 15.3844 6.06879 12.7552 5.87179 12.3702 5.84379 12.3302 6.44879 12.7142 6.47679 14.9943 6.64979 16.1954 8.20579 16.1494 10.1928zM15.5145 12.7758C15.0205 12.4898 14.5175 12.6678 14.3095 12.9488L13.8745 13.5118C13.6535 13.7978 13.2405 13.7598 13.2405 13.7598 10.2266 12.9628 9.42057 9.80881 9.42057 9.80881 9.42057 9.80881 9.38357 9.38181 9.65957 9.15281L10.2036 8.70281C10.4756 8.48681 10.6476 7.96681 10.3706 7.45581 9.63057 6.11881 9.13358 5.65781 8.88058 5.30381 8.61458 4.97081 8.21459 4.89581 7.7986 5.12081H7.7896C6.92461 5.62681 5.97763 6.57381 6.28062 7.54881 6.79761 8.57681 7.7476 11.8538 10.7756 14.3298 12.1985 15.5008 14.4505 16.7008 15.4065 16.9778L15.4155 16.9918C16.3575 17.3058 17.2734 16.3218 17.7624 15.4308V15.4238C17.9794 14.9928 17.9074 14.5848 17.5904 14.3178 17.0285 13.7698 16.1805 13.1648 15.5145 12.7758z"/><path d="M13.1657 8.10566C14.1268 8.16166 14.5928 8.66368 14.6428 9.69472C14.6608 10.0977 15.2459 10.0697 15.2279 9.66672C15.1639 8.32067 14.4618 7.57064 13.1977 7.50064C12.8127 7.47764 12.7767 8.08266 13.1657 8.10566Z"/></g><defs><clipPath id="clip0"><path fill="#fff" d="M0 0H24V24H0z"/></clipPath></defs></svg>