<svg width="24" height="24" fill="none" xmlns="http://www.w3.org/2000/svg"><g clip-path="url(#clip0)"><path d="M0.522807 17.8751C1.01281 19.6131 2.51181 19.9311 2.61181 19.9921C5.07881 20.6641 18.9068 20.6661 21.4108 19.9921C23.1258 19.4961 23.4408 17.9751 23.4998 17.8751C24.1528 14.4011 24.1958 9.87207 23.4698 5.93007L23.4998 6.12607C23.0098 4.38807 21.5108 4.07007 21.4108 4.00907C18.9768 3.34807 5.11281 3.32307 2.61181 4.00907C0.896807 4.50607 0.581807 6.02607 0.522807 6.12607C-0.176193 9.77707 -0.211193 13.9661 0.522807 17.8751ZM9.60881 15.6521V8.35907L15.8748 12.0111L9.60881 15.6521Z" fill="#E53935"/></g><defs><clipPath id="clip0"><path fill="#fff" d="M0 0H24V24H0z"/></clipPath></defs></svg>