<svg width="105" height="101" fill="none" xmlns="http://www.w3.org/2000/svg"><path d="M57.0316 23.0856C77.8439 31.2781 88.2675 52.4166 80.3935 72.4196C72.5194 92.4226 58.105 93.6364 37.2928 85.4439C16.4806 77.2513 5.16942 60.4761 13.0434 40.4731C20.9175 20.47 36.2194 14.893 57.0316 23.0856Z" fill="#fff"/><path d="M33.2588 21.4925C53.5423 9.78186 77.6335 15.114 88.9091 34.6438C94.5708 44.4502 95.2534 52.4157 92.0886 59.3688C88.9039 66.3657 81.7773 72.4488 71.5525 78.3521C51.2831 90.0546 25.7158 83.6582 14.4325 64.115C8.77634 54.3182 8.45847 46.6368 11.9752 39.9587C15.5229 33.2217 23.0199 27.404 33.2588 21.4925Z" stroke="#E1EDCA"/><path d="M67 64.6966V71H40.5971V65.986L54.0731 53.809C55.5039 52.5037 56.4688 51.3895 56.9679 50.4663C57.467 49.5112 57.7166 48.5721 57.7166 47.6489C57.7166 46.3118 57.2341 45.2931 56.2692 44.5927C55.3375 43.8605 53.9566 43.4944 52.1266 43.4944C50.596 43.4944 49.2151 43.7809 47.984 44.3539C46.7528 44.8951 45.7213 45.7228 44.8895 46.8371L39 43.2079C40.3642 41.2659 42.2442 39.7537 44.6399 38.6713C47.0357 37.5571 49.7807 37 52.8752 37C55.4706 37 57.7332 37.4139 59.6631 38.2416C61.6263 39.0375 63.1402 40.1835 64.205 41.6798C65.303 43.1442 65.8521 44.8792 65.8521 46.8848C65.8521 48.6994 65.4528 50.4026 64.6542 51.9944C63.8556 53.5861 62.3084 55.4007 60.0125 57.4382L51.9768 64.6966H67Z" fill="#181818"/></svg>