<svg width="68" height="68" fill="none" xmlns="http://www.w3.org/2000/svg"><g clip-path="url(#clip0)"><path d="M61.772 29.7101C64.5915 17.5194 54.5754 6.47955 42.3847 3.66007C30.1939 0.840591 24.9246 7.06808 22.1051 19.2588C19.2856 31.4495 26.8825 43.6177 39.0732 46.4372C51.264 49.2566 58.9526 41.9008 61.772 29.7101Z" fill="#CFF08F"/><path d="M54.765 32.7223L51.2117 31.1336C50.3945 30.7683 49.5262 30.583 48.6309 30.583H44.8132L42.3562 21.8784C41.3934 18.469 39.4536 15.4601 36.7467 13.1772C36.4004 12.8851 35.8828 12.929 35.5907 13.2755C35.2986 13.6218 35.3426 14.1394 35.6889 14.4315C38.1889 16.538 39.9668 19.3343 40.8239 22.4902L35.2542 20.3059C34.3944 19.9694 33.4903 19.7988 32.5672 19.7988H26.1798V10.6779C28.3653 10.7918 30.5289 11.3553 32.4835 12.3268C32.8892 12.5283 33.3816 12.363 33.5834 11.9573C33.785 11.5515 33.6196 11.0591 33.2139 10.8573C30.788 9.64035 28.0727 9.03869 25.3593 9.0038C25.2301 9.01506 19.5902 8.98181 19.4742 9.01572C15.6266 9.0434 11.9765 10.2877 8.91077 12.6201C5.80993 14.979 3.62154 18.2108 2.5821 21.9659C2.5821 21.9659 0.00185967 31.3204 0 31.4033V35.5661C0 37.4362 1.52143 38.9575 3.39149 38.9575H9.58539C10.0079 38.9575 10.4186 38.8803 10.8095 38.7284L16.5876 47.5084C16.0262 49.7102 16.9462 52.1424 18.7991 53.435V57.4307C18.7991 58.6208 19.7673 59.589 20.9574 59.589H23.1398C24.3298 59.589 25.298 58.6208 25.298 57.4307V53.435C27.1947 52.1145 28.1096 49.5944 27.4702 47.3598L34.4773 36.7141H53.9131C55.0638 36.7141 55.9999 35.7779 55.9999 34.6273C56 33.8055 55.5152 33.0578 54.765 32.7223ZM32.5672 21.4396C33.2849 21.4396 33.9878 21.5722 34.6557 21.8337L41.3834 24.4722L43.1083 30.5828H26.1798V21.4396H32.5672ZM20.429 10.6554H24.5389V30.5828H20.429V10.6554ZM4.16347 22.4037C5.10643 18.9974 7.09147 16.0658 9.90427 13.926C12.4991 11.9519 15.5554 10.8373 18.7881 10.6764V30.5827H11.008L12.2876 26.1476C12.8401 24.2322 14.214 22.6962 16.0569 21.9334C16.4757 21.7601 16.6746 21.2802 16.5013 20.8616C16.328 20.4428 15.8479 20.244 15.4295 20.4172C13.1227 21.372 11.4028 23.2949 10.7111 25.6927L9.30031 30.5826H1.89916L4.16347 22.4037ZM3.39149 37.3167C2.42621 37.3167 1.64088 36.5314 1.64088 35.5662V32.2238H43.3725V35.0734H34.0321C34.0288 35.0734 34.0256 35.0734 34.0223 35.0734H29.2384C29.237 35.0734 29.2356 35.0734 29.2342 35.0734H15.6054C15.1143 35.0735 14.6375 35.1794 14.1932 35.3813C14.1932 35.3813 10.7583 36.953 10.7339 36.9657C10.3857 37.1298 9.97964 37.3349 9.58539 37.3168H3.39149V37.3167ZM24.8932 43.9985L27.0564 40.7114L29.0446 41.9833L26.6522 45.6181C26.1908 44.9593 25.5919 44.4074 24.8932 43.9985ZM23.3384 43.3761C22.2379 43.1148 21.0513 43.1968 19.9988 43.6118C18.9131 44.0367 18.0048 44.7746 17.3742 45.7188L12.3225 38.0427L14.4936 37.0484L17.4753 41.5795C17.726 41.9611 18.2383 42.0609 18.6117 41.8138C18.9902 41.5647 19.0951 41.056 18.846 40.6775L16.2379 36.7142H27.7226L23.3384 43.3761ZM23.6572 57.4308C23.6572 57.7161 23.425 57.9482 23.1399 57.9482H20.9575C20.6722 57.9482 20.4401 57.7161 20.4401 57.4308V54.2364C21.4778 54.5457 22.6199 54.5454 23.6573 54.2363V57.4308H23.6572ZM24.0623 52.283C24.062 52.2831 24.0618 52.2833 24.0616 52.2834C24.0614 52.2835 24.0611 52.2837 24.0607 52.2839C23.4554 52.6409 22.7594 52.8297 22.048 52.8297C21.3373 52.8297 20.6418 52.6409 20.0364 52.2839C20.0362 52.2838 20.0359 52.2837 20.0355 52.2834C20.0353 52.2833 20.0351 52.2831 20.0349 52.283C18.8212 51.5705 18.0672 50.2546 18.0672 48.8488C18.0672 48.4285 18.1318 48.0159 18.2593 47.6222C18.6281 46.4816 19.4799 45.5768 20.5966 45.1399C21.0597 44.9587 21.548 44.867 22.048 44.867C22.5162 44.867 22.9744 44.9472 23.4093 45.1052C24.5286 45.5127 25.3995 46.3887 25.7989 47.5097C25.9521 47.9379 26.0299 48.3885 26.0299 48.8488C26.0299 50.2546 25.276 51.5705 24.0623 52.283ZM29.9469 40.6127L27.9586 39.3407L29.6871 36.7142H32.5129L29.9469 40.6127ZM53.9132 35.0733H45.0135V32.2237H48.631C49.2939 32.2237 49.9369 32.3609 50.542 32.6315L54.0953 34.2203C54.2555 34.2919 54.3592 34.4517 54.3592 34.6274C54.3591 34.8732 54.159 35.0733 53.9132 35.0733Z" fill="#5A5A5A"/><path d="M22.4812 27.7014C22.0103 27.7014 21.6287 28.0831 21.6287 28.5539 21.6287 29.0247 22.0103 29.4064 22.4812 29.4064 22.952 29.4064 23.3336 29.0247 23.3336 28.5539 23.3335 28.0831 22.952 27.7014 22.4812 27.7014zM4.94893 27.7014C4.47811 27.7014 4.09644 28.0831 4.09644 28.5539 4.09644 29.0247 4.47811 29.4064 4.94893 29.4064 5.41975 29.4064 5.80142 29.0247 5.80142 28.5539 5.80132 28.0831 5.41965 27.7014 4.94893 27.7014zM23.6021 48.0281H20.495C20.0419 48.0281 19.6746 48.3954 19.6746 48.8485 19.6746 49.3016 20.0419 49.669 20.495 49.669H23.6021C24.0552 49.669 24.4225 49.3016 24.4225 48.8485 24.4225 48.3954 24.0552 48.0281 23.6021 48.0281z" fill="#5A5A5A"/></g><defs><clipPath id="clip0"><path fill="#fff" d="M0 0H68V68H0z"/></clipPath></defs></svg>