<svg width="216" height="25" viewBox="0 0 216 25" fill="none" xmlns="http://www.w3.org/2000/svg">
    <path d="M84.5584 0.544423H75.031V24.363H81.8363V17.6257H84.5584C89.3562 17.6257 93.2352 14.3932 93.2352 9.08508C93.2352 3.77694 89.3562 0.544423 84.5584 0.544423ZM84.5584 11.0246H81.8363V7.14556H84.5584C85.5792 7.14556 86.4299 7.86012 86.4299 9.08508C86.4299 10.31 85.5792 11.0246 84.5584 11.0246Z"
          fill="black"/>
    <path d="M107.207 24.9074C114.25 24.9074 119.831 19.4972 119.831 12.4537C119.831 5.41021 114.25 0 107.207 0C100.163 0 94.5829 5.41021 94.5829 12.4537C94.5829 19.4972 100.163 24.9074 107.207 24.9074ZM107.207 18.2382C103.838 18.2382 101.388 15.7543 101.388 12.4537C101.388 9.15313 103.838 6.66919 107.207 6.66919C110.575 6.66919 113.025 9.15313 113.025 12.4537C113.025 15.7543 110.575 18.2382 107.207 18.2382Z"
          fill="black"/>
    <path d="M129.188 17.7618V0.544423H122.382V24.363H137.014V17.7618H129.188Z" fill="black"/>
    <path d="M139.063 0.544423V24.363H145.869V0.544423H139.063Z" fill="black"/>
    <path d="M174.104 0.544423H167.299L161.684 10.242L156.07 0.544423H149.265V24.363H156.07V12.7599L161.378 21.6749H161.991L167.299 12.7599V24.363H174.104V0.544423Z"
          fill="black"/>
    <path d="M184.315 18.1021V15.448H192.141V9.32326H184.315V6.73725H192.991V0.544423H177.509V24.363H193.161V18.1021H184.315Z"
          fill="black"/>
    <path d="M208.168 24.3289H215.45L210.754 15.448C213 14.087 214.429 11.7732 214.429 8.88092C214.429 3.74292 210.55 0.510398 205.412 0.510398H195.885V24.3289H202.69V16.8431H204.392L208.168 24.3289ZM202.69 6.77127H205.276C206.705 6.77127 207.624 7.62194 207.624 9.01702C207.624 10.4121 206.705 11.2287 205.276 11.1947H202.69V6.77127Z"
          fill="black"/>
    <path d="M6.8053 18.1021V15.448H14.6314V9.32326H6.8053V6.73725H15.4821V0.544423H0V24.363H15.6522V18.1021H6.8053Z"
          fill="#8BC34A"/>
    <path d="M29.8125 24.9074C34.27 24.9074 38.183 22.6276 40.2587 19.0889L34.3381 15.6862C33.5555 17.2514 31.8541 18.2382 29.8125 18.2382C26.4439 18.2382 24.1641 15.7543 24.1641 12.4537C24.1641 9.15313 26.4439 6.66919 29.8125 6.66919C31.8201 6.66919 33.5555 7.65596 34.3381 9.18715L40.2587 5.7845C38.183 2.27977 34.27 0 29.8125 0C22.5989 0 17.3588 5.41021 17.3588 12.4537C17.3588 19.4972 22.5989 24.9074 29.8125 24.9074Z"
          fill="#8BC34A"/>
    <path d="M53.0436 24.9074C60.0871 24.9074 65.6674 19.4972 65.6674 12.4537C65.6674 5.41021 60.0871 0 53.0436 0C46.0001 0 40.4198 5.41021 40.4198 12.4537C40.4198 19.4972 46.0001 24.9074 53.0436 24.9074ZM53.0436 18.2382C49.675 18.2382 47.2251 15.7543 47.2251 12.4537C47.2251 9.15313 49.675 6.66919 53.0436 6.66919C56.4122 6.66919 58.8621 9.15313 58.8621 12.4537C58.8621 15.7543 56.4122 18.2382 53.0436 18.2382Z"
          fill="#8BC34A"/>
</svg>
