<svg width="68" height="68" viewBox="0 0 68 68" fill="none" xmlns="http://www.w3.org/2000/svg">
<g clip-path="url(#clip0)">
<path d="M40.772 27.7096C43.5915 15.5189 33.5754 4.47906 21.3847 1.65958C9.19395 -1.1599 3.9246 5.06759 1.10512 17.2583C-1.71436 29.449 5.88253 41.6172 18.0732 44.4367C30.264 47.2561 37.9526 39.9003 40.772 27.7096Z" fill="#CFF08F"/>
<path d="M49.7098 46.5435C49.854 46.5039 50.0205 46.431 50.1607 46.2527L53.1252 42.4618C53.4043 42.1049 53.3412 41.5893 52.9843 41.3103C52.6277 41.0313 52.112 41.0941 51.8328 41.4512L50.209 43.5278C49.3935 38.5754 45.083 34.7853 39.9032 34.7853C36.7772 34.7853 33.841 36.1687 31.8477 38.581C31.5591 38.9301 31.6083 39.4472 31.9575 39.7358C32.3067 40.0243 32.8238 39.9753 33.1124 39.626C34.793 37.5923 37.2682 36.4259 39.9033 36.4259C44.3429 36.4259 48.0236 39.7296 48.6212 44.0074L46.229 42.1367C45.8723 41.8577 45.3566 41.9205 45.0775 42.2776C44.7984 42.6345 44.8615 43.1501 45.2184 43.4291L49.0093 46.3936C49.1377 46.4922 49.43 46.6278 49.7098 46.5435ZM57.2536 38.925C57.7067 38.925 58.0739 38.5579 58.0739 38.1047V16.6817C58.0739 15.7256 57.296 14.9476 56.3399 14.9476H51.5869C50.6308 14.9476 49.8528 15.7255 49.8528 16.6817V28.3677C49.8528 28.4193 49.8109 28.4611 49.7594 28.4611H29.777C29.7255 28.4611 29.6836 28.4193 29.6836 28.3677V16.6817C29.6836 15.7256 28.9058 14.9476 27.9496 14.9476H23.9025L22.8313 12.9266C23.5215 12.6372 24.0076 11.9548 24.0076 11.1607V7.91406C24.0076 6.8587 23.1489 6 22.0936 6H12.7628C11.7074 6 10.8487 6.8587 10.8487 7.91406V11.1609C10.8487 11.9547 11.3346 12.6369 12.0245 12.9265L8.00945 20.5017C6.64675 23.0716 5.92651 25.9677 5.92651 28.877V57.8984C5.92651 60.1601 7.76642 62 10.0281 62H54.5125C56.4762 62 58.074 60.4024 58.074 58.4385V41.9329C58.074 41.4797 57.7068 41.1125 57.2537 41.1125C56.8005 41.1125 56.4334 41.4797 56.4334 41.9329V58.4385C56.4334 59.4977 55.5717 60.3594 54.5125 60.3594H25.024C23.9649 60.3594 23.1032 59.4977 23.1032 58.4385V46.768C23.1032 46.7645 23.1037 46.761 23.1037 46.7574C23.1037 46.7538 23.1033 46.7504 23.1032 46.7468V16.6817C23.1032 16.6302 23.1451 16.5883 23.1966 16.5883H27.9496C28.0011 16.5883 28.043 16.6302 28.043 16.6817V28.3677C28.043 29.3238 28.8209 30.1018 29.777 30.1018H49.7594C50.7156 30.1018 51.4935 29.3239 51.4935 28.3677V16.6817C51.4935 16.6302 51.5353 16.5883 51.5869 16.5883H56.3399C56.3914 16.5883 56.4333 16.6302 56.4333 16.6817V38.1047C56.4333 38.5579 56.8005 38.925 57.2536 38.925ZM10.0281 60.3594C8.67117 60.3594 7.56714 59.2553 7.56714 57.8984V47.5778H21.4627V58.4386C21.4627 59.1457 21.6707 59.8047 22.0275 60.3595H10.0281V60.3594ZM21.4627 16.6817V45.9372H7.56714V34.268H18.4554C18.9086 34.268 19.2757 33.9008 19.2757 33.4477C19.2757 32.9945 18.9086 32.6273 18.4554 32.6273H7.56714V28.8769C7.56714 26.2345 8.2212 23.6041 9.459 21.2701L13.8027 13.0748H21.053L22.2099 15.2576C21.759 15.5712 21.4627 16.0921 21.4627 16.6817ZM22.367 11.1609C22.3573 11.492 21.7987 11.4395 21.5639 11.4343C21.5555 11.4341 21.5471 11.4342 21.5388 11.4343H13.3171C13.3085 11.4342 13.2998 11.4341 13.2912 11.4343C13.0426 11.4401 12.4932 11.5536 12.4892 11.1609V7.91406C12.4892 7.76323 12.6118 7.64062 12.7627 7.64062H22.0936C22.2444 7.64062 22.367 7.76323 22.367 7.91406V11.1609ZM39.9031 55.6759C44.1989 55.6759 48.0065 53.0994 49.6033 49.1119C49.7717 48.6912 49.5674 48.2138 49.1467 48.0454C48.7264 47.877 48.2486 48.0814 48.0802 48.502C46.7341 51.8633 43.5245 54.0353 39.9031 54.0353C35.0482 54.0353 31.0984 50.0856 31.0984 45.2306C31.0984 44.7358 31.1401 44.2461 31.2208 43.7643L33.1668 46.2528C33.4476 46.6117 33.9639 46.6709 34.3183 46.3937C34.6752 46.1146 34.7383 45.599 34.4592 45.2422L31.5122 41.4737C31.1766 41.1685 30.9553 40.951 30.3431 41.3103L26.5521 44.2748C26.1952 44.5539 26.1321 45.0695 26.4112 45.4263C26.6905 45.7833 27.2061 45.8462 27.5627 45.5672L29.5281 44.0302C29.4827 44.4269 29.4577 44.8272 29.4577 45.2305C29.4578 50.9902 34.1435 55.6759 39.9031 55.6759Z" fill="#5A5A5A"/>
</g>
<defs>
<clipPath id="clip0">
<rect width="68" height="68" fill="white"/>
</clipPath>
</defs>
</svg>
