<svg width="34" height="34" viewBox="0 0 34 34" fill="none" xmlns="http://www.w3.org/2000/svg">
<g clip-path="url(#clip0)">
<path d="M16.9897 0.389648C25.5379 0.389648 32.464 7.31573 32.464 15.864C32.464 24.4122 25.5379 31.3383 16.9897 31.3383C14.7913 31.3383 10.88 30.0309 8.98578 29.2039C6.77137 31.9093 5.25058 32.9391 5.25058 32.9391V25.9382C2.92408 23.2329 1.51538 19.7111 1.51538 15.8639C1.51545 7.31573 8.44153 0.389648 16.9897 0.389648Z" fill="#8BC34A"/>
<path d="M19.7663 0.6428C18.8651 0.479485 17.9381 0.389648 16.9897 0.389648C8.44146 0.389648 1.51538 7.31573 1.51538 15.864C1.51538 19.7112 2.92408 23.2329 5.25058 25.9383V32.939C5.25058 32.939 6.7713 31.9092 8.98578 29.2038C9.41257 29.3902 9.94509 29.6011 10.534 29.8158C8.11939 26.6573 6.69501 22.7841 6.69501 18.6019C6.69501 10.4268 12.1154 3.44758 19.7663 0.6428Z" fill="#71A239"/>
<path d="M16.9897 24.4019C17.8755 24.4019 18.5905 25.1169 18.5905 26.0026C18.5905 26.8884 17.8755 27.6034 16.9897 27.6034C16.1039 27.6034 15.3889 26.8884 15.3889 26.0026C15.3889 25.1169 16.1039 24.4019 16.9897 24.4019Z" fill="white"/>
<path d="M18.5905 4.125H15.3889V22.2673H18.5905V4.125Z" fill="white"/>
<path d="M29.5289 25.8943L28.7408 25.2697C30.8544 22.6027 31.9716 19.3893 31.9716 15.9771C31.9716 11.9771 30.4146 8.21718 27.5873 5.39001C24.7601 2.56269 21.0001 1.00564 17.0002 1.00564C13.9835 1.00564 11.0761 1.8981 8.59247 3.58643L8.0271 2.75477C10.6782 0.952538 13.781 0 17.0002 0C21.2688 0 25.2813 1.66165 28.2985 4.67882C31.3157 7.69599 32.9773 11.7085 32.9773 15.9771C32.9773 19.6183 31.7848 23.0477 29.5289 25.8943Z" fill="#231F20"/>
<path d="M4.75808 34V26.2361C2.34804 23.3658 1.02295 19.7303 1.02295 15.977C1.02295 11.315 3.05152 6.89715 6.58847 3.85645L7.24401 4.61905C3.92957 7.46855 2.02858 11.6084 2.02858 15.977C2.02858 19.5525 3.31191 23.0138 5.64217 25.7235L5.76372 25.8649V32.0006C6.40612 31.4359 7.40344 30.4688 8.60698 28.9985L8.84827 28.7038L9.19729 28.8562C11.1299 29.7 14.9462 30.9486 17 30.9486C20.864 30.9486 24.5314 29.4819 27.3267 26.8186L28.0204 27.5467C25.0373 30.3889 21.1235 31.9542 17.0001 31.9542C14.8981 31.9542 11.2808 30.8147 9.14439 29.9265C7.03987 32.4418 5.60516 33.4263 5.54295 33.4685L4.75808 34Z" fill="#231F20"/>
<path d="M19.1037 22.8833H14.8965V3.73535H19.1037V22.8833ZM15.9021 21.8777H18.098V4.74099H15.9021V21.8777Z" fill="#231F20"/>
<path d="M17.0001 28.2189C15.8402 28.2189 14.8965 27.2752 14.8965 26.1153C14.8965 24.9553 15.8402 24.0117 17.0001 24.0117C18.16 24.0117 19.1037 24.9554 19.1037 26.1153C19.1037 27.2752 18.16 28.2189 17.0001 28.2189ZM17.0001 25.0173C16.3947 25.0173 15.9021 25.5098 15.9021 26.1152C15.9021 26.7206 16.3947 27.2132 17.0001 27.2132C17.6055 27.2132 18.098 26.7206 18.098 26.1152C18.098 25.5098 17.6055 25.0173 17.0001 25.0173Z" fill="#231F20"/>
<path d="M25.3321 25.664L24.6758 24.902C27.2777 22.6612 28.7699 19.4083 28.7699 15.9771H29.7755C29.7756 19.7013 28.156 23.232 25.3321 25.664Z" fill="white"/>
<path d="M5.23 15.9768H4.22437C4.22437 11.2986 6.77834 6.99927 10.8896 4.75684L11.3712 5.63965C7.58319 7.70583 5.23 11.6668 5.23 15.9768Z" fill="white"/>
<path d="M5.26103 17.0752H4.19385V18.0808H5.26103V17.0752Z" fill="#231F20"/>
<path d="M5.26103 19.2095H4.19385V20.2151H5.26103V19.2095Z" fill="#231F20"/>
<path d="M29.8064 13.8735H28.7393V14.8792H29.8064V13.8735Z" fill="#231F20"/>
<path d="M29.8064 11.7393H28.7393V12.7449H29.8064V11.7393Z" fill="white"/>
</g>
<defs>
<clipPath id="clip0">
<rect width="34" height="34" fill="white"/>
</clipPath>
</defs>
</svg>
