<svg width="68" height="68" viewBox="0 0 68 68" fill="none" xmlns="http://www.w3.org/2000/svg">
<path d="M56.756 36.8207C55.076 24.4214 39.3194 17.9797 24.386 20.0029C9.45266 22.0262 5.97433 29.8185 7.65426 42.2177C9.33419 54.6169 22.8019 63.0283 37.7353 61.005C52.6687 58.9817 58.4359 49.2199 56.756 36.8207Z" fill="#8BC34A"/>
<path d="M52.8436 11H20.3333C18.4286 11 16.879 12.55 16.879 14.4551V24.812H15.7985C15.461 24.812 15.1286 24.7573 14.8103 24.6505L14.0199 24.3839C13.7951 24.3087 13.5909 24.1797 13.429 24.01C13.4264 24.0075 13.4243 24.0045 13.4217 24.0019C13.1615 23.7264 13.018 23.3666 13.018 22.9864V21.4859L13.4892 21.1988C14.3258 20.6891 14.8453 19.7632 14.8453 18.7827V16.3051C14.8453 16.3021 14.8453 16.2991 14.8453 16.2966V14.1347C14.8453 12.4061 13.441 11 11.714 11H8.85362C7.12713 11 5.72234 12.4061 5.72234 14.1347V15.9988V16.0009V18.7827C5.72234 19.7632 6.24187 20.6891 7.07842 21.1988L7.54924 21.4859V22.9864C7.54924 23.3957 7.37749 23.7904 7.07842 24.069C6.92547 24.2109 6.74688 24.3172 6.54735 24.3843L5.14941 24.8547C3.06018 25.5584 1.65625 27.5143 1.65625 29.7219V40.9948C1.65625 42.9823 3.073 44.6447 4.94946 45.0262V48.5156C4.94946 48.9684 5.31689 49.3359 5.76977 49.3359C6.22307 49.3359 6.59008 48.9684 6.59008 48.5156V41.789H13.7396V62.5019H10.9852V45.1249C10.9852 44.6721 10.6181 44.3046 10.1648 44.3046C9.71196 44.3046 9.34453 44.6721 9.34453 45.1249V62.5019H6.59008V51.7605C6.59008 51.3072 6.22307 50.9402 5.76977 50.9402C5.31689 50.9402 4.94946 51.3072 4.94946 51.7605V63.3222C4.94946 63.6204 5.10925 63.881 5.34765 64.0246C5.09515 64.4655 4.94946 64.976 4.94946 65.5199V65.9822C4.94946 66.5436 5.40618 66.9999 5.96715 66.9999H9.96745C10.035 66.9999 10.1008 66.9931 10.1648 66.9802C10.2289 66.9931 10.2947 66.9999 10.3622 66.9999H14.3625C14.9235 66.9999 15.3802 66.5436 15.3802 65.9822V65.5199C15.3802 64.976 15.235 64.4655 14.982 64.0246C15.2204 63.881 15.3802 63.6208 15.3802 63.3222V40.9772C15.3802 40.9742 15.3806 40.9717 15.3806 40.9687V30.5157C15.3806 30.3589 15.5075 30.2312 15.6639 30.2312H24.9552C27.2512 30.2312 29.1191 28.3641 29.1191 26.0685V25.7404C29.1191 25.2285 28.703 24.812 28.192 24.812H26.7018L27.8754 23.7144C28.1852 23.8673 28.5321 23.9558 28.9008 23.9558C29.484 23.9558 30.0159 23.7383 30.4244 23.382L32.5824 24.5411C32.5692 24.6411 32.5598 24.7423 32.5598 24.8457C32.5598 26.1266 33.6022 27.1687 34.8831 27.1687C36.164 27.1687 37.206 26.1266 37.206 24.8457C37.206 24.4223 37.0903 24.0259 36.8916 23.6836L38.8121 21.3308C39.0441 21.409 39.2914 21.453 39.5499 21.453C39.8686 21.453 40.1724 21.3885 40.4488 21.2718L42.0155 22.9257C41.8664 23.232 41.7806 23.5747 41.7806 23.9374C41.7806 25.2183 42.8226 26.2603 44.1039 26.2603C45.3848 26.2603 46.4269 25.2183 46.4269 23.9374C46.4269 23.5085 46.3081 23.1077 46.1047 22.7625L49.0446 19.1177C49.277 19.1958 49.5248 19.2403 49.7833 19.2403C51.0642 19.2403 52.1062 18.1982 52.1062 16.9169C52.1062 15.636 51.0642 14.594 49.7833 14.594C48.502 14.594 47.4599 15.636 47.4599 16.9169C47.4599 17.3407 47.5757 17.7368 47.7744 18.079L44.8281 21.7315C44.6 21.6564 44.3568 21.6145 44.1035 21.6145C43.7848 21.6145 43.481 21.679 43.2046 21.7956L41.6379 20.1413C41.7865 19.835 41.8728 19.4928 41.8728 19.13C41.8728 17.8492 40.8304 16.8071 39.5495 16.8071C38.2686 16.8071 37.2266 17.8492 37.2266 19.13C37.2266 19.5539 37.3423 19.9504 37.5414 20.293L35.6214 22.645C35.389 22.5668 35.1412 22.5228 34.8831 22.5228C34.2999 22.5228 33.768 22.7403 33.3596 23.0962L31.2015 21.9371C31.2144 21.8375 31.2238 21.7362 31.2238 21.6329C31.2238 20.352 30.1817 19.3099 28.9004 19.3099C27.6195 19.3099 26.5775 20.352 26.5775 21.6329C26.5775 21.946 26.6407 22.2447 26.7535 22.5173L24.3002 24.812H18.5196V14.4551C18.5196 13.4545 19.3331 12.6406 20.3328 12.6406H52.8436C53.8443 12.6406 54.6582 13.4545 54.6582 14.4551V41.6536C54.6582 42.6537 53.8443 43.4681 52.8436 43.4681H20.3328C19.3331 43.4681 18.5196 42.6537 18.5196 41.6536V32.7673C18.5196 32.314 18.1526 31.947 17.6993 31.947C17.246 31.947 16.879 32.314 16.879 32.7673V41.6536C16.879 43.5587 18.4286 45.1087 20.3328 45.1087H24.1725C23.8961 45.5757 23.7367 46.12 23.7367 46.701V48.5651V48.5672V51.349C23.7367 52.3296 24.2567 53.2554 25.0932 53.7651L25.5645 54.0527V55.5527C25.5645 55.9624 25.3927 56.3568 25.0932 56.6353C24.9403 56.7776 24.7617 56.8836 24.5626 56.9507L23.1646 57.4211C21.075 58.1247 19.6715 60.0807 19.6715 62.2882V66.1796C19.6715 66.6329 20.0385 66.9999 20.4918 66.9999C20.9447 66.9999 21.3121 66.6329 21.3121 66.1796V62.2882C21.3121 60.7856 22.2666 59.4543 23.6876 58.9762L25.086 58.5058C25.3449 58.4182 25.5875 58.2995 25.8118 58.1508C26.2489 58.282 26.6937 58.3759 27.144 58.4311L25.708 63.5076C25.6315 63.778 25.6986 64.069 25.8866 64.2783L27.5977 66.1864C27.7485 66.3543 27.9617 66.453 28.1878 66.4586C28.1946 66.4586 28.2014 66.459 28.2083 66.459C28.4266 66.459 28.6364 66.3718 28.7906 66.2163L30.6829 64.3082C30.8969 64.0925 30.9742 63.7759 30.8837 63.4858L29.2943 58.4054C29.763 58.3371 30.2253 58.2268 30.6777 58.076C30.9324 58.2602 31.2144 58.4058 31.5121 58.5058L32.9097 58.9758C34.3307 59.4547 35.2856 60.7856 35.2856 62.2882V66.1796C35.2856 66.6325 35.653 66.9999 36.1059 66.9999C36.5592 66.9999 36.9262 66.6325 36.9262 66.1796V62.2882C36.9262 61.5517 37.1531 60.8463 37.5824 60.2481C37.8465 59.8803 37.7623 59.3676 37.3945 59.1035C37.0262 58.8395 36.5139 58.9237 36.2494 59.2915C36.1999 59.3607 36.1525 59.4317 36.1063 59.5026C35.4911 58.5485 34.5627 57.8013 33.433 57.4211L32.0338 56.9502C31.8065 56.8742 31.6074 56.7481 31.4425 56.5751C31.1785 56.2991 31.0332 55.9359 31.0332 55.5527V54.0522L31.5045 53.7651H31.504C32.3406 53.2554 32.8601 52.3296 32.8601 51.349V48.871C32.8601 48.8685 32.8601 48.8655 32.8601 48.8629V46.701C32.8601 46.12 32.7007 45.5757 32.4243 45.1083H39.7875C39.511 45.5757 39.3517 46.12 39.3517 46.701V48.5651V48.5672V51.349C39.3517 52.3296 39.8716 53.2554 40.7077 53.7651L41.1786 54.0522V55.5527C41.1786 55.962 41.0072 56.3572 40.709 56.6353C40.5565 56.7768 40.3775 56.8831 40.1767 56.9507L39.4311 57.2019C39.0018 57.3463 38.771 57.8116 38.9155 58.2409C39.0308 58.5836 39.3504 58.7998 39.6926 58.7998C39.7798 58.7998 39.8678 58.7857 39.9549 58.7566L40.7001 58.5054C40.9598 58.4182 41.2025 58.299 41.4268 58.1508C41.8639 58.282 42.3086 58.3759 42.759 58.4311L41.3226 63.5072C41.2461 63.778 41.3136 64.069 41.5011 64.2783L43.2127 66.1864C43.3635 66.3543 43.5767 66.453 43.8027 66.4586C43.8095 66.4586 43.8164 66.459 43.8232 66.459C44.0415 66.459 44.2513 66.3718 44.4056 66.2163L46.2978 64.3082C46.5119 64.0925 46.5892 63.7759 46.4982 63.4858L44.9089 58.4054C45.3775 58.3371 45.8398 58.2264 46.2927 58.076C46.5465 58.2597 46.8285 58.4054 47.1275 58.5054L48.5238 58.9758C49.0258 59.1446 49.4714 59.4176 49.8491 59.7876C50.2157 60.146 50.5036 60.5891 50.6822 61.0689C50.8275 61.4598 50.9014 61.87 50.9014 62.2878V66.1791C50.9014 66.6325 51.2684 66.9995 51.7217 66.9995C52.1746 66.9995 52.542 66.6325 52.542 66.1791V62.2878C52.542 61.6739 52.4335 61.0714 52.2199 60.4972C51.958 59.7923 51.5346 59.1411 50.9967 58.6148C50.4408 58.0709 49.7854 57.6693 49.0476 57.4211L47.6492 56.9498C47.424 56.8746 47.2202 56.7456 47.0575 56.5742C46.7939 56.2991 46.649 55.9364 46.649 55.5523V54.0514L47.119 53.7647C47.9555 53.255 48.4751 52.3291 48.4751 51.3486V48.8706C48.4751 48.868 48.4751 48.865 48.4751 48.8625V46.7006C48.4751 46.1196 48.3157 45.5752 48.0393 45.1083H52.8436C54.7487 45.1083 56.2988 43.5582 56.2988 41.6531V14.4551C56.2988 12.55 54.7487 11 52.8436 11V11ZM49.7833 16.2346C50.1593 16.2346 50.4656 16.5409 50.4656 16.9173C50.4656 17.2933 50.1593 17.5997 49.7833 17.5997C49.6197 17.5997 49.4697 17.542 49.3522 17.4458C49.3496 17.4437 49.3475 17.4411 49.3449 17.439C49.3441 17.4386 49.3437 17.4382 49.3432 17.4377C49.195 17.3125 49.101 17.1258 49.101 16.9169C49.1006 16.5409 49.4069 16.2346 49.7833 16.2346ZM44.7862 23.9374C44.7862 24.3138 44.4799 24.6197 44.1035 24.6197C43.7275 24.6197 43.4212 24.3138 43.4212 23.9374C43.4212 23.561 43.7275 23.2551 44.1035 23.2551C44.4799 23.2551 44.7862 23.561 44.7862 23.9374ZM39.5495 18.4473C39.9259 18.4473 40.2322 18.7536 40.2322 19.1296C40.2322 19.506 39.9259 19.8124 39.5495 19.8124C39.3871 19.8124 39.238 19.7551 39.1205 19.6598C39.1201 19.6594 39.1193 19.6586 39.1184 19.6581C39.1171 19.6568 39.1158 19.656 39.1141 19.6547C38.9633 19.5295 38.8672 19.3407 38.8672 19.1296C38.8672 18.7536 39.1735 18.4473 39.5495 18.4473ZM34.8831 24.1634C35.2591 24.1634 35.5654 24.4693 35.5654 24.8457C35.5654 25.2221 35.2591 25.528 34.8831 25.528C34.5067 25.528 34.2004 25.2221 34.2004 24.8457C34.2004 24.7304 34.2294 24.6223 34.2803 24.5266C34.2807 24.5253 34.282 24.524 34.2824 24.5227C34.2837 24.5206 34.2845 24.5185 34.2854 24.5163C34.402 24.3061 34.6259 24.1634 34.8831 24.1634ZM28.9004 20.9501C29.2768 20.9501 29.5831 21.2564 29.5831 21.6329C29.5831 21.7469 29.5545 21.8546 29.5049 21.949C29.5037 21.9511 29.5024 21.9533 29.5011 21.955C29.4998 21.958 29.4985 21.9605 29.4973 21.9631C29.381 22.1729 29.1572 22.3152 28.9004 22.3152C28.7043 22.3152 28.5274 22.2314 28.4027 22.0985C28.4027 22.0981 28.4027 22.0981 28.4027 22.0981C28.4027 22.0977 28.4022 22.0977 28.4022 22.0977C28.2882 21.9759 28.2181 21.8123 28.2181 21.6329C28.2181 21.2564 28.5244 20.9501 28.9004 20.9501ZM10.2341 29.2596L11.1915 33.773L10.2234 34.7489L9.36461 33.7914L10.2341 29.2596ZM10.2511 24.2835C9.81364 24.2929 9.37914 24.2561 8.95189 24.1775C9.10655 23.8028 9.18987 23.3982 9.18987 22.9864V22.4489C9.54021 22.5967 9.91191 22.6715 10.2836 22.6715C10.6557 22.6715 11.027 22.5967 11.3774 22.4489V22.9864C11.3774 23.3769 11.45 23.7571 11.5867 24.1122C11.1488 24.2151 10.7023 24.2737 10.2511 24.2835ZM8.85362 12.6406H11.714C12.536 12.6406 13.2047 13.311 13.2047 14.1347V15.1678L9.31419 13.9155C9.10527 13.8484 8.87798 13.8677 8.68315 13.9694L7.36296 14.6585V14.1347C7.36296 13.311 8.0316 12.6406 8.85362 12.6406ZM7.36296 16.5093L9.13817 15.5822L13.2047 16.8913V18.7827C13.2047 19.195 12.9868 19.5838 12.6356 19.7978C12.6352 19.7978 12.6352 19.7978 12.6352 19.7978L10.8997 20.8561C10.5199 21.0877 10.0478 21.0877 9.66795 20.8561L7.93248 19.7978C7.58086 19.5838 7.36296 19.1946 7.36296 18.7823V16.5093ZM6.59948 65.3593C6.67937 64.6752 7.26214 64.1425 7.96752 64.1425C8.67247 64.1425 9.25566 64.6752 9.33513 65.3593H6.59948ZM10.9945 65.3593C11.0744 64.6752 11.6572 64.1425 12.3622 64.1425C13.0675 64.1425 13.6507 64.6752 13.7302 65.3593H10.9945ZM24.9552 28.5905H15.6639C14.6031 28.5905 13.74 29.4544 13.74 30.5157V40.1484H6.59008V30.9195C6.59008 30.4661 6.22307 30.0991 5.76977 30.0991C5.31689 30.0991 4.94946 30.4661 4.94946 30.9195V43.3275C3.98815 42.9883 3.29687 42.071 3.29687 40.9948V29.7219C3.29687 28.2193 4.25177 26.8884 5.67278 26.4095L7.07073 25.9391C7.33007 25.8519 7.57274 25.7327 7.79662 25.5844C8.26103 25.7233 8.73399 25.8199 9.21294 25.8737L7.67699 33.8815C7.62871 34.1332 7.70092 34.393 7.87181 34.5839L9.58293 36.4916C9.73375 36.6599 9.94694 36.7582 10.173 36.7642H10.1935C10.4118 36.7642 10.6216 36.677 10.7758 36.5215L12.6681 34.6138C12.8629 34.4173 12.9458 34.1362 12.8885 33.8657L11.1881 25.8515C11.688 25.7844 12.181 25.6703 12.6629 25.5097C12.9172 25.6938 13.1996 25.8395 13.4978 25.9391L14.2865 26.2052C14.7735 26.3693 15.2824 26.4526 15.7985 26.4526H27.4495C27.264 27.6617 26.216 28.5905 24.9552 28.5905ZM31.2195 47.7341L27.329 46.4819C27.1201 46.4148 26.8928 46.434 26.6979 46.5357L25.3778 47.2248V46.701C25.3778 45.8773 26.0464 45.207 26.8684 45.207H29.7288C30.5508 45.207 31.2195 45.8773 31.2195 46.701V47.7341ZM29.3926 55.0152V55.5527C29.3926 55.9432 29.4652 56.3235 29.6019 56.6781C29.164 56.7815 28.7171 56.84 28.2659 56.8498C27.8293 56.8588 27.3948 56.8225 26.9667 56.7439C27.1218 56.3692 27.2051 55.9646 27.2051 55.5527V55.0152C27.5554 55.1631 27.9267 55.2378 28.2988 55.2378C28.6705 55.2378 29.0422 55.1631 29.3926 55.0152ZM28.2382 64.4433L27.4097 63.5196L28.248 60.5562L29.17 63.5037L28.2382 64.4433ZM30.6504 52.3642L28.9145 53.4225C28.5347 53.654 28.0626 53.654 27.6827 53.4225L25.9473 52.3642C25.5957 52.1501 25.3778 51.7609 25.3778 51.349V49.0757L27.153 48.1485L31.2195 49.4576V51.349C31.2195 51.7613 31.0016 52.1501 30.6504 52.3642ZM46.8344 47.7341L42.944 46.4819C42.7346 46.4148 42.5073 46.434 42.3129 46.5357L40.9927 47.2248V46.701C40.9927 45.8773 41.6614 45.207 42.4834 45.207H45.3438C46.1658 45.207 46.8344 45.8773 46.8344 46.701V47.7341ZM45.008 55.0148V55.5527C45.008 55.9432 45.0806 56.3239 45.2169 56.6781C44.7785 56.7815 44.3321 56.84 43.8805 56.8498C43.4425 56.8592 43.0085 56.8225 42.5812 56.7439C42.7359 56.3692 42.8192 55.9646 42.8192 55.5527V55.0152C43.17 55.1631 43.5417 55.2378 43.9134 55.2378C44.2855 55.2378 44.6576 55.1631 45.008 55.0148ZM43.8531 64.4433L43.0243 63.5196L43.8625 60.5562L44.785 63.5037L43.8531 64.4433ZM46.2649 52.3642L44.5295 53.4225C44.1496 53.654 43.6775 53.654 43.2977 53.4225L41.5618 52.3642C41.2106 52.1501 40.9927 51.7613 40.9927 51.349V49.0757L42.7679 48.149L46.8344 49.4576V51.349C46.8344 51.7613 46.6166 52.1501 46.2649 52.3642Z" fill="black"/>
<path d="M22.2798 34.4006H50.2811C50.7339 34.4006 51.1014 34.0332 51.1014 33.5803C51.1014 33.127 50.7339 32.76 50.2811 32.76H22.2798C21.8269 32.76 21.4595 33.127 21.4595 33.5803C21.4595 34.0332 21.8269 34.4006 22.2798 34.4006Z" fill="black"/>
<path d="M22.2798 38.1467H37.1108C37.5637 38.1467 37.9311 37.7797 37.9311 37.3264C37.9311 36.8735 37.5637 36.5061 37.1108 36.5061H22.2798C21.8269 36.5061 21.4595 36.8735 21.4595 37.3264C21.4595 37.7797 21.8269 38.1467 22.2798 38.1467Z" fill="black"/>
</svg>
