<svg width="124" height="124" viewBox="0 0 124 124" fill="none" xmlns="http://www.w3.org/2000/svg">
<path d="M113.291 76.64C118.64 53.5134 99.6388 32.5702 76.5122 27.2215C53.3857 21.8727 43.3894 33.6867 38.0407 56.8132C32.692 79.9397 47.1037 103.024 70.2303 108.372C93.3568 113.721 107.943 99.7665 113.291 76.64Z" fill="white"/>
<path d="M92.7096 92.1208C109.587 73.1206 108.726 45.8974 89.7493 29.041C70.8188 12.2254 42.6525 17.814 25.7298 36.8651C17.3603 46.2873 16.7313 58.3075 20.6167 70.1571C24.5045 82.0141 32.8978 93.6318 42.4429 102.111C51.958 110.563 60.2698 112.76 68.2697 110.578C76.3304 108.38 84.1915 101.71 92.7096 92.1208Z" stroke="white"/>
<path d="M79.1787 68.6124C82.9928 69.2303 85.9156 70.6517 87.9471 72.8764C89.9785 75.0599 90.9943 77.779 90.9943 81.0337C90.9943 83.5468 90.3309 85.8745 89.0043 88.0169C87.6776 90.118 85.6461 91.8071 82.9099 93.0843C80.2151 94.3614 76.8985 95 72.9599 95C69.892 95 66.8656 94.6086 63.8806 93.8258C60.9371 93.0019 58.4289 91.8483 56.356 90.3652L60.2738 82.7022C61.9321 83.9382 63.8392 84.9064 65.995 85.6067C68.1923 86.2659 70.431 86.5955 72.7112 86.5955C75.2402 86.5955 77.2301 86.1217 78.6812 85.1742C80.1322 84.1854 80.8577 82.8052 80.8577 81.0337C80.8577 77.4906 78.1422 75.7191 72.7112 75.7191H68.1093V69.1067L77.0643 59.0337H58.5325V51H89.0043V57.4888L79.1787 68.6124Z" fill="#181818"/>
</svg>
