<svg width="68" height="68" viewBox="0 0 68 68" fill="none" xmlns="http://www.w3.org/2000/svg">
<g clip-path="url(#clip0)">
<path d="M40.772 38.7096C43.5915 26.5189 33.5754 15.4791 21.3847 12.6596C9.19395 9.8401 3.9246 16.0676 1.10512 28.2583C-1.71436 40.449 5.88253 52.6172 18.0732 55.4367C30.264 58.2561 37.9526 50.9003 40.772 38.7096Z" fill="#CFF08F"/>
<path d="M22.5 13H36.5C36.7321 13 36.9546 12.9078 37.1187 12.7437C37.2828 12.5796 37.375 12.3571 37.375 12.125C37.375 11.8929 37.2828 11.6704 37.1187 11.5063C36.9546 11.3422 36.7321 11.25 36.5 11.25H22.5C22.2679 11.25 22.0454 11.3422 21.8813 11.5063C21.7172 11.6704 21.625 11.8929 21.625 12.125C21.625 12.3571 21.7172 12.5796 21.8813 12.7437C22.0454 12.9078 22.2679 13 22.5 13Z" fill="#5A5A5A"/>
<path d="M40 13H43.5C43.7321 13 43.9546 12.9078 44.1187 12.7437C44.2828 12.5796 44.375 12.3571 44.375 12.125C44.375 11.8929 44.2828 11.6704 44.1187 11.5063C43.9546 11.3422 43.7321 11.25 43.5 11.25H40C39.7679 11.25 39.5454 11.3422 39.3813 11.5063C39.2172 11.6704 39.125 11.8929 39.125 12.125C39.125 12.3571 39.2172 12.5796 39.3813 12.7437C39.5454 12.9078 39.7679 13 40 13Z" fill="#5A5A5A"/>
<path d="M22.5 16.5H26C26.2321 16.5 26.4546 16.4078 26.6187 16.2437C26.7828 16.0796 26.875 15.8571 26.875 15.625C26.875 15.3929 26.7828 15.1704 26.6187 15.0063C26.4546 14.8422 26.2321 14.75 26 14.75H22.5C22.2679 14.75 22.0454 14.8422 21.8813 15.0063C21.7172 15.1704 21.625 15.3929 21.625 15.625C21.625 15.8571 21.7172 16.0796 21.8813 16.2437C22.0454 16.4078 22.2679 16.5 22.5 16.5Z" fill="#5A5A5A"/>
<path d="M43.5 14.75H29.5C29.2679 14.75 29.0454 14.8422 28.8813 15.0063C28.7172 15.1704 28.625 15.3929 28.625 15.625C28.625 15.8571 28.7172 16.0796 28.8813 16.2437C29.0454 16.4078 29.2679 16.5 29.5 16.5H43.5C43.7321 16.5 43.9546 16.4078 44.1187 16.2437C44.2828 16.0796 44.375 15.8571 44.375 15.625C44.375 15.3929 44.2828 15.1704 44.1187 15.0063C43.9546 14.8422 43.7321 14.75 43.5 14.75Z" fill="#5A5A5A"/>
<path d="M43.5 18.25H36.5C36.2679 18.25 36.0454 18.3422 35.8813 18.5063C35.7172 18.6704 35.625 18.8929 35.625 19.125C35.625 19.3571 35.7172 19.5796 35.8813 19.7437C36.0454 19.9078 36.2679 20 36.5 20H43.5C43.7321 20 43.9546 19.9078 44.1187 19.7437C44.2828 19.5796 44.375 19.3571 44.375 19.125C44.375 18.8929 44.2828 18.6704 44.1187 18.5063C43.9546 18.3422 43.7321 18.25 43.5 18.25Z" fill="#5A5A5A"/>
<path d="M22.5 20H33C33.2321 20 33.4546 19.9078 33.6187 19.7437C33.7828 19.5796 33.875 19.3571 33.875 19.125C33.875 18.8929 33.7828 18.6704 33.6187 18.5063C33.4546 18.3422 33.2321 18.25 33 18.25H22.5C22.2679 18.25 22.0454 18.3422 21.8813 18.5063C21.7172 18.6704 21.625 18.8929 21.625 19.125C21.625 19.3571 21.7172 19.5796 21.8813 19.7437C22.0454 19.9078 22.2679 20 22.5 20Z" fill="#5A5A5A"/>
<path d="M43.5 21.75H40C39.7679 21.75 39.5454 21.8422 39.3813 22.0063C39.2172 22.1704 39.125 22.3929 39.125 22.625C39.125 22.8571 39.2172 23.0796 39.3813 23.2437C39.5454 23.4078 39.7679 23.5 40 23.5H43.5C43.7321 23.5 43.9546 23.4078 44.1187 23.2437C44.2828 23.0796 44.375 22.8571 44.375 22.625C44.375 22.3929 44.2828 22.1704 44.1187 22.0063C43.9546 21.8422 43.7321 21.75 43.5 21.75Z" fill="#5A5A5A"/>
<path d="M22.5 23.5H36.5C36.7321 23.5 36.9546 23.4078 37.1187 23.2437C37.2828 23.0796 37.375 22.8571 37.375 22.625C37.375 22.3929 37.2828 22.1704 37.1187 22.0063C36.9546 21.8422 36.7321 21.75 36.5 21.75H22.5C22.2679 21.75 22.0454 21.8422 21.8813 22.0063C21.7172 22.1704 21.625 22.3929 21.625 22.625C21.625 22.8571 21.7172 23.0796 21.8813 23.2437C22.0454 23.4078 22.2679 23.5 22.5 23.5Z" fill="#5A5A5A"/>
<path d="M52.25 14.75H49.625V10.375C49.6229 9.67945 49.3457 9.01297 48.8539 8.52114C48.362 8.02931 47.6956 7.75208 47 7.75H19C18.3044 7.75208 17.638 8.02931 17.1461 8.52114C16.6543 9.01297 16.3771 9.67945 16.375 10.375V14.75H13.75C13.5179 14.75 13.2954 14.8422 13.1313 15.0063C12.9672 15.1704 12.875 15.3929 12.875 15.625V59.375C12.875 59.6071 12.9672 59.8296 13.1313 59.9937C13.2954 60.1578 13.5179 60.25 13.75 60.25H52.25C52.4821 60.25 52.7046 60.1578 52.8687 59.9937C53.0328 59.8296 53.125 59.6071 53.125 59.375V15.625C53.125 15.3929 53.0328 15.1704 52.8687 15.0063C52.7046 14.8422 52.4821 14.75 52.25 14.75ZM18.125 10.375C18.125 10.1429 18.2172 9.92038 18.3813 9.75628C18.5454 9.59219 18.7679 9.5 19 9.5H47C47.2321 9.5 47.4546 9.59219 47.6187 9.75628C47.7828 9.92038 47.875 10.1429 47.875 10.375V25.25H18.125V10.375ZM33.875 31.375C33.875 31.5481 33.8237 31.7172 33.7275 31.8611C33.6314 32.005 33.4947 32.1172 33.3348 32.1834C33.175 32.2496 32.999 32.2669 32.8293 32.2332C32.6596 32.1994 32.5037 32.1161 32.3813 31.9937C32.2589 31.8713 32.1756 31.7154 32.1418 31.5457C32.1081 31.376 32.1254 31.2 32.1916 31.0402C32.2578 30.8803 32.37 30.7436 32.5139 30.6475C32.6578 30.5513 32.8269 30.5 33 30.5C33.2321 30.5 33.4546 30.5922 33.6187 30.7563C33.7828 30.9204 33.875 31.1429 33.875 31.375ZM14.625 16.5H16.375V24.0163L14.625 22.2663V16.5ZM15.1675 58.5L17.7925 53.25H48.2075L50.8325 58.5H15.1675ZM51.375 55.665L49.5287 51.9813C49.4579 51.8355 49.3471 51.7128 49.2092 51.6276C49.0713 51.5424 48.9121 51.4981 48.75 51.5H17.25C17.0879 51.4981 16.9287 51.5424 16.7908 51.6276C16.6529 51.7128 16.5421 51.8355 16.4712 51.9813L14.625 55.665V24.7337L16.375 26.4837C16.5376 26.6473 16.7309 26.7771 16.9438 26.8657C17.1568 26.9543 17.3851 27 17.6158 27H32.125V28.9075C31.5412 29.1139 31.0491 29.5201 30.7358 30.0542C30.4225 30.5883 30.3081 31.216 30.4128 31.8263C30.5175 32.4366 30.8346 32.9902 31.308 33.3893C31.7815 33.7885 32.3808 34.0074 33 34.0074C33.6192 34.0074 34.2185 33.7885 34.692 33.3893C35.1654 32.9902 35.4825 32.4366 35.5872 31.8263C35.6919 31.216 35.5775 30.5883 35.2642 30.0542C34.9509 29.5201 34.4588 29.1139 33.875 28.9075V27H48.3843C48.6146 27.0004 48.8428 26.9553 49.0558 26.8673C49.2687 26.7793 49.4621 26.6502 49.625 26.4872L51.375 24.7372V55.665ZM51.375 22.2663L49.625 24.0163V16.5H51.375V22.2663Z" fill="#5A5A5A"/>
<path d="M33 35.75C32.7679 35.75 32.5454 35.8422 32.3813 36.0063C32.2172 36.1704 32.125 36.3929 32.125 36.625V48.875C32.125 49.1071 32.2172 49.3296 32.3813 49.4937C32.5454 49.6578 32.7679 49.75 33 49.75C33.2321 49.75 33.4546 49.6578 33.6187 49.4937C33.7828 49.3296 33.875 49.1071 33.875 48.875V36.625C33.875 36.3929 33.7828 36.1704 33.6187 36.0063C33.4546 35.8422 33.2321 35.75 33 35.75Z" fill="#5A5A5A"/>
</g>
<defs>
<clipPath id="clip0">
<rect width="68" height="68" fill="white"/>
</clipPath>
</defs>
</svg>
