<svg width="68" height="68" viewBox="0 0 68 68" fill="none" xmlns="http://www.w3.org/2000/svg">
<path d="M62.772 46.7101C65.5915 34.5194 55.5754 23.4796 43.3847 20.6601C31.1939 17.8406 25.9246 24.0681 23.1051 36.2588C20.2856 48.4495 27.8825 60.6177 40.0732 63.4372C52.264 66.2566 59.9526 58.9008 62.772 46.7101Z" fill="#CFF08F"/>
<g clip-path="url(#clip0)">
<path d="M54.358 44.8523C53.5074 43.5342 51.8031 43.1883 50.5401 44.0437L49.8748 44.3934L46.4301 41.6465C42.9964 38.9082 38.8411 37.4176 34.6189 37.2165C34.8207 36.1189 35.371 34.6484 36.7801 33.2388C37.1965 33.3536 38.7311 33.3915 39.2107 33.3915C42.0204 33.3915 44.5078 32.8433 46.6266 31.7546C47.0297 31.5474 47.1884 31.0529 46.9813 30.65C46.7741 30.2467 46.2794 30.0882 45.8768 30.2953C43.8165 31.354 41.3347 31.8362 38.4876 31.7366C43.6286 27.443 49.385 24.0375 51.943 22.6026C51.5026 24.0984 50.5893 26.3126 48.7579 28.176C48.4404 28.4991 48.445 29.0186 48.7681 29.3361C49.091 29.6533 49.6103 29.6492 49.9281 29.3259C52.6664 26.5396 53.5818 23.081 53.8482 21.7235C54.0196 20.8502 53.2728 20.077 52.3642 20.0887C44.322 20.2422 36.7296 23.6811 35.7215 31.7482C35.7116 31.8275 35.7101 31.9066 35.7148 31.9851C35.217 32.4704 34.8041 32.9642 34.4626 33.4544V26.6298C38.0143 23.3965 39.1351 19.1293 38.2578 14.3469C37.5204 10.3278 35.5292 6.88194 34.7073 5.58716C34.7073 5.58705 34.7073 5.58705 34.7073 5.58705C34.2244 4.82612 33.0894 4.78281 32.5791 5.58705C31.7571 6.88194 29.7659 10.3277 29.0285 14.3469C28.1534 19.1173 29.2642 23.3886 32.8219 26.6284V33.3156C32.5003 32.8711 32.1192 32.4247 31.6683 31.9851C31.673 31.9066 31.6716 31.8275 31.6616 31.7482C30.655 23.6933 23.0581 20.242 15.0189 20.0886C14.1019 20.0798 13.3644 20.8549 13.5349 21.7232C14.8139 28.2415 19.7441 33.3931 28.1397 33.3931C28.6222 33.3931 30.1887 33.3529 30.6031 33.2386C32.015 34.6494 32.5663 36.115 32.7676 37.2113C29.5193 37.3468 26.288 38.2466 23.3704 39.9316C23.0397 39.814 22.7391 39.7143 22.4879 39.6392C20.0353 38.9045 17.3086 39.2239 15.0064 40.5148L9.1121 43.8197C8.37874 43.0732 7.21346 42.8838 6.26299 43.4329L4.35188 44.5361C3.22915 45.1845 2.84305 46.6254 3.49132 47.7483L10.4633 59.8237C11.1119 60.947 12.5477 61.3354 13.6754 60.6844L15.5864 59.5811C16.6912 58.9431 17.0805 57.5383 16.4751 56.4238L17.9137 55.1477C18.3313 54.7774 18.9206 54.6534 19.4516 54.8244L26.0809 56.9551C26.9068 57.2752 27.8213 57.4075 28.735 57.3141L41.9794 55.955C42.9375 55.8568 43.869 55.5124 44.6734 54.959C54.4106 48.2567 53.8265 48.6725 53.9116 48.5928C54.9283 47.6413 55.1203 46.0332 54.358 44.8523ZM49.85 21.9103C46.9393 23.6046 42.1178 26.6076 37.6878 30.2686C39.4073 24.1612 45.7898 22.4024 49.85 21.9103ZM29.6982 30.271C25.2735 26.6138 20.4575 23.6131 17.5449 21.9172C23.0152 22.5957 28.203 24.9385 29.6982 30.271ZM15.4374 22.6013C17.9942 24.0353 23.7534 27.442 28.8963 31.7375C19.456 32.0672 16.3933 25.879 15.4374 22.6013ZM36.6441 14.6431C37.3473 18.4759 36.6127 21.7051 34.4626 24.2703V8.4682C35.2746 10.0498 36.2034 12.2409 36.6441 14.6431ZM30.6423 14.6431C31.0828 12.2424 32.0105 10.0527 32.8221 8.47159V24.2682C30.6733 21.7033 29.9393 18.4749 30.6423 14.6431ZM45.4072 42.9293L48.2888 45.2272L44.6831 47.1224C43.5006 47.7442 42.2478 48.1357 40.9482 48.2908L40.9676 47.9708C40.9701 47.9286 40.9694 47.8864 40.9654 47.8443C40.7859 45.9428 39.3942 44.426 37.5808 44.1556C37.5734 44.1545 37.566 44.1534 37.5586 44.1527L30.9751 43.3536C28.8895 43.0393 28.6058 42.1253 25.3765 40.7245C31.8583 37.5768 39.7115 38.3873 45.4072 42.9293ZM52.8288 47.3575L43.7435 53.6075C43.1651 54.0054 42.4974 54.2527 41.812 54.323L28.5676 55.6821C27.6621 55.775 27.1011 55.5604 26.6066 55.4009L19.9536 53.2624C18.8728 52.9154 17.674 53.1673 16.825 53.9205L15.6401 54.9715L12.9857 50.3739C12.7592 49.9815 12.2573 49.8474 11.8652 50.0737C11.4728 50.3002 11.3384 50.8019 11.5649 51.1942C12.0201 51.9825 14.1004 55.5856 15.0262 57.1893C15.2221 57.5288 15.1054 57.9643 14.766 58.1603L12.855 59.2636C12.5141 59.4603 12.0802 59.3433 11.884 59.0034L4.91243 46.9282C4.71654 46.5888 4.83313 46.1531 5.17263 45.9571L7.08363 44.8539C7.42532 44.6566 7.85899 44.775 8.05466 45.1141L9.64344 47.866C9.87007 48.2583 10.3718 48.3926 10.764 48.1662C11.1563 47.9397 11.2907 47.438 11.0642 47.0456L10.0003 45.203L15.8091 41.9459C17.7258 40.8711 19.9888 40.6035 22.0175 41.2109C27.1102 42.7359 27.7224 44.527 30.7437 44.9776C30.7511 44.9787 30.7585 44.9798 30.7659 44.9805L37.349 45.7795C38.3909 45.94 39.1959 46.8223 39.3259 47.9391L39.2974 48.4082L30.929 48.9548C30.4769 48.9844 30.1343 49.3748 30.1638 49.8269C30.1923 50.2608 30.553 50.5938 30.9816 50.5938C30.9997 50.5938 31.0177 50.5932 31.036 50.592C39.8927 49.7918 41.8535 50.4634 45.4466 48.5745C51.7096 45.2797 51.357 45.475 51.44 45.4161C51.9466 45.0572 52.6264 45.1944 52.9798 45.7419C53.3083 46.2511 53.2413 46.9357 52.8288 47.3575Z" fill="#5A5A5A"/>
</g>
<defs>
<clipPath id="clip0">
<rect width="56" height="56" fill="white" transform="translate(1 5)"/>
</clipPath>
</defs>
</svg>
